<svg id="Layer_1" data-name="Layer 1" xmlns="http://www.w3.org/2000/svg" viewBox="0 0 595.28 841.89"><defs><style>.cls-1,.cls-2{fill:#231f20;}.cls-1{fill-rule:evenodd;}</style></defs><polygon class="cls-1" points="443.71 106.67 378.96 41.93 314.21 106.67 378.96 171.42 443.71 106.67"/><path class="cls-1" d="M173.63,527.91Q126,506.17,114.9,495.66H42.36c0,.19-.08.37-.12.56q-5.07,19.44-6.76,27Q27,557.06,28.73,577.33l.84,11q8.45,20.3,67.6,62.94t80.26,42.67q8.43-2.52,35.9-65t24.93-68.45Q235.74,556.22,173.63,527.91Z"/><path class="cls-1" d="M324.44,465a262,262,0,0,1-14.37-40.55L246.71,177.7q-5.07-16.89-14.36-16.9c-3.38,0-6.48,2-9.3,5.91l-55.76,71q-7.6,16.06-5.91,24.5l16.89,62.52q-28.72,23.67-45.62,37.18l-11,9.29Q93.79,394,84.49,402.44q-13.51,11-17.74,16.89-10,13.1-22.11,66.12h67.85q5.08-13.67,37.06-35.7,22.81-15.21,34.65-21.13t19.42-5.91l22.81,89.56q26.19,99.71,39.71,120,38,58.29,120.82,58.29h3.93V512.27h-4.77Q347.26,512.27,324.44,465Z"/><path class="cls-1" d="M557.84,380.57c-9.5-42.35-30.71-106.92-62.85-134.7-24.87,45.2-49.53,90.65-74.25,136q17.67,16.32,35.39,32.53c14.28,13.09,36.23,33.95,44.11,47.14a32.75,32.75,0,0,1,4.64,19.78q0,30.58-72.25,31.44l-31.53.36V689.92q25.29-5.07,51.94-18.66c60.89-31.06,92.74-93,107.58-157.76C570.67,469.63,567.65,424.24,557.84,380.57Z"/><path class="cls-2" d="M33.82,790.73a17.44,17.44,0,0,1,.81-4.65,10.07,10.07,0,0,0,.52-2.36c0-.74-.4-1.11-1.19-1.11s-1.91,2-2.95,6a42.94,42.94,0,0,0-1.63,10.41q0,7.24,5.69,10.83Q40,813,49.82,813.4V804a30,30,0,0,1-9.58-2.67A11.1,11.1,0,0,1,33.82,790.73Z"/><path class="cls-2" d="M82.56,795.09A15.66,15.66,0,0,0,75.83,794l-9.3-.07c-2.63,0-4.3-.36-5.06-.95H57.11a8.12,8.12,0,0,0-.18,1.83,4.1,4.1,0,0,0,2,3.84,16.64,16.64,0,0,0,7,1.11H77.09a8.1,8.1,0,0,1,2.84.35h4.5c0-.38,0-.77,0-1.16C84.47,797,83.83,795.73,82.56,795.09Z"/><path class="cls-2" d="M67.56,781.87A24.76,24.76,0,0,0,60.47,787a15,15,0,0,0-2.63,3.77h3.67q1.49-1.57,7.24-1.41l18.08.59V778.84H82.92Q73.62,778.84,67.56,781.87Z"/><path class="cls-2" d="M71.55,804a97.13,97.13,0,0,1-10.64.58q-4.29,0-7.87-.3v9.17h.13q15,0,23.15-3.14,6.39-2.48,7.77-8.1H79.24C77.84,803,75.28,803.59,71.55,804Z"/><path class="cls-2" d="M118.37,773.5a20.84,20.84,0,0,0-2.91,1.76,17.21,17.21,0,0,1,.8,5.06q0,3.76-2.8,3.77-3.1,0-5.58-5.1t-2.48-7.9c0-2.66,1.09-4,3.26-3.92s3.91,1.57,5.38,4.54c.08.16.15.31.22.47a25.87,25.87,0,0,1,3-1.68,17.69,17.69,0,0,0-2.18-3.69q-2.82-3.76-6.42-3.77a8.16,8.16,0,0,0-6.32,2.62,9.42,9.42,0,0,0-2.4,6.61c0,1.14,0,2.07.08,2.81,0,.24.07.39.07.44,0,2.22-2.51,3.32-7.54,3.32V790h.52a6.94,6.94,0,0,0,5.32-2.32,14.51,14.51,0,0,0,3.17-6.54q4.65,10.49,10.27,10.49a6.89,6.89,0,0,0,6.06-3.18,11.26,11.26,0,0,0,2-6.79,29.81,29.81,0,0,0-1.41-7.83C118.44,773.71,118.4,773.61,118.37,773.5Z"/><path class="cls-2" d="M128.81,753.73q13.66,9.46,16.28,19.22l2.67-2.68a38.64,38.64,0,0,0-9.49-19.56c2.65-.49,4-1.08,4-1.78-.1-.49-.94-1-2.51-1.47a13.18,13.18,0,0,0-2-.81l-3-1.48a22.88,22.88,0,0,1-4.35-2.95,5.07,5.07,0,0,0-1.41-1c-.39,0-.73.72-1,2.14l-1.18,6.06a14.75,14.75,0,0,0-.3,2.29C126.52,752,127.29,752.66,128.81,753.73Z"/><path class="cls-2" d="M148.45,774.93c-.07-.7-.18-1.36-.27-2l-2.58,2.6c.06.53.11,1,.12,1.58a106,106,0,0,1-17.13,9.23c-2.42,1.09-3.62,1.8-3.62,2.14q0,1.56,9.75,1.48c4.38,0,7.39-.52,9-1.4q2.88-1.63,8.79-12.56,1.08-2,2.08-4l-2.35-2.34A52.12,52.12,0,0,1,148.45,774.93Z"/><path class="cls-2" d="M164.81,776.81q-1.14-1.95-1.14-7.71l.59-19.13c0-1.58.07-3.2.07-4.88,0-2.5-.4-3.76-1.18-3.76-.45,0-.8.32-1.07,1a18.23,18.23,0,0,0-.78,4,51.31,51.31,0,0,1-4.65,15.13c-1,2.24-2.11,4.33-3.25,6.29l2.21,2.21c1.41-2.86,2.73-5.65,3.92-8.35q-.66,7.68-.67,15.29,0,13.15,10.34,13.14h.67V778.84a.68.68,0,0,1-.59.15C167.06,778.84,165.57,778.12,164.81,776.81Z"/><path class="cls-2" d="M211,774.68h3.65a47.08,47.08,0,0,0-.5-4.92c-.64-4.18-1.58-6.28-2.81-6.28-.09,0-.27.2-.51.59l-2.51,3.7c-.35.84-.52,1.2-.52,1.1a11.66,11.66,0,0,0,.67,1.18A17.61,17.61,0,0,1,211,774.68Z"/><path class="cls-2" d="M186.32,773.23c-.19-1.18-.54-1.77-1-1.77s-1,.84-1.1,2.21a7.43,7.43,0,0,1-1.86,4q-1.25,1.14-4.65,1.14h-3.1V790h2.07q5.25,0,8.42-4.87c1.6,2.81,3.61,4.38,6.05,4.73V778.64C188.43,778.36,186.82,776.57,186.32,773.23Z"/><path class="cls-2" d="M206.19,778.69c-4.14,0-6.42-1.91-6.87-5.61-.19-1.13-.56-1.7-1.11-1.7s-.84.79-1.18,2.37a8.18,8.18,0,0,1-1.77,3.84,3.88,3.88,0,0,1-2,1v11.24c2-.42,3.86-2,5.61-4.67q2.88,4.73,6.79,4.73a7.2,7.2,0,0,0,6.21-3.55,17.8,17.8,0,0,0,2.73-8.71c0-.24,0-.5.06-.76h-3.84C210.22,778.11,208.68,778.74,206.19,778.69Z"/><path class="cls-2" d="M235.35,739.56q-1.11,0-10.63,7.6l2.95,26.66c1,9.11,1.72,14,2.07,14.63.2.58.54.88,1,.88a.78.78,0,0,0,.73-.37,52.29,52.29,0,0,0,1.18-7.38l2.22-30.06.88-11.23C235.84,739.8,235.69,739.56,235.35,739.56Z"/><path class="cls-2" d="M261.28,781a29,29,0,0,1,1.18-7.23,10.34,10.34,0,0,0,.52-2.66q0-1.11-1-1.11-1.54.07-3.54,6.39a39.45,39.45,0,0,0-2,11.85q0,8.56,5.69,12.71c3.58,2.6,9.17,4,16.74,4.1V794.5a34.89,34.89,0,0,1-8.76-1.7Q261.29,789.62,261.28,781Z"/><path class="cls-2" d="M307.59,776.18a56.85,56.85,0,0,0-8.87-1.33c-4-.44-6.77-1-8.19-1.7-1.13-.29-1.7-.71-1.7-1.25a5.6,5.6,0,0,1,.83-2.57l-2.24-2.23a25.13,25.13,0,0,0-2.72,11.08c0,2.85,1.89,4.8,5.68,5.83a61.59,61.59,0,0,0,9.08,1.11,53.58,53.58,0,0,1,8.72,1.33,2.44,2.44,0,0,1,1.33,1.13h2.94a30,30,0,0,0,.23-3.79,8.78,8.78,0,0,0-1.22-5.1A7.12,7.12,0,0,0,307.59,776.18Z"/><path class="cls-2" d="M314.3,764.59a9.66,9.66,0,0,0-3.32-7.31,10.66,10.66,0,0,0-7.46-3.1q-7.61,0-13.51,8.49c-.56.82-1.06,1.63-1.53,2.45l2.38,2.38c.32-.44.67-.88,1.07-1.36,2.17-2.21,5.32-3.3,9.45-3.24q7.46.06,11.89,1.91a6.2,6.2,0,0,0,.89.37A1.28,1.28,0,0,0,314.3,764.59Z"/><path class="cls-2" d="M286.31,794.79c-1.47,0-2.85,0-4.17-.09V805q10.29-.21,16.81-2.63,7.38-2.65,10.55-6.8a14.7,14.7,0,0,0,2.58-5.87h-2.81Q306.66,794.79,286.31,794.79Z"/><path class="cls-2" d="M337.35,775.59q-2.37-4-3.4-4c-.34,0-1.33,1.37-2.95,4.13a29.72,29.72,0,0,0-2.52,4.8,2.48,2.48,0,0,0,.74.59q8.1,6.54,8.73,10.31h3.37c.05-.84.09-1.69.09-2.55a23.33,23.33,0,0,0-1.48-8.35A33.58,33.58,0,0,0,337.35,775.59Z"/><path class="cls-2" d="M333.8,798.52q-4.2,4.32-15.29,9.56-4.78,2.29-4.79,2.89,0,1.17,5.83,1.7,6.13.58,9.67.58a4.66,4.66,0,0,0,3.18-1.1,23.68,23.68,0,0,0,3.91-5.1,34.08,34.08,0,0,0,4.79-13.46h-3.5A19.52,19.52,0,0,1,333.8,798.52Z"/><path class="cls-2" d="M357.66,772.27a6.44,6.44,0,0,1,2.77.66q3.29-3.23,6.54-6.46a8.24,8.24,0,0,0-7-4q-4.72,0-8,7.72c-.38.9-.72,1.77-1,2.62a38.18,38.18,0,0,0,3.81.87A3.48,3.48,0,0,1,357.66,772.27Z"/><path class="cls-2" d="M360.17,800.77a52.8,52.8,0,0,1-12,7c-4,1.68-6,2.81-6,3.4s2.54,1.32,7.31,1.77c3.4.34,6.3.52,8.71.52q2.44,0,5.77-4.88a37.23,37.23,0,0,0,4.06-8.12,42.49,42.49,0,0,0,2-7h-3.61A21.38,21.38,0,0,1,360.17,800.77Z"/><path class="cls-2" d="M368.57,769.43c-1.84,1.83-3.68,3.64-5.52,5.45a18.23,18.23,0,0,1,2.73,4h-3.91c-5.2,0-8-.72-8.55-2.16-1.17-.23-2.33-.5-3.47-.83a25.11,25.11,0,0,0-1.2,7.06,5.43,5.43,0,0,0,3.61,5.42q3.62,1.51,15.14,1.52a8.73,8.73,0,0,1-.21,1.5h3.21c.06-.45.13-.91.18-1.36h9V778.84H371A38.45,38.45,0,0,0,368.57,769.43Z"/><path class="cls-2" d="M408.8,767.25a6.2,6.2,0,0,0-1.54-4.21,4.43,4.43,0,0,0-3.55-1.55c-2.85,0-6,1.52-9.45,4.58-.43.38-.84.77-1.24,1.19l3.36,3.33a4.7,4.7,0,0,1,1.94-.39c2,0,2.95.91,2.95,2.74,0,1.67-1.31,3.64-3.91,5.9h-7.31a14.18,14.18,0,0,1,3.54-6.27l.11-.1c-.92-.9-1.83-1.81-2.74-2.72a30.05,30.05,0,0,0-4.31,9.09H382V790h4.43q1.47,8.21,6.06,12.19a16.62,16.62,0,0,0,5.45,3.28v-7a13.92,13.92,0,0,1-3.72-1.74,11.4,11.4,0,0,1-4.69-6.76h6.65a56.55,56.55,0,0,1,4.8,3.1q3.76,2.74,3.76,4c0,.34-.27.74-.81,1.21a3.76,3.76,0,0,1-2.51.7h-.25v7.13c.28,0,.56,0,.84,0a7.64,7.64,0,0,0,3.76-.82,6.59,6.59,0,0,0,3.55-6.28q0-4.58-7-9.08h10V778.84H401.86Q408.81,773.31,408.8,767.25Z"/><path class="cls-2" d="M433.71,761.49a10.24,10.24,0,0,0-5.24,1.7,8.66,8.66,0,0,0-3,4.06,15.61,15.61,0,0,0-1.11,5.46,14.79,14.79,0,0,1-.7,3.7,3.35,3.35,0,0,1-2.29,1.84,18.83,18.83,0,0,1-5.51.59V790a11.82,11.82,0,0,0,5.62-1.4c1.38-.89,3-3,4.95-6.35q4,7.56,9.18,8.38v-10l0,0a12.45,12.45,0,0,1-3.47-4.62,12.25,12.25,0,0,1-1.55-5.58,7,7,0,0,1,1-2.8,4,4,0,0,1,2.66-.89,4.58,4.58,0,0,1,3.18,1.67,8.78,8.78,0,0,1,.66.77l2.88-2.89Q437.18,761.39,433.71,761.49Z"/><path class="cls-2" d="M446.92,776c-1.33-2-2.28-3.6-2.87-4.73-.45-.82-.89-1.59-1.33-2.31l-3,3c.27.53.53,1.11.79,1.73a16.12,16.12,0,0,1,1.55,5.83c0,1.77-.84,2.66-2.51,2.66a3.83,3.83,0,0,1-.73-.09v8.33a4.33,4.33,0,0,0,2.13-1.22,17.35,17.35,0,0,0,3.84-5.4c1.83,4.09,4.38,6.13,7.68,6.13h2.37V778.84a12.59,12.59,0,0,1-4.73-.73A10.76,10.76,0,0,1,446.92,776Z"/><polygon class="cls-2" points="479.51 806.54 484.61 811.63 489.71 806.54 484.54 801.37 479.51 806.54"/><path class="cls-2" d="M462.9,771.61c.34,0,.89-.44,1.62-1.33q2.3-3,4.81-3c1.17,0,3.34.62,6.49,1.85l.57.21q3.51-3.55,7.06-7.09c-1-.37-2-.76-3.05-1.18q-5.68-2.2-7.68-2.21-4.29,0-7.42,5.1c-2.1,3.39-3.14,5.66-3.14,6.79C462.16,771.31,462.4,771.61,462.9,771.61Z"/><path class="cls-2" d="M504.92,767.62a86.37,86.37,0,0,1-18.11-4.2q-3.57,3.57-7.11,7.14c2.48.9,5.12,1.76,7.94,2.59a60.39,60.39,0,0,1-13.18,4.36,82,82,0,0,1-16.07,1.33V790h2.81A42.08,42.08,0,0,0,475,787.85a62.89,62.89,0,0,0,12.55-6.43c4-2.45,6.75-3.91,8.27-4.35a18.55,18.55,0,0,1,4.95-.89,4.67,4.67,0,0,0,1.11.08,6.33,6.33,0,0,0,1,.07c.5-.09,1-.59,1.48-1.48l2.8-5.31a3,3,0,0,0,.52-.89C507.72,768.21,506.79,767.87,504.92,767.62Z"/><path class="cls-2" d="M522.23,773.08a34.46,34.46,0,0,1,3-2.28c-.91-.9-1.83-1.79-2.73-2.69a14.53,14.53,0,0,0-2.61,2.06,12.2,12.2,0,0,0-1.92,3.69,12.36,12.36,0,0,0-.81,3.95,3.86,3.86,0,0,0,.7,1.92,3.74,3.74,0,0,0,1.19.74l6-6.05A14.27,14.27,0,0,1,522.23,773.08Z"/><path class="cls-2" d="M540.47,776.85q-1.26-2.36-2.29-9.53l-1.55-11.22c-.39-3-.79-4.51-1.18-4.51s-1.32,1.07-2.92,3.21-2.4,3.51-2.4,4.1a36.74,36.74,0,0,0,.37,4.14c-2,1.24-3.8,2.32-5.26,3.26L528,769c1-.59,2-1.17,3.1-1.77a66.49,66.49,0,0,0,1.41,9c-1.43-.25-2.72-.52-3.9-.81l-6.26,6.27,1.15.37a34.48,34.48,0,0,0,5.76,1.56c.44,0,1.15-.79,2.14-2.37l1.55-2.51q1,5.84,3.32,8.71c1.33,1.68,3.74,2.51,7.24,2.51h2.21V778.84h-1.4A4,4,0,0,1,540.47,776.85Z"/><path class="cls-2" d="M565.89,773.75a33.81,33.81,0,0,0-1.55-8q-1.77-6.42-3.47-6.42a1.09,1.09,0,0,0-.81.37c-.59.84-1.13,1.58-1.63,2.21l-2.8,4.51a4.89,4.89,0,0,0-.52,1.1c0,.25.22.6.66,1q5.76,5.83,5.77,7.53,0,2.73-10.41,2.73h-1.86V790h1.86Q565.89,790,565.89,773.75Z"/><polygon class="cls-2" points="553.71 801.59 558.65 806.83 563.83 801.59 558.65 796.42 553.71 801.59"/></svg>