<svg id="Layer_1" data-name="Layer 1" xmlns="http://www.w3.org/2000/svg" viewBox="0 0 595.28 841.89"><defs><style>.cls-1{fill:#231f20;}</style></defs><path class="cls-1" d="M216.93,523.62a186.12,186.12,0,0,0,5.48-19.83L154.6,436c-3.11,5.73-7.41,10-13.36,11.26,0,0-25,5.42-33.52-9.89H23.86c-2.28,33,.33,90.9,39.62,126.87C92.75,591,176.33,650.23,216.93,523.62Z"/><path class="cls-1" d="M230,216a13.65,13.65,0,0,1,5.1-13.51V104.79c-12.31,1.19-57.84,8.14-85.62,46.55,0,0-19,18.75-13.07,54.36l17.2,103.91S38.71,323.37,27,412.14c0,0-1.35,6.42-2.43,16.84h80.59a39.56,39.56,0,0,1,.28-10.3s6.89-21,57.12-28.56c0,0,.82,20.91-4.49,37.51L224.44,494a298.24,298.24,0,0,0,4.88-69.46V376.36l6.49-1.79V294.88l-5.8,1Z"/><path class="cls-1" d="M319.46,357.78s51.51-15,72-54.15l-38.57-38.56c-8.72,6.65-20.39,10.13-20.39,10.13l11.67-48.65a16,16,0,0,0,.4-2.46l3.07-37.66s5.33-65.37-104.2-81.18v94.9a11.27,11.27,0,0,1,7.17,8.3v84l-6.48,1.08v78.77l5.08-1.41v104.6a177.29,177.29,0,0,0,6.64,50S270.67,573,316.7,592.16c18.37,7.66,41.87,9.31,73.22,9.79V448.66c-16.69.64-34.86.57-42.24-2.11,0,0-42-8.95-30.28-63.31Z"/><path class="cls-1" d="M394.83,240.8c-5.54-12-18.9-27.85-42.32-29.57v15.66c11.59,7.41,9.62,20.79,9.62,20.79a15.09,15.09,0,0,1-3.23,11.52l36.27,36.27C400.84,280.48,404.38,261.42,394.83,240.8Z"/><path class="cls-1" d="M570.63,408c-9.11-118.91-70.88-160.33-70.88-160.33-19.95-6.19-67.43,87.39-67.43,87.39l-13.08,24.77c-13.07,24.78,9.64,22,9.64,22,27.52-2.75,26.83,20.65,26.83,20.65,5.24,32.35-21.43,41.79-38.39,44.54-4.59.35-11.39.84-19,1.23V602c6.07,0,12.44-.2,19.17-.52C576.86,593.9,575.34,469.52,570.63,408Z"/><circle class="cls-1" cx="454.39" cy="152.23" r="47.58"/><path class="cls-1" d="M67.23,652.44c-.08,2.77-.11,5.16-.11,7.18,0,2.22-.05,4-.06,5.21h9.31c0-.6-.05-1.22-.05-1.87,0-2.76.07-5.67.2-8.7l.82-16,.3-9.7a35,35,0,0,0-.1-4.85c-.2-.82-.61-1.22-1.22-1.22q-1.72,0-9.5,8.19c.33,5.53.51,11.19.51,17C67.33,648.43,67.29,650,67.23,652.44Z"/><path class="cls-1" d="M82.6,690.77H86V675.7l-2.83-.21c-3.78-.27-6-3.17-6.66-8.66H67c0,.22,0,.37,0,.43Q67.19,690.76,82.6,690.77Z"/><path class="cls-1" d="M117.84,691.78c2.49,0,4.35-.68,5.56-2a23.58,23.58,0,0,0,5.26-7.38q3.75,8.4,10.52,8.4h3.24V675.49a17,17,0,0,1-6.47-1,14.32,14.32,0,0,1-4.36-2.82q-2.73-4.15-3.93-6.48c-.12-.2-.23-.4-.34-.6h-6.43a37.42,37.42,0,0,1,1.91,3.94,22.18,22.18,0,0,1,2.12,8c0,2.42-1.15,3.64-3.44,3.64a9.68,9.68,0,0,1-5.21-2.06c-2.82,2.82-5.64,5.66-8.46,8.49Q112.37,691.77,117.84,691.78Z"/><path class="cls-1" d="M114.11,658.91a6.27,6.27,0,0,1,4.34,2.28,12,12,0,0,1,1.16,1.39h6.56q-6.58-11-12.67-10.85a14.15,14.15,0,0,0-7.18,2.33,11.87,11.87,0,0,0-4.14,5.56,21.28,21.28,0,0,0-1.53,7.48,19.94,19.94,0,0,1-1,5.06,4.63,4.63,0,0,1-3.14,2.53,26.06,26.06,0,0,1-7.54.8v15.28a16.38,16.38,0,0,0,7.69-1.92c1.89-1.22,4.14-4.11,6.78-8.7a37.17,37.17,0,0,0,3.05,4.87l8.19-8.23a20.45,20.45,0,0,1-3.46-5.19,16.69,16.69,0,0,1-2.12-7.63,9.56,9.56,0,0,1,1.32-3.85A5.42,5.42,0,0,1,114.11,658.91Z"/><path class="cls-1" d="M163.08,663.76c-.33-2.08-.81-3.13-1.41-3.13s-1.08,1-1.41,3.13q-2.34,11.73-11.83,11.73h-2v15.28q6.57,0,10.06-2.94t5.21-9.2a19.63,19.63,0,0,0,3.85,8.34q2.92,3.79,11.42,3.8V675.49H174.3Q165.12,675.49,163.08,663.76Z"/><polygon class="cls-1" points="161.98 703.3 155.8 696.63 149.54 703.91 155.9 710.79 161.98 704.22 168.45 710.79 174.51 703.91 168.45 696.93 161.98 703.3"/><path class="cls-1" d="M223.2,675.3c-5.65-.07-8.79-2.64-9.39-7.69-.27-1.55-.78-2.33-1.52-2.33s-1.15,1.08-1.62,3.24a11.21,11.21,0,0,1-2.43,5.25,6.29,6.29,0,0,1-4.65,1.53c-4.31,0-6.85-2.5-7.59-7.49-.26-1.62-.74-2.43-1.41-2.43s-1.31,1.15-1.51,3c-.55,2.63-1.39,4.47-2.54,5.51s-3.26,1.56-6.37,1.56h-4.24v15.28h2.83q7.19,0,11.53-6.68,3.74,6.57,9.7,6.58,5,0,9.21-6.58c2.63,4.31,5.72,6.48,9.3,6.48s6.33-1.62,8.5-4.87a24.29,24.29,0,0,0,3.74-11.93c0-.37.06-.77.08-1.19h-5.19C228.84,674.43,226.72,675.35,223.2,675.3Z"/><path class="cls-1" d="M230.28,654.47c-.13,0-.37.26-.7.8l-3.44,5.06c-.47,1.14-.71,1.65-.71,1.51a13.65,13.65,0,0,0,.91,1.62c2.25,3.23,3.45,5.6,3.62,7.12h4.88a62.74,62.74,0,0,0-.71-7.52Q232.81,654.47,230.28,654.47Z"/><path class="cls-1" d="M254.77,667.56l-4.31-4.27a44.16,44.16,0,0,0-2.7,7.45c-1.35,4.93-2,8.39-2,10.42q0,6.38,8,8.39a36.43,36.43,0,0,0,6.25.83v-14.8c-5.24-.6-7.87-1.8-7.87-3.63a5.54,5.54,0,0,1,1.72-3.53A5.85,5.85,0,0,1,254.77,667.56Z"/><path class="cls-1" d="M261.61,653.14q-5.16,0-8.39,5.16c-.65,1-1.26,2-1.82,3.1l5.33,5.29a7.25,7.25,0,0,1,1.65-.19q6.57,0,10.92,9.5c-2.78,0-5.21-.08-7.32-.24v14.72c1.44,0,3,.09,4.69.09h4.95a12.83,12.83,0,0,1-.79,3.88h4.6l.24-1.26a64,64,0,0,0,1-11.42,49.6,49.6,0,0,0-3-17.6Q269.5,653.15,261.61,653.14Z"/><path class="cls-1" d="M261.92,705.53a72.83,72.83,0,0,1-16.08,9.5c-5.87,2.49-8.8,4.15-8.8,5s2.57,1.45,7.68,2.13A100,100,0,0,0,258,723.23a10.91,10.91,0,0,0,3.34-.41,29.62,29.62,0,0,0,4.25-4.25q6.3-7.47,9.45-22.12h-5.07A30.19,30.19,0,0,1,261.92,705.53Z"/><path class="cls-1" d="M306.59,621.7q-1.53,0-14.56,10.42l4,36.5q2.13,18.71,2.83,20c.27.81.74,1.21,1.42,1.21a1.07,1.07,0,0,0,1-.5A74,74,0,0,0,303,679.24l3-41.16,1.21-15.37C307.26,622,307.06,621.7,306.59,621.7Z"/><path class="cls-1" d="M333,676.81a16.24,16.24,0,0,1-7-1.42q-3.84-1.9-3.84-5.45c0,.06.1-.68.3-2.23.07-.74.1-1.48.1-2.23s-.3-1.31-.9-1.31q-1.83,0-3.14,7a49.41,49.41,0,0,0-1,8.7q0,10.81,11.23,10.82,13.13,0,22.19-12.36l-4.68-4.67A26.74,26.74,0,0,1,333,676.81Z"/><path class="cls-1" d="M358.06,656.79l-4.45-14c-.88-2.77-1.48-4.15-1.82-4.15s-1.05.84-2.33,2.52c-1.08,1.35-1.81,2.33-2.22,2.94-1.41,1.55-2.13,2.62-2.13,3.24,0-.07.27.74.82,2.42l7.07,19a32.64,32.64,0,0,1-5,3.87l4.06,4.06c.79-1.18,1.57-2.44,2.32-3.78q3.43,9.09,6.78,13.5a10.21,10.21,0,0,0,8.49,4.4H372V675.49h-2.42Q363.92,675.49,358.06,656.79Z"/><path class="cls-1" d="M409.37,676.2c-3,0-6.21-.1-9.71-.3a59.18,59.18,0,0,1,8.45-8.09v-6.14A126.71,126.71,0,0,0,394.61,675q-2.53-1-4.81-5.36c-1.51-2.9-2.24-4.35-2.17-4.35-.74,0-1.38.88-1.92,2.63-1.69,5.06-4.14,7.58-7.38,7.58H376v15.28h2c3.84,0,6.9-2,9.19-6q5.58,6.08,17.91,6,17.58-.1,27.65-9.76a42.11,42.11,0,0,0,6.9-8.31h-6.06Q429.57,676.2,409.37,676.2Z"/><path class="cls-1" d="M431.32,650.82q-9.44,0-21.21,9.22v6.35q6.08-4,11.7-4a17,17,0,0,1,8.09,2.23c3.15,1.67,4.73,3.72,4.74,6.12h6.14a18,18,0,0,0,2.06-8.05q0-5.76-2.93-8.79T431.32,650.82Z"/><path class="cls-1" d="M471.36,660.84c.71-.41,1.44-.81,2.2-1.22a48.82,48.82,0,0,0,.87,6.71h10c-.4-1.88-.78-4.07-1.14-6.6l-2.13-15.37c-.53-4.12-1.08-6.18-1.62-6.18s-1.8,1.47-4,4.4-3.29,4.81-3.29,5.61a47.87,47.87,0,0,0,.51,5.67l-1.39.84Z"/><path class="cls-1" d="M486.4,672.77a21,21,0,0,1-1.53-4.44H474.79c.21,1.11.44,2.32.69,3.62q-9.9-1.71-14.05-4.34a58.08,58.08,0,0,1,7.93-5.6v-6.08q-9.86,6.08-11.17,7.69a16.85,16.85,0,0,0-2.63,5,17,17,0,0,0-1.11,5.41,5.32,5.32,0,0,0,1,2.63c.5.68,3.08,1.75,7.74,3.24q6.66,2.12,7.88,2.12c.61,0,1.58-1.08,2.93-3.24l2.13-3.44q1.41,8,4.54,11.94,2.73,3.43,9.92,3.44h3V675.49h-1.92C489.16,675.49,487.41,674.59,486.4,672.77Z"/><path class="cls-1" d="M512.44,648.8a1.51,1.51,0,0,0-1.11.51c-.81,1.15-1.55,2.15-2.23,3l-3.84,6.16a7,7,0,0,0-.7,1.52c0,.34.3.81.9,1.42,3.76,3.8,6.16,6.64,7.24,8.51h6.58c0-.47,0-.94,0-1.43,0-2.22-.7-5.87-2.13-10.92Q514.76,648.8,512.44,648.8Z"/><path class="cls-1" d="M499.1,675.49h-2.54v15.28h2.54q18.58,0,20.07-18.82h-5.84Q513,675.49,499.1,675.49Z"/><polygon class="cls-1" points="502.64 706.64 509.41 713.82 516.49 706.64 509.41 699.56 502.64 706.64"/><rect class="cls-1" x="67.85" y="725.68" width="96.38" height="11.55"/></svg>