<svg id="Layer_1" data-name="Layer 1" xmlns="http://www.w3.org/2000/svg" viewBox="0 0 595.28 841.89"><defs><style>.cls-1{fill:#231f20;}</style></defs><path class="cls-1" d="M26.41,483.35h130.1V417.22a23.34,23.34,0,0,1,0-46.31V297.1q-6.72,1.13-13.89,1.93c-54.91,6.16-87.56,38.09-90.88,90.89-2.36,37.57-11.31,64.83-29.49,82.44C18.05,476.42,20.58,483.35,26.41,483.35Z"/><path class="cls-1" d="M432.76,510.7a21.56,21.56,0,0,0-7.15-1.44c-.38,0-.69-.22-1.08-.22s-.62.18-.95.19a29.16,29.16,0,0,0-8,1.62c-.57.2-1.2.21-1.75.45V496.35H547.21l27.9-.08c-12.34-6-17.64-4.55-30.43-23.27-6.36-10.39-16.74-25.06-34.5-25.79-1.37,0,17.06-8.84,22.54-37.81,4.44-23.3-3.15-58.78-40.81-67.66-18.56-4.36-37.15,6.12-40.57,21.16S455,385.47,455,385.47s1.35-10.72,9.17-15.72c5.62-4.25,14.22-3.83,15.11-3.83a19.69,19.69,0,0,1,6.46,38.33,22.65,22.65,0,0,1-5.44,1.1c-.36,0-.66.21-1,.21s-.65-.19-1-.21l-148.42.08-.06,89.22-4.28.7v119.1c24.78,1.23,51.43-1.87,55.81-21.52,2.32-10.33-14.39-20.44-20.6-4.58,0,0-2.46-16.27,9.58-17.71,14.18-2.74,51.74,16.85,71.48-9.79,2.65-3.49,7.94-9.54,9.77-24.82A26.68,26.68,0,0,0,432.76,510.7Z"/><path class="cls-1" d="M190.88,191.19c20.05,10.79,42.63,27.23,42.63,54.44,0,1-.06,1.91-.15,2.85h79.4V238.8s-.14-2.65-.36-6.74V106.91a1.63,1.63,0,0,0-3.18-.57c-6.43,20-17.55,51.7-60.18,50.85-4.68,8.1-33.72,18.83-48.21-1.48-9.44-13.92-10.73-26.52,1.2-38-4.37-3-21.66-1.32-33.21,17.33C155.26,156.87,170.87,180.41,190.88,191.19Z"/><path class="cls-1" d="M317,613.87V496.72l-4.27.69V256.93H231.31c-7.14,17.82-31.3,31.5-66.35,38.62v75.83a23.34,23.34,0,0,1,0,45.36v66.61h62.48l-1,155.39s16.49-29.32,55-29.32C285,609.42,299.84,612.39,317,613.87Z"/><circle class="cls-1" cx="400.77" cy="280.48" r="63.25"/><path class="cls-1" d="M58.82,686.34a70.76,70.76,0,0,0-3.73,6.25,24.2,24.2,0,0,0-1.15,2.51c.05.1.34.55.86,1.36q6.77,6.76,7.78,10.69h3c0-.24,0-.46,0-.71,0-5.84-1-10.64-2.87-14.43S59.49,686.34,58.82,686.34Z"/><polygon class="cls-1" points="44.53 689.22 49.42 684.33 44.53 679.31 39.51 684.4 44.53 689.22"/><path class="cls-1" d="M57,714.81q-5.74,2.61-14.65,2.62c-1.3,0-2.53-.06-3.68-.16q-4.34,4.4-8.71,8.74a28.62,28.62,0,0,0,12.61,2.47q21.59,0,22.94-19.33H62.7C62.35,711.32,60.46,713.21,57,714.81Z"/><path class="cls-1" d="M25.73,706.66A40.94,40.94,0,0,1,26.8,701a26.54,26.54,0,0,0,.58-2.73c0-.57-.27-.86-.79-.86-1,.05-2,1.72-3.09,5a31,31,0,0,0-1.65,9.83q0,8.34,5.53,12.28c.23.17.48.31.73.47q4-4,8-8C29.21,715.76,25.73,712.34,25.73,706.66Z"/><path class="cls-1" d="M80.78,698.94q-3.12,3.12-6.26,6.2c1.51,5.79,4.88,8.69,10.15,8.69H87.1V703.14l-2-.15C83,702.84,81.51,701.48,80.78,698.94Z"/><path class="cls-1" d="M80.21,694.09c0-2,.05-4,.14-6.17l.58-11.34.22-6.89a23.52,23.52,0,0,0-.08-3.45c-.14-.57-.43-.86-.86-.86q-1.21,0-6.74,5.82c.23,3.92.36,7.94.36,12,0,.53,0,1.65-.08,3.38,0,2-.07,3.66-.07,5.1,0,3.39-.06,5.2-.07,5.42a37.23,37.23,0,0,0,.42,5.66l6.31-6.24A23.55,23.55,0,0,1,80.21,694.09Z"/><polygon class="cls-1" points="108.15 672.99 103.13 668.03 98.31 672.92 103.27 678.01 108.15 672.99"/><path class="cls-1" d="M108.37,701.65H103.5c-1.38.89-4.46,1.34-9.27,1.34h-1.8v10.84h1.8Q106.83,713.83,108.37,701.65Z"/><path class="cls-1" d="M98.75,693c3.09,3.13,4.89,5.33,5.42,6.63h4.37c0-.53,0-1,0-1.6a32.88,32.88,0,0,0-1.51-7.76Q105.35,684,103.7,684a1.09,1.09,0,0,0-.79.36c-.57.82-1.1,1.54-1.58,2.15l-2.73,4.39a5,5,0,0,0-.5,1.07C98.1,692.26,98.31,692.59,98.75,693Z"/><path class="cls-1" d="M124.44,695.67c-.33,0-1.31,1.36-2.91,4.06s-2.41,4.25-2.41,4.63c.24.24.49.46.72.65q8.55,6.68,8.55,10.41s0,.07,0,.1h3.14a24,24,0,0,0,.17-3.12,22.66,22.66,0,0,0-3.23-11.77C126.4,697.33,125.06,695.67,124.44,695.67Z"/><polygon class="cls-1" points="125.16 684.9 130.11 679.96 125.16 675 120.13 679.88 125.16 684.9"/><path class="cls-1" d="M123.58,722.56a71.76,71.76,0,0,1-14.15,8.5q-4.67,2.24-4.66,3,0,1,6.39,1.65c3.2.29,6.1.43,8.68.43a5.29,5.29,0,0,0,3.09-1,32,32,0,0,0,3.8-5,34.32,34.32,0,0,0,3.63-8.65,38.15,38.15,0,0,0,.89-4h-3.37A15.21,15.21,0,0,1,123.58,722.56Z"/><path class="cls-1" d="M164.5,695.4h7.06c-.21-1.08-.41-2.27-.6-3.6l-1.51-10.91c-.38-2.92-.76-4.39-1.15-4.39s-1.28,1-2.83,3.13-2.34,3.41-2.34,4a36.43,36.43,0,0,0,.36,4l-2.9,1.78v4.32c1.07-.66,2.22-1.33,3.48-2A28.58,28.58,0,0,0,164.5,695.4Z"/><path class="cls-1" d="M173.19,701.06A16,16,0,0,1,172,697.4h-7.12c.17.92.36,2,.59,3.08q-7-1.22-10-3.08a35.13,35.13,0,0,1,3.14-2.38v-4.36a33,33,0,0,0-5.44,3.9,12.24,12.24,0,0,0-1.86,3.59,12,12,0,0,0-.79,3.84,3.81,3.81,0,0,0,.68,1.86c.36.49,2.19,1.25,5.5,2.31a33.42,33.42,0,0,0,5.59,1.51c.43,0,1.13-.77,2.09-2.31l1.51-2.44c.66,3.79,1.74,6.61,3.22,8.47,1.29,1.64,3.64,2.44,7,2.44h2.15V703h-1.36A3.9,3.9,0,0,1,173.19,701.06Z"/><path class="cls-1" d="M193,694.67c-.24-1.48-.57-2.23-1-2.23s-.77.75-1,2.23q-1.65,8.33-8.4,8.32h-1.43v10.84q4.67,0,7.14-2.08a12.68,12.68,0,0,0,3.7-6.53,14,14,0,0,0,2.73,5.92c1.39,1.8,4.08,2.69,8.11,2.69V703H201Q194.48,703,193,694.67Z"/><polygon class="cls-1" points="192.25 722.74 187.86 718 183.41 723.17 187.93 728.05 192.25 723.38 196.84 728.05 201.15 723.17 196.84 718.22 192.25 722.74"/><path class="cls-1" d="M213.37,671.27a79.19,79.19,0,0,1,.43,9.69c0,4,0,7,0,8.94h6.38q.19-3.82.34-6.72.58-13.14.58-14.64c0-2-.36-2.95-1.08-2.95Q219.41,665.67,213.37,671.27Z"/><path class="cls-1" d="M220.63,699.55a21.9,21.9,0,0,1-.58-6.32c0-.45,0-.9.07-1.33h-6.18c-.16,5.64-.85,8.94-2.07,9.88-.76.81-2.25,1.21-4.45,1.21h-1.65v10.84h2a10.11,10.11,0,0,0,9-5q3.17,5,7.61,5h3.09V703h-2.3A4.45,4.45,0,0,1,220.63,699.55Z"/><path class="cls-1" d="M254.53,684a8.8,8.8,0,0,0-5.16-1.5,11.4,11.4,0,0,0-6.68,2.15,18.23,18.23,0,0,0-5.64,6.9H242a21.56,21.56,0,0,1,5.9-.65,55.35,55.35,0,0,1,9.91,1.43c1.19.24,1.93.4,2.22.5a.65.65,0,0,0,.65-.72,13.94,13.94,0,0,0-1.87-3.66A11.62,11.62,0,0,0,254.53,684Z"/><path class="cls-1" d="M262.07,702.13a4,4,0,0,0-.54.08,5.44,5.44,0,0,1-.82.07q-3,.29-6.18.28-8.61,0-12.31-2.18c-2.46-1.46-3.69-3.18-3.69-5.14a4.45,4.45,0,0,1,.53-1.72h-3a14.26,14.26,0,0,0-1.58,5,5.51,5.51,0,0,0,2.37,4.44h-5.31v10.84c6.18,0,10.65-1,13.42-3.15a28.73,28.73,0,0,0,10.77,1.72,6.06,6.06,0,0,0,2.38-.36,12.55,12.55,0,0,0,1.72-2.73l1.43-2.65a11.16,11.16,0,0,0,1.51-3.95C262.79,702.33,262.55,702.13,262.07,702.13Z"/><polygon class="cls-1" points="305.11 676.65 309.84 681.25 314.94 676.15 309.84 671.2 305.18 675.79 300.51 671.2 295.56 676.15 300.44 681.25 305.11 676.65"/><path class="cls-1" d="M319,706.59a58.36,58.36,0,0,1-18.67,2.87c-1.71,0-3.29-.08-4.77-.22V720c1.2.07,2.44.12,3.77.11a53.38,53.38,0,0,0,20.21-4,35.47,35.47,0,0,0,6.82-3.67l-6.26-6.24Z"/><path class="cls-1" d="M281.34,698.91c.1-1.06.17-1.92.22-2.59v-.94c0-1-.26-1.57-.79-1.57-.72.05-1.42,1.29-2.08,3.73a26.88,26.88,0,0,0-1.15,7.18c0,5.46,1.79,9.35,5.24,11.7,2.56,1.8,6.17,2.92,10.81,3.4V709Q281.35,707.3,281.34,698.91Z"/><path class="cls-1" d="M338.63,702.13c-1.39-.67-2.08-1.41-2.08-2.22.14-.48.31-1,.5-1.5a6.75,6.75,0,0,0,.71-2.09,1,1,0,0,0-1-.94c-.38,0-1.41.87-3.08,2.59a33.15,33.15,0,0,1-11.51,7.43l5.84,5.82a24,24,0,0,0,5.45-6.07q1.94,8.69,9.84,8.68h1.43V703h-2.37A8.15,8.15,0,0,1,338.63,702.13Z"/><polygon class="cls-1" points="364.57 672.99 359.54 668.03 354.73 672.92 359.68 678.01 364.57 672.99"/><path class="cls-1" d="M360.11,684a1.09,1.09,0,0,0-.79.36c-.57.82-1.1,1.54-1.58,2.15L355,690.94a4.51,4.51,0,0,0-.5,1.07c0,.25.21.58.64,1a33.34,33.34,0,0,1,5.26,6.25H365c0-.4,0-.8,0-1.22a32.88,32.88,0,0,0-1.51-7.76Q361.77,684,360.11,684Z"/><path class="cls-1" d="M350.64,703h-1.8v10.84h1.8q12.8,0,14.18-12.56h-4.44C359.32,702.42,356.08,703,350.64,703Z"/><path class="cls-1" d="M395.92,698.27c-1.87-7.46-5.14-11.21-9.84-11.21a5.68,5.68,0,0,0-1.24.15v9.49a6.9,6.9,0,0,1,3.33,1.57Z"/><path class="cls-1" d="M396.37,700.27h-6.32a20.6,20.6,0,0,1,1.71,2.72H388q-8.4,0-8.4-2.58a3.42,3.42,0,0,1,1.37-2.36,3.17,3.17,0,0,1,1.92-1.32v-8.62q-2.55,1.75-4.55,6.45-3.18,7.5-3.19,12.39a5.29,5.29,0,0,0,3.51,5.27c2.35,1,7.26,1.47,14.72,1.47a9.37,9.37,0,0,1-1.11,4h3.6a35.66,35.66,0,0,0,.6-3.82h8.76V703h-8.33C396.71,702,396.55,701.14,396.37,700.27Z"/><path class="cls-1" d="M386.3,724.32a51,51,0,0,1-11.63,6.81q-5.82,2.46-5.82,3.31.15,1.08,7.11,1.72c3.3.33,6.13.51,8.47.51q2.37,0,5.6-4.74a36.12,36.12,0,0,0,4-7.9,38.82,38.82,0,0,0,1.38-4.38h-4.42A26.07,26.07,0,0,1,386.3,724.32Z"/><polygon class="cls-1" points="432.27 673.13 427.53 668.11 422.65 673.28 427.46 678.16 432.27 673.13"/><polygon class="cls-1" points="422.8 688.07 427.53 683.33 432.13 688.07 437 683.11 432.13 678.09 427.6 682.75 423.01 678.16 417.98 683.18 422.8 688.07"/><path class="cls-1" d="M439.45,697.54q-.43-1.8-1.08-1.8a.71.71,0,0,0-.51.47,13.7,13.7,0,0,0-.35,1.4c-.52,2.69-1.54,4.32-3.05,4.91v11.23h.18c2.2,0,3.9-1.38,5.09-4.16,1.59,2.83,3.67,4.23,6.25,4.23h1.15V703h-1.58C442.34,703,440.31,701.18,439.45,697.54Z"/><path class="cls-1" d="M428.53,697.54c-.23-1.2-.59-1.8-1.07-1.8s-.89.58-1.08,1.73q-.86,5.31-4.52,5.31c-2.35,0-3.81-1.68-4.38-5-.24-1.3-.62-1.94-1.15-1.94s-1,.74-1.15,1.94a8.12,8.12,0,0,1-1.65,4.3,3.87,3.87,0,0,1-2.87.93h-1.44v10.84h2.37c2.45,0,4.28-1.58,5.53-4.73q1.65,4.67,5.68,4.59c2.58,0,4.44-1.51,5.59-4.38a8.66,8.66,0,0,0,4.07,4V702.72C430.42,702.43,429.11,700.72,428.53,697.54Z"/><path class="cls-1" d="M456.11,695.1c0,.57.24.86.72.86s.86-.43,1.57-1.29c1.49-2,3-2.94,4.67-2.94l.52,0v-7.6a10.74,10.74,0,0,0-4.43,4.34C457.12,691.8,456.11,694,456.11,695.1Z"/><path class="cls-1" d="M497.67,692.08a91.16,91.16,0,0,1-23.83-6.39q-5.52-2.15-7.47-2.15a6.83,6.83,0,0,0-.78.06v8.6c1,.3,2.3.74,3.8,1.32q5.17,2.09,11.49,4c-1.93.88-3.85,1.63-5.76,2.29l5.74,5.71q5.77-3.56,8-4.2a18.12,18.12,0,0,1,4.81-.86,5.15,5.15,0,0,0,1.08.07,5.87,5.87,0,0,0,1,.08q.72-.15,1.44-1.44L499.9,694a2.83,2.83,0,0,0,.5-.86C500.4,692.66,499.49,692.33,497.67,692.08Z"/><polygon class="cls-1" points="475.42 680.53 480.44 675.43 475.35 670.55 470.46 675.43 475.42 680.53"/><path class="cls-1" d="M473,700.44c-1.65.49-3.29.93-4.92,1.26A80,80,0,0,1,452.44,703v10.84h2.74a40.86,40.86,0,0,0,13.42-2.08,55.68,55.68,0,0,0,10.51-5.2l-6.1-6.07Z"/><path class="cls-1" d="M518.12,697.4a33.66,33.66,0,0,1,3-2.3l-2.63-2.63a15.53,15.53,0,0,0-2.68,2.09,12,12,0,0,0-1.87,3.59,12.24,12.24,0,0,0-.79,3.84,3.81,3.81,0,0,0,.69,1.86,4.17,4.17,0,0,0,1.49.88l5.91-5.91A15.45,15.45,0,0,1,518.12,697.4Z"/><path class="cls-1" d="M535.85,701.06q-1.23-2.29-2.22-9.26l-1.51-10.91c-.38-2.92-.77-4.39-1.16-4.39s-1.27,1-2.83,3.13-2.33,3.41-2.33,4a34.08,34.08,0,0,0,.36,4c-2.4,1.46-4.39,2.69-6,3.71l2.64,2.64q1.77-1.11,3.89-2.25a65.18,65.18,0,0,0,1.37,8.75c-1.75-.3-3.31-.63-4.68-1l-6,6,2,.65a33.4,33.4,0,0,0,5.6,1.51c.43,0,1.12-.77,2.08-2.31l1.51-2.44c.67,3.79,1.74,6.61,3.23,8.47,1.29,1.64,3.63,2.44,7,2.44H541V703h-1.37A3.9,3.9,0,0,1,535.85,701.06Z"/><path class="cls-1" d="M556.33,684a1.09,1.09,0,0,0-.79.36c-.57.82-1.1,1.54-1.58,2.15l-2.73,4.39a5,5,0,0,0-.5,1.07c0,.25.21.58.64,1,2.91,2.94,4.67,5.06,5.31,6.38h4.49c0-.45,0-.89,0-1.35a32.88,32.88,0,0,0-1.51-7.76Q558,684,556.33,684Z"/><path class="cls-1" d="M546.86,703h-1.8v10.84h1.8q12.74,0,14.16-12.43h-4.56Q554.7,703,546.86,703Z"/><polygon class="cls-1" points="549.37 725.11 554.18 730.2 559.2 725.11 554.18 720.08 549.37 725.11"/></svg>