<svg id="Layer_1" data-name="Layer 1" xmlns="http://www.w3.org/2000/svg" viewBox="0 0 595.28 841.89"><defs><style>.cls-1{fill:#231f20;}</style></defs><polygon class="cls-1" points="43.9 783.71 189.1 783.71 189.1 678.42 147.12 678.42 147.12 575.88 189.1 575.88 189.1 470.58 43.9 470.58 43.9 783.71"/><polygon class="cls-1" points="252.7 430.8 355.93 430.8 355.93 295.21 30.54 295.21 30.54 400.5 252.7 400.5 252.7 430.8"/><polygon class="cls-1" points="355.93 438.8 252.7 438.8 252.7 470.58 197.1 470.58 197.1 575.88 252.7 575.88 252.7 678.42 197.1 678.42 197.1 783.71 405.09 783.71 405.09 678.42 355.93 678.42 355.93 438.8"/><polygon class="cls-1" points="461.51 678.42 413.09 678.42 413.09 783.71 564.74 783.71 564.74 389.08 461.51 389.08 461.51 678.42"/><rect class="cls-1" x="461.51" y="210.58" width="103.23" height="103.23"/><rect class="cls-1" x="34.24" y="58.18" width="96.38" height="11.55"/><path class="cls-1" d="M83.62,245.85a54.37,54.37,0,0,0-8.68-1.3c-4-.43-6.63-1-8-1.66-1-.26-1.53-.61-1.64-1.06H62a22.74,22.74,0,0,0-.82,6c0,2.79,1.85,4.7,5.57,5.71a59.42,59.42,0,0,0,8.9,1.08,52.73,52.73,0,0,1,8.53,1.31c1,.43,1.44,1,1.44,1.66a3.29,3.29,0,0,1,0,.44h2.65a28.58,28.58,0,0,0,.37-4.71,8.62,8.62,0,0,0-1.19-5A7,7,0,0,0,83.62,245.85Z"/><path class="cls-1" d="M62.79,264.08q-10.49,0-15.84-1.95-8.67-3.12-8.68-11.58a28.14,28.14,0,0,1,1.16-7.08,10.3,10.3,0,0,0,.51-2.61c0-.72-.32-1.08-.94-1.08-1,0-2.17,2.13-3.47,6.25a38.8,38.8,0,0,0-2,11.61q0,8.39,5.58,12.44t17.71,4.05q11.36,0,18.3-2.6,7.23-2.61,10.34-6.66a14,14,0,0,0,2.37-5.09h-3Q81.36,264.07,62.79,264.08Z"/><path class="cls-1" d="M90.2,234.5a9.45,9.45,0,0,0-3.26-7.16,10.46,10.46,0,0,0-7.3-3q-7.45,0-13.23,8.32a31.83,31.83,0,0,0-3.85,7.44h3.06a16.55,16.55,0,0,1,2.66-4q3.19-3.26,9.26-3.18,7.3.06,11.65,1.88a7.25,7.25,0,0,0,.87.36A1.41,1.41,0,0,0,90.2,234.5Z"/><path class="cls-1" d="M112.77,245.28q-2.33-3.92-3.33-3.91-.51,0-2.89,4a28.89,28.89,0,0,0-2.46,4.7,2.26,2.26,0,0,0,.72.58q7.64,6.17,8.49,9.81h3.37c0-.73.07-1.47.07-2.22a23.06,23.06,0,0,0-1.44-8.17A33.24,33.24,0,0,0,112.77,245.28Z"/><path class="cls-1" d="M109.3,267.73q-4.12,4.23-15,9.36-4.69,2.25-4.7,2.83,0,1.15,5.72,1.66c4,.38,7.16.58,9.47.58a4.53,4.53,0,0,0,3.11-1.08,23.6,23.6,0,0,0,3.83-5,33.34,33.34,0,0,0,4.75-13.81h-3.25C112.83,263.63,111.52,265.44,109.3,267.73Z"/><path class="cls-1" d="M132.29,239.49q0-3,.15-6.22l.58-11.42.21-6.95a24,24,0,0,0-.07-3.47q-.21-.87-.87-.87-1.23,0-6.79,5.86c.23,4,.36,8,.36,12.15,0,.53,0,1.66-.07,3.4-.06,2-.08,3.69-.08,5.14,0,3.41-.06,5.23-.07,5.46a34.86,34.86,0,0,0,.73,7.31l6.3-6.3A19.56,19.56,0,0,1,132.29,239.49Z"/><path class="cls-1" d="M133.25,245.48l-6.34,6.35c1.66,5,4.94,7.55,9.87,7.55h2.45V248.6l-2-.15A4.48,4.48,0,0,1,133.25,245.48Z"/><path class="cls-1" d="M153.16,240.07c-.24-1.49-.58-2.25-1-2.25s-.77.76-1,2.25c-1.12,5.59-3.93,8.38-8.46,8.38h-1.45v10.93q4.7,0,7.19-2.1a12.76,12.76,0,0,0,3.73-6.58,14.06,14.06,0,0,0,2.75,6c1.4,1.82,4.12,2.72,8.17,2.72V248.45h-1.89Q154.61,248.45,153.16,240.07Z"/><polygon class="cls-1" points="147.23 275.5 152.22 280.49 157.14 275.36 152.29 270.37 147.23 275.5"/><path class="cls-1" d="M168.75,240.5c0,.58.24.87.73.87.33,0,.86-.43,1.58-1.3,1.5-2,3.06-3,4.71-3a4.68,4.68,0,0,1,.78.07v-7.8a10.43,10.43,0,0,0-4.72,4.47C169.77,237.18,168.75,239.39,168.75,240.5Z"/><path class="cls-1" d="M185.6,246q-2.41.72-4.81,1.2a80.29,80.29,0,0,1-15.73,1.3v10.93h2.75a41.26,41.26,0,0,0,13.53-2.1,56.3,56.3,0,0,0,10.44-5.15Z"/><path class="cls-1" d="M193.33,251.17l.3-.18q5.85-3.62,8.1-4.27a18,18,0,0,1,4.84-.87,5.33,5.33,0,0,0,1.09.07,6,6,0,0,0,1,.08c.48-.1,1-.58,1.45-1.45l2.74-5.2a2.84,2.84,0,0,0,.51-.87c0-.44-.91-.77-2.75-1a91.91,91.91,0,0,1-24-6.43c-3.71-1.45-6.21-2.17-7.52-2.17a6.48,6.48,0,0,0-.77.06v8.67q1.56.45,3.81,1.32,5.2,2.1,11.57,4a62.41,62.41,0,0,1-6.21,2.45Z"/><polygon class="cls-1" points="185.75 275.58 190.74 280.56 195.73 275.58 190.66 270.52 185.75 275.58"/><path class="cls-1" d="M219.26,217.43l2.89,26.11q1.53,13.38,2,14.32c.19.58.53.87,1,.87a.76.76,0,0,0,.72-.36,51.36,51.36,0,0,0,1.16-7.24l2.17-29.43.87-11c0-.47-.1-.71-.44-.71Q228.59,210,219.26,217.43Z"/><path class="cls-1" d="M92,164.48q0-6.07-2.85-9.84c-1.91-2.51-3.05-3.76-3.44-3.76s-.77.72-1.44,2.17c-.3.72-.49,1.18-.59,1.37l-2,4.13c-.09.19-.17.33-.22.43l-.5,1.45a6.49,6.49,0,0,0,1.66,1.66A20.21,20.21,0,0,1,87,167.37h4.77A21,21,0,0,0,92,164.48Z"/><polygon class="cls-1" points="64.63 203.24 69.69 198.1 64.63 193.18 59.72 198.1 64.63 203.24"/><path class="cls-1" d="M91.45,169.13h-4.2c-.45,1.21-2.67,2.28-6.67,3.23Q73.82,174,61.45,174a73.13,73.13,0,0,1-13.24-1v11.16a70.62,70.62,0,0,0,11.58.8q20.68,0,26.43-6.11A20.3,20.3,0,0,0,91.45,169.13Z"/><path class="cls-1" d="M38.31,161.15a11,11,0,0,0,.15-1.73c0-.83-.27-1.23-.8-1.23-.72,0-1.44,1.15-2.13,3.47a26.91,26.91,0,0,0-1.05,7.8c0,6.52,2.79,10.92,8.39,13.24a21.66,21.66,0,0,0,3.57,1.09V172.58a16.34,16.34,0,0,1-3.36-1.23,8.53,8.53,0,0,1-4.91-8c0-.15,0-.47.07-1S38.31,161.44,38.31,161.15Z"/><path class="cls-1" d="M99.63,159.85c0,3.41-.06,5.24-.07,5.46a31,31,0,0,0,1.23,9.13l6.33-6.34a15.63,15.63,0,0,1-.91-5.87q0-3,.15-6.21l.58-11.43.21-7a24.13,24.13,0,0,0-.07-3.47c-.14-.57-.43-.86-.87-.86q-1.23,0-6.79,5.86c.24,3.94.36,8,.36,12.14,0,.53,0,1.66-.07,3.4C99.66,156.69,99.63,158.4,99.63,159.85Z"/><path class="cls-1" d="M110.7,182.12h2.45V171.35l-2-.15a4.24,4.24,0,0,1-3.07-1.53l-6.57,6.56A9.4,9.4,0,0,0,110.7,182.12Z"/><path class="cls-1" d="M115.15,171.2v10.92a61.07,61.07,0,0,0,9.55-.72q7.3-1.16,14.83-7l2.42-1.86q-2.69-2.76-5.45-5.46a50.16,50.16,0,0,1-6.95,2.77,44.49,44.49,0,0,1-11.36,1.3Z"/><path class="cls-1" d="M150.81,167c0-1.35.75-2,2.24-2l.65.07a8.61,8.61,0,0,0,1.09.08,24.29,24.29,0,0,0,3.18.29,5.91,5.91,0,0,0,1.37-.26c.15-.07.29-.3.44-.68l.28-.36,2.61-5.36a2.66,2.66,0,0,0,.36-1.3c0-.29-.07-.43-.22-.43l-1.52-.15A97.81,97.81,0,0,1,136.63,152a29.32,29.32,0,0,0-6.78-1.57v9l.85.22L144,163.32c-2.13,1.14-4.06,2.13-5.82,3q2.63,2.58,5.17,5.2l4.84-3.71a21.46,21.46,0,0,0-.21,2.75c0,.55,0,1.07.07,1.58a29.91,29.91,0,0,1,3.16-3.77A2.39,2.39,0,0,1,150.81,167Z"/><path class="cls-1" d="M120.87,161.66q2.31-2.9,5-2.9a12.38,12.38,0,0,1,2.22.31v-8.54q-5.18.71-8.37,7.73a12.72,12.72,0,0,0-1.37,3.9c0,.63.28.94.87.94C119.59,163.1,120.15,162.62,120.87,161.66Z"/><polygon class="cls-1" points="136.2 198.32 141.04 203.31 146.03 198.25 141.04 193.26 136.2 198.32"/><path class="cls-1" d="M152.57,169.52a30.34,30.34,0,0,0-4.1,5.14,11.64,11.64,0,0,0,.75,2.18q1.67,3.61,7.44,4.7a57.86,57.86,0,0,0,9.26.58V171.2c-4.38,0-7.26-.17-8.6-.36A13.86,13.86,0,0,1,152.57,169.52Z"/><path class="cls-1" d="M183.65,169.9a81.18,81.18,0,0,1-15.74,1.3v10.92h2.76a41.2,41.2,0,0,0,13.52-2.1,60.47,60.47,0,0,0,11.75-6l-5.9-5.88A55,55,0,0,1,183.65,169.9Z"/><path class="cls-1" d="M174.68,156.59c-2.05,3.33-3.08,5.54-3.08,6.66,0,.57.24.87.73.87.34,0,.87-.44,1.59-1.31,1.49-2,3.06-3,4.7-3a20.89,20.89,0,0,1,6,1.66l6.93-6.93-2.08-.81c-3.71-1.44-6.22-2.17-7.53-2.17Q177.76,151.6,174.68,156.59Z"/><path class="cls-1" d="M213.48,160.21a88.35,88.35,0,0,1-20.11-5l-7,7c3.09,1.19,6.46,2.34,10.14,3.42q-2.34,1.06-4.67,1.92l5.6,5.57a37.2,37.2,0,0,1,7.09-3.66,18.44,18.44,0,0,1,4.85-.86,5.15,5.15,0,0,0,1.08.07,6.08,6.08,0,0,0,1,.07c.49-.09,1-.58,1.45-1.45l2.75-5.2a2.65,2.65,0,0,0,.5-.87C216.22,160.79,215.31,160.45,213.48,160.21Z"/><path class="cls-1" d="M42.66,102.64a36.87,36.87,0,0,1,3.67-2.74c-.88-.89-1.75-1.78-2.64-2.66a19,19,0,0,0-3.35,2.55,14.67,14.67,0,0,0-2.67,7.48,3.83,3.83,0,0,0,.69,1.88,7,7,0,0,0,2.5,1.27q3-3,6-6A17.34,17.34,0,0,1,42.66,102.64Z"/><path class="cls-1" d="M60.52,106.33c-.82-1.54-1.56-4.65-2.24-9.33L56.76,86c-.38-2.94-.77-4.41-1.16-4.41s-1.29,1-2.85,3.14-2.35,3.44-2.35,4a34.81,34.81,0,0,0,.36,4c-2.2,1.33-4,2.47-5.56,3.44.89.89,1.77,1.79,2.65,2.68,1.08-.66,2.23-1.32,3.49-2a64.74,64.74,0,0,0,1.38,8.82c-1.42-.24-2.69-.51-3.85-.79-2.07,2-4.12,4.07-6.17,6.12l1.19.39A33.33,33.33,0,0,0,49.53,113c.43,0,1.13-.77,2.1-2.32l1.52-2.46q1,5.72,3.25,8.53c1.3,1.65,3.66,2.46,7.09,2.46h2.17V108.28H64.28A4,4,0,0,1,60.52,106.33Z"/><path class="cls-1" d="M69.46,108.28H67.65V119.2h1.81q12.84,0,14.27-12.54H79.15C78,107.74,74.76,108.28,69.46,108.28Z"/><path class="cls-1" d="M79,89.19a1.09,1.09,0,0,0-.79.36c-.58.82-1.11,1.55-1.59,2.17l-2.75,4.42a4.48,4.48,0,0,0-.5,1.08c0,.24.21.58.64,1,3.11,3.15,4.92,5.36,5.46,6.66h4.41c0-.52,0-1,0-1.59a33,33,0,0,0-1.52-7.82Q80.66,89.2,79,89.19Z"/><polygon class="cls-1" points="71.99 130.56 76.84 135.69 81.9 130.56 76.84 125.5 71.99 130.56"/></svg>