<svg id="Layer_1" data-name="Layer 1" xmlns="http://www.w3.org/2000/svg" viewBox="0 0 595.28 841.89"><defs><style>.cls-1{fill:#231f20;}</style></defs><path class="cls-1" d="M392.44,501.49s63.18,28.63,85.21,46.36L533.48,492c-14-48.88-34.26-101.18-63.54-144.51C469.94,347.51,446.51,456.76,392.44,501.49Z"/><path class="cls-1" d="M484.42,554.93s8.22,11.59,12.7,23.57l-90.5-.46V650.8H562.86S558,581.63,536,500.86l-52.54,52.55A12.11,12.11,0,0,1,484.42,554.93Z"/><path class="cls-1" d="M301.79,387c-.94-.77-1.85-1.5-2.66-2.2-3.92-3.37-7.54-6.95-11.21-10.59-8.75-8.63-18.23-16-27.7-23.74-22.78,18.24-22.48,49.92-22.48,49.92s.68,32.44,40.44,50c24.14,6.15,35.82-18.46,35.82-18.46,4.58-21.31-8.84-28.41-8.84-28.41l-17,8.05C287.49,400,293.73,391.74,301.79,387Z"/><path class="cls-1" d="M280.37,327.89c1.2,0,2.38,0,3.55.05V266.47c-11.32-3.22-21.81-4.23-29.88-2.13-10.61,2.77-40.77,40.12-40.77,40.12l33.67,35.34S272,331.12,280.37,327.89Z"/><path class="cls-1" d="M362,323.15c-10.4-21.35-41.59-43.76-70.05-54.08v59.3c55.25,4.69,65.79,42.48,65.79,42.48L320.78,339.8c-24.32-4.18-41.51-.82-53.68,6.06,10,8.15,19.8,16.07,29,25.23,4,4,9.67,7.9,14,12.46,8.05-2.18,16.24-1.27,20.6,2.92,19.13,21.81,7.73,53.82-12.66,84.22,6.24,6.21,12.21,12.69,18.72,18.62,7.41,6.73,15.31,12.82,22.59,19.65,20-26.8,35.45-48.64,35.45-48.64,92.51-130.65,75.07-416.09,75.07-416.09-26.29,70.62-89.27,109.35-89.27,109.35-22.52,36.92-105.28,90.88-105.28,90.88C336.4,255.82,362,323.15,362,323.15Z"/><path class="cls-1" d="M39,650.8H213.75V546.59a18.59,18.59,0,0,1,6.49-36c.36,0,.73,0,1.09.06V453.27c-41.29,1.22-75.05,34.81-76.19,76.28a78.15,78.15,0,0,0,7.93,36.65,4.66,4.66,0,0,1-6.56,6c-10.17-5.78-24.86-8.14-31.69-24.44,0,0-43.37,63.43-79.13,94.05A5.1,5.1,0,0,0,39,650.8Z"/><path class="cls-1" d="M397.87,578l-62-.31c-13.46.36-22.12-10.05-13.67-20.54,10.65-13.22,21.72-27.6,31.9-41.13-7.53-7.19-15.78-13.51-23.5-20.52-6.12-5.58-11.76-11.65-17.6-17.51-3.08,4.26-6.3,8.47-9.6,12.6a8.22,8.22,0,0,1-13.34-.75,78.45,78.45,0,0,0-60-36.35v59.92a18.58,18.58,0,0,1-8.33,34.29V650.8H397.87Z"/><circle class="cls-1" cx="389.02" cy="547.28" r="19.16"/><path class="cls-1" d="M89.12,718a61.58,61.58,0,0,0-9.83-1.47c-4.48-.5-7.51-1.12-9.1-1.89q-1.66-.44-1.86-1.2H64.65a25.94,25.94,0,0,0-.93,6.78q0,4.74,6.31,6.46,1.89.58,10.08,1.24a59.82,59.82,0,0,1,9.67,1.47c1.09.49,1.63,1.12,1.63,1.89a4.23,4.23,0,0,1,0,.5h3a31.52,31.52,0,0,0,.42-5.34,9.64,9.64,0,0,0-1.35-5.65A7.88,7.88,0,0,0,89.12,718Z"/><path class="cls-1" d="M65.52,738.61q-11.88,0-17.94-2.21-9.84-3.52-9.84-13.11a31.65,31.65,0,0,1,1.32-8,11.7,11.7,0,0,0,.57-3c0-.81-.35-1.22-1.07-1.22q-1.71.07-3.93,7.09a43.9,43.9,0,0,0-2.21,13.15q0,9.49,6.31,14.09T58.8,750q12.87,0,20.74-3,8.19-3,11.71-7.54a16,16,0,0,0,2.69-5.77H90.51Q86.57,738.6,65.52,738.61Z"/><path class="cls-1" d="M96.58,705.09a10.72,10.72,0,0,0-3.69-8.1,11.83,11.83,0,0,0-8.28-3.45q-8.43,0-15,9.43a36.08,36.08,0,0,0-4.36,8.43h3.47a18.63,18.63,0,0,1,3-4.58q3.6-3.69,10.49-3.6,8.27.07,13.19,2.12a6.91,6.91,0,0,0,1,.41A1.46,1.46,0,0,0,96.58,705.09Z"/><path class="cls-1" d="M122.15,717.31c-1.76-2.95-3-4.43-3.77-4.43-.38,0-1.48,1.53-3.28,4.59q-2.79,4.85-2.79,5.32a2.79,2.79,0,0,0,.82.66q8.66,7,9.62,11.12h3.82c.05-.83.08-1.67.08-2.51a26.13,26.13,0,0,0-1.63-9.27A38.43,38.43,0,0,0,122.15,717.31Z"/><path class="cls-1" d="M118.22,742.75q-4.68,4.79-17,10.61-5.32,2.53-5.33,3.2,0,1.31,6.48,1.88,6.8.64,10.73.65a5.13,5.13,0,0,0,3.52-1.22,26.5,26.5,0,0,0,4.35-5.66,37.92,37.92,0,0,0,5.38-15.64H122.7C122.22,738.1,120.74,740.16,118.22,742.75Z"/><path class="cls-1" d="M144.27,710.75c0-2.24,0-4.58.16-7l.66-13,.24-7.87a27.23,27.23,0,0,0-.08-3.93c-.16-.65-.49-1-1-1q-1.4,0-7.7,6.64.41,6.71.41,13.76c0,.6,0,1.88-.08,3.85q-.09,3.36-.09,5.82-.06,5.81-.08,6.19a39.38,39.38,0,0,0,.83,8.28l7.13-7.14A22.37,22.37,0,0,1,144.27,710.75Z"/><path class="cls-1" d="M145.36,717.54l-7.19,7.19q2.82,8.53,11.18,8.55h2.78v-12.2l-2.29-.17A5.09,5.09,0,0,1,145.36,717.54Z"/><path class="cls-1" d="M167.91,711.41c-.27-1.69-.65-2.55-1.15-2.55s-.87.86-1.14,2.55q-1.89,9.51-9.59,9.5h-1.64v12.37q5.33,0,8.16-2.37c1.88-1.59,3.28-4.07,4.21-7.46a16.25,16.25,0,0,0,3.12,6.76q2.38,3.07,9.26,3.07V720.91H177Q169.56,720.91,167.91,711.41Z"/><polygon class="cls-1" points="161.19 751.55 166.84 757.21 172.42 751.39 166.93 745.74 161.19 751.55"/><path class="cls-1" d="M185.58,711.9c0,.65.27,1,.82,1q.57,0,1.8-1.47c1.69-2.24,3.46-3.36,5.33-3.36a6.34,6.34,0,0,1,.89.08v-8.84a11.92,11.92,0,0,0-5.36,5.07Q185.58,710,185.58,711.9Z"/><path class="cls-1" d="M204.67,718.07c-1.82.54-3.64,1-5.45,1.36a90.63,90.63,0,0,1-17.82,1.48v12.37h3.11a46.92,46.92,0,0,0,15.33-2.37,64.63,64.63,0,0,0,11.83-5.84Z"/><path class="cls-1" d="M213.42,724l.34-.21q6.65-4.1,9.18-4.84a20.68,20.68,0,0,1,5.49-1,5.7,5.7,0,0,0,1.23.08,6.43,6.43,0,0,0,1.14.09c.55-.11,1.1-.66,1.65-1.64l3.11-5.9a3.13,3.13,0,0,0,.57-1c0-.5-1-.88-3.11-1.16a104.28,104.28,0,0,1-27.21-7.29q-6.3-2.45-8.52-2.45a8.29,8.29,0,0,0-.87.06v9.82c1.18.35,2.62.84,4.32,1.51q5.89,2.37,13.11,4.5a70.33,70.33,0,0,1-7,2.78Z"/><polygon class="cls-1" points="204.83 751.64 210.49 757.29 216.14 751.64 210.41 745.91 204.83 751.64"/><path class="cls-1" d="M242.81,685.76l3.27,29.58q1.72,15.17,2.29,16.23c.22.65.6,1,1.15,1a.87.87,0,0,0,.82-.41,58.82,58.82,0,0,0,1.31-8.19l2.46-33.36,1-12.45c0-.54-.11-.82-.49-.82Q253.37,677.32,242.81,685.76Z"/><path class="cls-1" d="M345.5,713.3q0-6.9-3.23-11.15c-2.16-2.84-3.45-4.27-3.89-4.27s-.88.83-1.64,2.47c-.33.81-.55,1.33-.66,1.55l-2.29,4.68c-.11.21-.2.38-.25.49L333,708.7a7.19,7.19,0,0,0,1.88,1.89c2.64,2.48,4.3,4.47,5,6h5.41A25,25,0,0,0,345.5,713.3Z"/><polygon class="cls-1" points="314.53 757.21 320.26 751.39 314.53 745.82 308.96 751.39 314.53 757.21"/><path class="cls-1" d="M344.92,718.57h-4.76c-.51,1.37-3,2.58-7.56,3.65q-7.67,1.8-21.67,1.81a81.51,81.51,0,0,1-15-1.11v12.65a80.09,80.09,0,0,0,13.12.91q23.44,0,29.95-6.92A23.12,23.12,0,0,0,344.92,718.57Z"/><path class="cls-1" d="M284.71,709.52a12.8,12.8,0,0,0,.16-2c0-.93-.3-1.39-.9-1.39-.82,0-1.63,1.3-2.42,3.93a30.6,30.6,0,0,0-1.19,8.84q0,11.07,9.51,15a24.11,24.11,0,0,0,4.05,1.23v-12.7a17.71,17.71,0,0,1-3.81-1.39,9.68,9.68,0,0,1-5.57-9.1c0-.17,0-.53.08-1.11S284.71,709.85,284.71,709.52Z"/><path class="cls-1" d="M354.18,708.05q-.06,5.81-.08,6.19a34.77,34.77,0,0,0,1.4,10.34l7.17-7.18a17.73,17.73,0,0,1-1-6.65c0-2.24.05-4.58.16-7l.66-13,.25-7.87a28.47,28.47,0,0,0-.09-3.93c-.16-.65-.49-1-1-1q-1.39,0-7.7,6.64.4,6.71.41,13.76c0,.6,0,1.88-.08,3.85Q354.18,705.59,354.18,708.05Z"/><path class="cls-1" d="M366.72,733.28h2.78v-12.2l-2.28-.17a4.83,4.83,0,0,1-3.49-1.74l-7.44,7.45A10.65,10.65,0,0,0,366.72,733.28Z"/><path class="cls-1" d="M371.77,720.91v12.37a69.77,69.77,0,0,0,10.82-.81q8.27-1.31,16.8-7.87l2.74-2.11q-3-3.13-6.18-6.19a54.41,54.41,0,0,1-7.87,3.13,49.62,49.62,0,0,1-12.87,1.48Z"/><path class="cls-1" d="M412.17,716.16c0-1.53.84-2.29,2.54-2.29l.73.08a11,11,0,0,0,1.23.08,26.9,26.9,0,0,0,3.61.33,7.47,7.47,0,0,0,1.56-.29,1.49,1.49,0,0,0,.49-.77l.32-.42,3-6.06a3,3,0,0,0,.4-1.48c0-.33-.08-.49-.24-.49-.65-.05-1.23-.11-1.72-.16a111.22,111.22,0,0,1-27.94-5.49,34.22,34.22,0,0,0-7.69-1.78v10.21l1,.25,15.07,4.1c-2.41,1.3-4.59,2.42-6.59,3.4,2,1.93,3.93,3.9,5.86,5.88l5.48-4.2a24.05,24.05,0,0,0-.24,3.12c0,.61,0,1.2.08,1.78a33.1,33.1,0,0,1,3.58-4.26A2.81,2.81,0,0,1,412.17,716.16Z"/><path class="cls-1" d="M378.25,710.1c1.74-2.19,3.63-3.28,5.65-3.28a13.8,13.8,0,0,1,2.52.35v-9.68q-5.88.79-9.49,8.76a14.44,14.44,0,0,0-1.55,4.42c0,.71.32,1.06,1,1.06C376.79,711.73,377.43,711.19,378.25,710.1Z"/><polygon class="cls-1" points="395.62 751.64 401.1 757.29 406.76 751.55 401.1 745.91 395.62 751.64"/><path class="cls-1" d="M414.16,719a34.75,34.75,0,0,0-4.64,5.83,13,13,0,0,0,.85,2.47q1.88,4.1,8.43,5.33a65.66,65.66,0,0,0,10.49.65V720.91c-5,0-8.22-.19-9.75-.4A15.58,15.58,0,0,1,414.16,719Z"/><path class="cls-1" d="M449.37,719.43a90.56,90.56,0,0,1-17.82,1.48v12.37h3.12A46.86,46.86,0,0,0,450,730.91a68.74,68.74,0,0,0,13.31-6.75l-6.69-6.66A61.6,61.6,0,0,1,449.37,719.43Z"/><path class="cls-1" d="M439.21,704.36q-3.48,5.65-3.48,7.54c0,.65.27,1,.82,1q.57,0,1.8-1.47,2.53-3.36,5.33-3.36c1.25,0,3.52.63,6.79,1.89l7.86-7.86c-.79-.3-1.57-.6-2.36-.92q-6.32-2.45-8.53-2.45Q442.68,698.71,439.21,704.36Z"/><path class="cls-1" d="M483.17,708.45a99.05,99.05,0,0,1-22.78-5.6l-7.88,7.87c3.51,1.36,7.33,2.65,11.49,3.88q-2.65,1.21-5.29,2.17l6.35,6.31a42.31,42.31,0,0,1,8-4.14,20.68,20.68,0,0,1,5.49-1,5.7,5.7,0,0,0,1.23.08,6.47,6.47,0,0,0,1.15.09c.55-.11,1.09-.66,1.64-1.64l3.11-5.9a3.13,3.13,0,0,0,.57-1C486.28,709.11,485.25,708.73,483.17,708.45Z"/><path class="cls-1" d="M511.06,714.52a39.29,39.29,0,0,1,4.15-3.1c-1-1-2-2-3-3a22.09,22.09,0,0,0-3.79,2.89,14,14,0,0,0-2.13,4.09,13.74,13.74,0,0,0-.9,4.38,4.36,4.36,0,0,0,.78,2.13,8.08,8.08,0,0,0,2.83,1.45q3.4-3.42,6.84-6.8A19.48,19.48,0,0,1,511.06,714.52Z"/><path class="cls-1" d="M531.29,718.7q-1.39-2.61-2.53-10.57L527,695.68c-.43-3.33-.87-5-1.31-5s-1.46,1.19-3.23,3.57-2.67,3.89-2.67,4.55a40,40,0,0,0,.41,4.59c-2.49,1.5-4.58,2.8-6.29,3.9,1,1,2,2,3,3,1.21-.75,2.53-1.5,3.95-2.27a74,74,0,0,0,1.56,10c-1.6-.28-3-.58-4.36-.9q-3.52,3.45-7,6.94l1.34.44a38.23,38.23,0,0,0,6.39,1.72c.49,0,1.28-.87,2.38-2.62l1.72-2.79q1.14,6.48,3.68,9.67c1.48,1.86,4.15,2.78,8,2.78h2.46V720.91h-1.55A4.47,4.47,0,0,1,531.29,718.7Z"/><path class="cls-1" d="M541.42,720.91h-2v12.37h2q14.55,0,16.17-14.21H552.4C551.07,720.3,547.42,720.91,541.42,720.91Z"/><path class="cls-1" d="M552.23,699.28a1.25,1.25,0,0,0-.9.41q-1,1.39-1.8,2.46l-3.11,5a5.69,5.69,0,0,0-.57,1.22c0,.28.24.66.73,1.15,3.52,3.57,5.57,6.07,6.18,7.55h5c0-.59,0-1.19,0-1.81a37.37,37.37,0,0,0-1.73-8.85C554.77,701.65,553.49,699.28,552.23,699.28Z"/><polygon class="cls-1" points="544.29 746.15 549.78 751.97 555.51 746.15 549.78 740.41 544.29 746.15"/><rect class="cls-1" x="221.55" y="786.11" width="170.6" height="11.55"/></svg>