<svg id="Layer_1" data-name="Layer 1" xmlns="http://www.w3.org/2000/svg" viewBox="0 0 595.28 841.89"><defs><style>.cls-1{fill:#231f20;}</style></defs><path class="cls-1" d="M529.44,768.83c-.94-1.74-1.78-5.27-2.54-10.56l-1.73-12.46q-.64-5-1.31-5t-3.23,3.56q-2.67,3.57-2.67,4.55a39.86,39.86,0,0,0,.41,4.59c-2.49,1.51-4.58,2.81-6.29,3.91,1,1,2,2,3,3,1.22-.74,2.53-1.5,3.95-2.27a73.49,73.49,0,0,0,1.56,10c-1.6-.27-3-.57-4.36-.89-2.34,2.29-4.67,4.61-7,6.93l1.34.44a37.68,37.68,0,0,0,6.39,1.73c.49,0,1.28-.88,2.38-2.63l1.72-2.79q1.14,6.48,3.68,9.67,2.22,2.79,8,2.79h2.45V771H533.7A4.44,4.44,0,0,1,529.44,768.83Z"/><path class="cls-1" d="M87.27,768.09a62,62,0,0,0-9.84-1.47q-6.72-.74-9.1-1.89c-1.11-.28-1.73-.69-1.85-1.19H62.79a25.8,25.8,0,0,0-.92,6.77c0,3.17,2.09,5.32,6.3,6.47,1.26.39,4.62.79,10.08,1.23a58.6,58.6,0,0,1,9.67,1.48c1.09.49,1.63,1.12,1.63,1.88a4.23,4.23,0,0,1,0,.5h3a32.6,32.6,0,0,0,.41-5.33,9.65,9.65,0,0,0-1.35-5.66A8,8,0,0,0,87.27,768.09Z"/><path class="cls-1" d="M63.66,788.74q-11.88,0-17.94-2.21-9.84-3.53-9.84-13.11a31.65,31.65,0,0,1,1.32-8,11.72,11.72,0,0,0,.57-2.95c0-.82-.35-1.23-1.06-1.23q-1.73.09-3.94,7.09a44,44,0,0,0-2.21,13.15q0,9.51,6.31,14.1t20.07,4.58q12.87,0,20.74-3,8.19-2.94,11.71-7.54a15.88,15.88,0,0,0,2.69-5.77H88.65Q84.7,788.75,63.66,788.74Z"/><path class="cls-1" d="M94.72,755.23A10.74,10.74,0,0,0,91,747.12a11.85,11.85,0,0,0-8.27-3.44q-8.45,0-15,9.42a36.52,36.52,0,0,0-4.36,8.44h3.47a18.65,18.65,0,0,1,3-4.59q3.61-3.69,10.49-3.6c5.51,0,9.92.76,13.19,2.13a8.29,8.29,0,0,0,1,.41A1.46,1.46,0,0,0,94.72,755.23Z"/><path class="cls-1" d="M120.29,767.44q-2.62-4.43-3.77-4.42c-.38,0-1.48,1.52-3.28,4.58-1.86,3.23-2.79,5-2.79,5.33a2.79,2.79,0,0,0,.82.66q8.66,7,9.62,11.11h3.82c.05-.83.08-1.66.08-2.51a26,26,0,0,0-1.63-9.26A37.4,37.4,0,0,0,120.29,767.44Z"/><path class="cls-1" d="M116.36,792.88q-4.68,4.8-17,10.61c-3.55,1.7-5.32,2.76-5.32,3.2,0,.87,2.15,1.5,6.47,1.89q6.81.64,10.73.65a5.09,5.09,0,0,0,3.52-1.23,26.05,26.05,0,0,0,4.35-5.65,38,38,0,0,0,5.38-15.65h-3.68C120.36,788.24,118.88,790.29,116.36,792.88Z"/><path class="cls-1" d="M142.41,760.88q0-3.35.16-7l.66-12.94.24-7.87a27.38,27.38,0,0,0-.08-3.94c-.16-.65-.49-1-1-1q-1.4,0-7.7,6.64c.27,4.47.41,9.07.41,13.76,0,.6,0,1.88-.08,3.85q-.09,3.36-.09,5.82c0,3.87-.07,5.94-.08,6.19a40.06,40.06,0,0,0,.83,8.28l7.13-7.13A22.54,22.54,0,0,1,142.41,760.88Z"/><path class="cls-1" d="M143.5,767.68l-7.18,7.18c1.88,5.69,5.59,8.56,11.17,8.56h2.78V771.21L148,771A5.08,5.08,0,0,1,143.5,767.68Z"/><path class="cls-1" d="M166.05,761.54c-.27-1.69-.65-2.54-1.14-2.54s-.88.85-1.15,2.54q-1.89,9.51-9.59,9.5h-1.64v12.38c3.55,0,6.27-.8,8.16-2.38s3.28-4.06,4.22-7.45a16,16,0,0,0,3.11,6.75q2.39,3.09,9.26,3.08V771h-2.13Q167.7,771,166.05,761.54Z"/><polygon class="cls-1" points="159.33 801.69 164.99 807.34 170.56 801.53 165.07 795.87 159.33 801.69"/><path class="cls-1" d="M183.72,762c0,.65.27,1,.82,1,.38,0,1-.49,1.8-1.48q2.53-3.36,5.33-3.36a6.37,6.37,0,0,1,.89.09v-8.84a11.89,11.89,0,0,0-5.36,5.06C184.88,758.27,183.72,760.77,183.72,762Z"/><path class="cls-1" d="M202.81,768.2q-2.73.81-5.45,1.37A91.42,91.42,0,0,1,179.54,771v12.38h3.11A46.88,46.88,0,0,0,198,781a63.05,63.05,0,0,0,11.83-5.84Z"/><path class="cls-1" d="M211.56,774.12l.35-.21q6.63-4.1,9.17-4.83a20.36,20.36,0,0,1,5.49-1,5.7,5.7,0,0,0,1.23.08,6.47,6.47,0,0,0,1.15.09c.55-.11,1.09-.66,1.64-1.64l3.11-5.9a3.13,3.13,0,0,0,.57-1c0-.49-1-.87-3.11-1.15A104.61,104.61,0,0,1,204,751.3q-6.32-2.46-8.53-2.46a6.38,6.38,0,0,0-.87.07v9.82q1.77.51,4.32,1.5,5.9,2.38,13.11,4.5a72.93,72.93,0,0,1-7,2.79Z"/><polygon class="cls-1" points="202.97 801.78 208.63 807.42 214.28 801.78 208.55 796.04 202.97 801.78"/><path class="cls-1" d="M241,735.89l3.27,29.59q1.72,15.15,2.29,16.22a1.21,1.21,0,0,0,1.16,1,.87.87,0,0,0,.81-.41,58.59,58.59,0,0,0,1.31-8.19l2.46-33.35,1-12.46c.05-.54-.11-.81-.49-.81Q251.51,727.46,241,735.89Z"/><path class="cls-1" d="M343.65,763.43q0-6.88-3.24-11.15c-2.16-2.84-3.45-4.26-3.89-4.26s-.88.82-1.64,2.46q-.5,1.23-.66,1.56l-2.29,4.67c-.11.21-.2.38-.25.49l-.57,1.64a7.13,7.13,0,0,0,1.89,1.88c2.63,2.48,4.29,4.47,5,6h5.41A24.91,24.91,0,0,0,343.65,763.43Z"/><polygon class="cls-1" points="312.67 807.34 318.41 801.53 312.67 795.95 307.1 801.53 312.67 807.34"/><path class="cls-1" d="M343.06,768.7H338.3c-.51,1.38-3,2.59-7.56,3.66q-7.67,1.8-21.67,1.8a82.53,82.53,0,0,1-15-1.1V785.7a80.09,80.09,0,0,0,13.12.91q23.44,0,29.95-6.92A23.08,23.08,0,0,0,343.06,768.7Z"/><path class="cls-1" d="M282.85,759.66a13,13,0,0,0,.17-2c0-.93-.31-1.39-.91-1.39-.82,0-1.63,1.3-2.42,3.93a30.67,30.67,0,0,0-1.19,8.85q0,11.07,9.51,15a25.39,25.39,0,0,0,4.05,1.23v-12.7a17.69,17.69,0,0,1-3.81-1.4,9.65,9.65,0,0,1-5.56-9.09c0-.17,0-.54.08-1.11S282.85,760,282.85,759.66Z"/><path class="cls-1" d="M352.32,758.18c0,3.87-.07,5.94-.07,6.19a34.47,34.47,0,0,0,1.39,10.34l7.17-7.17a17.78,17.78,0,0,1-1-6.66q0-3.35.16-7l.66-12.94.25-7.87a27.38,27.38,0,0,0-.08-3.94c-.17-.65-.5-1-1-1q-1.39,0-7.7,6.64c.27,4.47.41,9.07.41,13.76,0,.6,0,1.88-.08,3.85Q352.32,755.72,352.32,758.18Z"/><path class="cls-1" d="M364.87,783.42h2.78V771.21l-2.29-.17a4.79,4.79,0,0,1-3.49-1.73l-7.44,7.44A10.66,10.66,0,0,0,364.87,783.42Z"/><path class="cls-1" d="M369.91,771v12.38a68.53,68.53,0,0,0,10.82-.82q8.28-1.3,16.8-7.87l2.74-2.11q-3-3.14-6.18-6.19a55.88,55.88,0,0,1-7.87,3.14A50.08,50.08,0,0,1,373.35,771Z"/><path class="cls-1" d="M410.31,766.3c0-1.54.85-2.3,2.54-2.3l.73.08a11,11,0,0,0,1.24.08,26.64,26.64,0,0,0,3.6.33,7.78,7.78,0,0,0,1.56-.28,1.53,1.53,0,0,0,.49-.78l.32-.41,3-6.07a3,3,0,0,0,.4-1.47c0-.33-.08-.49-.24-.49-.65-.06-1.23-.11-1.72-.17a110.78,110.78,0,0,1-27.94-5.49,34.22,34.22,0,0,0-7.69-1.78v10.22l1,.25,15.07,4.1c-2.41,1.29-4.59,2.41-6.59,3.39q3,2.91,5.86,5.89l5.49-4.21a22.69,22.69,0,0,0-.25,3.12c0,.62,0,1.21.08,1.79a33.26,33.26,0,0,1,3.59-4.27A2.68,2.68,0,0,1,410.31,766.3Z"/><path class="cls-1" d="M376.39,760.23C378.13,758,380,757,382,757a13.8,13.8,0,0,1,2.52.35v-9.68q-5.88.81-9.49,8.76a14.52,14.52,0,0,0-1.55,4.42c0,.71.32,1.07,1,1.07C374.94,761.87,375.57,761.32,376.39,760.23Z"/><polygon class="cls-1" points="393.76 801.78 399.24 807.42 404.9 801.69 399.24 796.04 393.76 801.78"/><path class="cls-1" d="M412.3,769.14a34.35,34.35,0,0,0-4.64,5.83,13.55,13.55,0,0,0,.85,2.47q1.88,4.09,8.43,5.32a64.11,64.11,0,0,0,10.49.66V771c-5,0-8.22-.19-9.75-.4A15.83,15.83,0,0,1,412.3,769.14Z"/><path class="cls-1" d="M447.51,769.57A91.42,91.42,0,0,1,429.69,771v12.38h3.12A46.86,46.86,0,0,0,448.13,781a68.17,68.17,0,0,0,13.31-6.75l-6.69-6.65A63.07,63.07,0,0,1,447.51,769.57Z"/><path class="cls-1" d="M437.35,754.49c-2.32,3.78-3.48,6.28-3.48,7.55,0,.65.27,1,.82,1,.38,0,1-.49,1.8-1.48q2.53-3.36,5.33-3.36c1.25,0,3.53.64,6.79,1.89l7.86-7.86c-.78-.3-1.57-.59-2.36-.91-4.21-1.64-7-2.46-8.53-2.46Q440.84,748.84,437.35,754.49Z"/><path class="cls-1" d="M481.31,758.59A99.63,99.63,0,0,1,458.53,753l-7.88,7.88c3.51,1.35,7.33,2.65,11.49,3.87-1.77.81-3.53,1.53-5.29,2.18l6.35,6.31a41.1,41.1,0,0,1,8-4.14,20.43,20.43,0,0,1,5.49-1,5.7,5.7,0,0,0,1.23.08,6.55,6.55,0,0,0,1.15.09c.55-.11,1.09-.66,1.64-1.64l3.11-5.9a3.13,3.13,0,0,0,.57-1C484.42,759.25,483.39,758.87,481.31,758.59Z"/><path class="cls-1" d="M509.2,764.65a40.71,40.71,0,0,1,4.15-3.1q-1.49-1.51-3-3a21.9,21.9,0,0,0-3.8,2.89,13.9,13.9,0,0,0-2.12,4.09,13.62,13.62,0,0,0-.91,4.39,4.43,4.43,0,0,0,.78,2.13,8,8,0,0,0,2.83,1.44q3.41-3.42,6.84-6.79A19.46,19.46,0,0,1,509.2,764.65Z"/><path class="cls-1" d="M539.56,771h-2v12.38h2q14.55,0,16.17-14.22h-5.19C549.21,770.43,545.56,771,539.56,771Z"/><path class="cls-1" d="M550.38,749.41a1.27,1.27,0,0,0-.91.41c-.65.93-1.25,1.76-1.8,2.46l-3.11,5a5.64,5.64,0,0,0-.57,1.23c0,.28.24.66.73,1.15,3.52,3.56,5.57,6.07,6.18,7.54h5c0-.59.05-1.18.05-1.81a37.74,37.74,0,0,0-1.72-8.85Q552.25,749.42,550.38,749.41Z"/><polygon class="cls-1" points="542.43 796.28 547.92 802.1 553.65 796.28 547.92 790.55 542.43 796.28"/><path class="cls-1" d="M394.33,125.2c2.62,2.54,5.24,2.54,7.77,0L437,89.92c3.25-3.13,3.57-6,1-8.45L402.34,45.79q-4.51-4.51-9,0l-35,35c-3,3-3,6.07-.07,9.08Z"/><path class="cls-1" d="M284.42,160.66v16.92q27.3-27.29,54.73-54.44-5.25-44.15-6.56-67-.9-7.8-6.9-4.2L284,76.19q-3.6,2.09-3.6,9.29v10.8q-40.13,31.88-64.11,51.21l40.4,40.39Z"/><path class="cls-1" d="M551.18,352.9V171.24l-2.1-22.39Q543.38,87.08,523.3,62c-3.2-3.95-6.1-5.94-8.7-5.94q-3.6,0-8.7,5.39l-39.58,43.18q-7.79,8.7-3,15.59,4.5,6.3,12,23.24t7.5,21.14q0,6.6-4.5,6.6H380q-32.69,0-39.29-35.38c-.19-1.57-.37-3.1-.56-4.63q-27.94,27.61-55.7,55.44V217l-13.49,17.09-36-24.89,17.16-16.84-40.84-40.84q-27.86,22.51-30.41,25.39-20.72,35.51-37.57,67L133,266.54l1.2,326.05H137a1.13,1.13,0,0,0,.35.41l103.14,66.87q10.2,6.58,16.8-2.4,32.09-42,38.08-53.38,0,26.4,24.88,53.68,27.3,30.29,62.07,30.28H532.59c12.39,0,18.59-5.44,18.59-16.24V353.2C551.17,353.1,551.18,353,551.18,352.9Z"/><rect class="cls-1" x="488.83" y="703.32" width="57.85" height="11.31"/></svg>