<svg id="Layer_1" data-name="Layer 1" xmlns="http://www.w3.org/2000/svg" viewBox="0 0 595.28 841.89"><defs><style>.cls-1{fill:#231f20;}</style></defs><path class="cls-1" d="M418.29,122.91a23.44,23.44,0,0,1,2.56,2.25,8,8,0,0,0,2.4,1.76,2.85,2.85,0,0,0,2.56-.32,11.6,11.6,0,0,0,3.36-3.69l25-39.38a9,9,0,0,0,1.92-7,11.29,11.29,0,0,0-3.2-6.09q-4.17-4.8-8.65-9.6l-8.48-9.13q-4-4.32-7.69-7.84t-5.92-6.09q-5.44-4.49-8.33-4t-5.44,4a180.51,180.51,0,0,0-11.85,18.73q-5.76,10.41-11.84,21.62a53.43,53.43,0,0,0-4.17,8.16q-1.59,4,1,6.57Z"/><path class="cls-1" d="M187.82,195.91q7.27-5.1,15-9.9a229.84,229.84,0,0,1,24.65-13.29,136.92,136.92,0,0,1,24-8.64q1.29,7.68,2.73,16.49c.34,2.1.7,4.2,1.06,6.3L285.19,157q-4.05-17.85-7.61-35.62-5-24.81-8.32-46.75a353.4,353.4,0,0,1-4-35.7c-1.7-3.84-3.47-5.55-5.28-5.12s-3.74,2.29-5.76,5.6a68.09,68.09,0,0,0-5.93,13.45q-2.88,8.49-5.12,18.09-2.24,9.93,0,23.85t3.2,28.66q-30.42,12.5-53.31,27.06a304.42,304.42,0,0,0-29.54,21.23Q175.62,183.87,187.82,195.91Z"/><path class="cls-1" d="M563,293V224.6l-.31-.13a259.94,259.94,0,0,0-3.48-32.22,145.66,145.66,0,0,0-11.36-29.45q-7.53-14.73-15.21-26.74T519,116.21q-5.93-7.84-6.57-9.13-6.72-8.33-11.68-6.72t-6.57,14.41q-1,9.28-1.76,16.65T491,145.67q-.64,6.89-1,13.92t-.32,15q19.21,21.78,30.74,43.55t15,41.63q-5.44,8-17,14.08A132.36,132.36,0,0,1,492,284.15a219,219,0,0,1-32,6.24,272.88,272.88,0,0,1-33.3,2.09q-50.91,0-82-18.42T300.15,216q-5.76-19.86-11.68-44.83c-.33-1.38-.64-2.76-1-4.14l-30.39,30.39c0,.27.09.54.14.81q1.61,8.81,3.36,17T264,229.08q-11.21,3.51-27.53,7.36T202.65,243a252.22,252.22,0,0,1-33.62,3q-16.17.31-27.05-3.2,0-3.85,5-10.41A119.07,119.07,0,0,1,160.23,218a231.77,231.77,0,0,1,19.37-16.17c.34-.26.7-.51,1.05-.77q-12-11.79-23.79-23.71c-1.08,1-2.16,1.91-3.19,2.87a189.62,189.62,0,0,0-27.22,30.58,181.29,181.29,0,0,0-17,29.29,132.29,132.29,0,0,0-8.81,25.78,97.79,97.79,0,0,0-2.56,20.17V713.86l2.55,10.93c.16.24.32.48.49.69a16.77,16.77,0,0,0,8.17,5.29q10.56.63,25.13,1.12t29,.48q14.41,0,26.42-.48t17.77-1.12a83.85,83.85,0,0,0,23.21-9.61A95.69,95.69,0,0,0,248,707.71a102.63,102.63,0,0,0,12.65-15.21q5.28-7.85,9.45-14.89,4.47,25,13.44,42.43a113.19,113.19,0,0,0,20.82,29.14,92.81,92.81,0,0,0,26.41,18.41,150,150,0,0,0,30.42,10.24,203.44,203.44,0,0,0,32.5,4.49q16.65,1,33,1a278.69,278.69,0,0,0,37-2.56,211.06,211.06,0,0,0,36.51-8.17,144.52,144.52,0,0,0,32.18-14.73,83.55,83.55,0,0,0,24.33-22.57,499.8,499.8,0,0,0,6.08-58.44c.36-8,.34-15.89,0-23.74V292.18Z"/><rect class="cls-1" x="32.29" y="713.62" width="57.27" height="11.19"/><path class="cls-1" d="M58.75,758.77q-5.2-5.19-7.4-5.2-.6.13-2.37,4.73a25.93,25.93,0,0,0-1.76,5.6c0,.62.28.93.86.93a1.54,1.54,0,0,0,.8-.29,1.81,1.81,0,0,1,1-.31q2.13,0,8.13,4.7a27.29,27.29,0,0,1,5.38,5.1h3.52a18.74,18.74,0,0,0-2.1-7.93A36.32,36.32,0,0,0,58.75,758.77Z"/><path class="cls-1" d="M60.61,777.76a39,39,0,0,1-8.33.87q-7.53,0-8.73-1.86a4.13,4.13,0,0,1-.6-2.21c-.22-1.28-.6-1.93-1.13-1.93-.71,0-1.29,1.27-1.73,3.8a28.58,28.58,0,0,0-.47,4.67q0,7.86,11.53,7.86c5.9,0,10-1.09,12.36-3.27q3.08-2.87,3.4-9.36H63.57A7.75,7.75,0,0,1,60.61,777.76Z"/><path class="cls-1" d="M83.41,743.08q-1,0-9.6,6.86L76.48,774q1.39,12.33,1.86,13.19c.18.54.49.8.94.8a.7.7,0,0,0,.66-.33A47.41,47.41,0,0,0,81,781l2-27.13.8-10.13C83.85,743.3,83.72,743.08,83.41,743.08Z"/><path class="cls-1" d="M100.8,779.4a10.62,10.62,0,0,1-4.6-.94,3.91,3.91,0,0,1-2.53-3.59s.06-.45.2-1.47q.06-.74.06-1.47c0-.57-.2-.86-.6-.86-.79,0-1.49,1.53-2.07,4.6a32.55,32.55,0,0,0-.66,5.73q0,7.13,7.4,7.13,7.89,0,13.55-6.77-1.8-1.86-3.63-3.69A17.59,17.59,0,0,1,100.8,779.4Z"/><path class="cls-1" d="M117.32,766.2l-2.93-9.26q-.87-2.73-1.2-2.73c-.17,0-.69.55-1.53,1.66-.72.89-1.2,1.54-1.47,1.93-.93,1-1.4,1.74-1.4,2.14,0-.05.18.49.54,1.6L114,774.06a20.55,20.55,0,0,1-3.9,2.92l2.88,2.93a33.08,33.08,0,0,0,2-3.11,36.35,36.35,0,0,0,4.47,8.89,6.72,6.72,0,0,0,5.6,2.9h1.53V778.53h-1.6Q121.19,778.53,117.32,766.2Z"/><polygon class="cls-1" points="134.84 803.45 139.44 808.05 143.97 803.32 139.5 798.72 134.84 803.45"/><path class="cls-1" d="M140.3,770.8q-.33-2.07-.93-2.07t-.93,2.07q-1.53,7.74-7.79,7.73h-1.34v10.06q4.33,0,6.63-1.93a11.65,11.65,0,0,0,3.43-6.06,13,13,0,0,0,2.54,5.49c1.29,1.67,3.79,2.5,7.53,2.5V778.53H147.7Q141.64,778.53,140.3,770.8Z"/><path class="cls-1" d="M163.22,770.8q-.33-2.07-.93-2.07t-.93,2.07c-1,5.16-3.62,7.73-7.8,7.73h-1.33v10.06c2.88,0,5.1-.64,6.63-1.93a11.79,11.79,0,0,0,3.43-6.06,13,13,0,0,0,2.54,5.49c1.29,1.67,3.79,2.5,7.53,2.5V778.53h-1.74Q164.56,778.53,163.22,770.8Z"/><polygon class="cls-1" points="166.36 763.2 170.69 758.67 166.49 754.01 162.42 758.27 158.56 754.01 154.23 758.67 158.56 763.13 162.56 758.8 166.36 763.2"/><path class="cls-1" d="M211.3,774.41c-.07-1.19-.21-2.54-.43-4.08q-.87-5.66-2.54-5.66c-.09,0-.24.18-.46.53l-2.27,3.33c-.31.76-.47,1.09-.47,1a10,10,0,0,0,.61,1.07,17.86,17.86,0,0,1,2.16,3.81Z"/><path class="cls-1" d="M203.67,778.4c-3.73,0-5.8-1.73-6.2-5.07-.18-1-.51-1.53-1-1.53s-.76.71-1.07,2.13a7.48,7.48,0,0,1-1.59,3.47,4.21,4.21,0,0,1-3.07,1q-4.26,0-5-4.94c-.17-1.06-.49-1.59-.93-1.59s-.87.75-1,2a6.68,6.68,0,0,1-1.67,3.64c-.75.69-2.15,1-4.2,1h-2.8v10.06H177a8.69,8.69,0,0,0,7.6-4.4q2.46,4.34,6.4,4.34c2.17,0,4.2-1.45,6.06-4.34q2.6,4.27,6.13,4.27a6.48,6.48,0,0,0,5.6-3.2,16,16,0,0,0,2.47-7.86c0-.21,0-.45,0-.68h-3.44C207.3,777.87,205.91,778.43,203.67,778.4Z"/><path class="cls-1" d="M230,743.08q-1,0-9.6,6.86L223.05,774q1.41,12.33,1.87,13.19c.18.54.49.8.94.8a.7.7,0,0,0,.66-.33,47.41,47.41,0,0,0,1.07-6.66l2-27.13.8-10.13C230.43,743.3,230.3,743.08,230,743.08Z"/><path class="cls-1" d="M248.05,773.33a35.94,35.94,0,0,1,3.93-2.87v-4c-3.52,2.2-5.55,3.63-6.06,4.26a11,11,0,0,0-1.73,3.33,11.18,11.18,0,0,0-.74,3.57,3.5,3.5,0,0,0,.64,1.73,6.48,6.48,0,0,0,2.29,1.17q2.77-2.78,5.58-5.52A15.92,15.92,0,0,1,248.05,773.33Z"/><path class="cls-1" d="M264.51,776.73c-.76-1.42-1.44-4.29-2.06-8.6L261.05,758c-.36-2.7-.71-4.06-1.07-4.06s-1.19,1-2.63,2.9-2.17,3.16-2.17,3.7a30.53,30.53,0,0,0,.34,3.73l-1.24.75v4c.57-.33,1.15-.66,1.77-1a59.45,59.45,0,0,0,1.27,8.13c-1-.17-1.9-.36-2.76-.55-1.93,1.88-3.84,3.78-5.75,5.69l.38.12a29.81,29.81,0,0,0,5.19,1.4c.4,0,1.05-.71,1.93-2.13l1.41-2.27c.62,3.51,1.61,6.13,3,7.87q1.8,2.26,6.53,2.26h2V778.53H268A3.63,3.63,0,0,1,264.51,776.73Z"/><path class="cls-1" d="M274.85,778.53h-1.67v10.06h1.67q11.75,0,13.14-11.39h-4.41C282.36,778.09,279.46,778.53,274.85,778.53Z"/><path class="cls-1" d="M283.65,760.94a1,1,0,0,0-.74.33c-.53.76-1,1.42-1.46,2l-2.53,4.06a4.8,4.8,0,0,0-.47,1c0,.23.2.54.6.94a32.66,32.66,0,0,1,4.77,5.62h4.33c0-.32,0-.63,0-1a30.41,30.41,0,0,0-1.4-7.19Q285.17,760.94,283.65,760.94Z"/><polygon class="cls-1" points="277.19 799.06 281.65 803.79 286.31 799.06 281.65 794.39 277.19 799.06"/></svg>