<svg id="Layer_1" data-name="Layer 1" xmlns="http://www.w3.org/2000/svg" viewBox="0 0 595.28 841.89"><defs><style>.cls-1{fill:#231f20;}</style></defs><ellipse class="cls-1" cx="442.66" cy="134.5" rx="51.06" ry="52.44"/><path class="cls-1" d="M277.83,494s9.18,44.88,47.95,57.12c0,0,30.6,14.29,49,10.21v-152H347.2s-32.65-1-33.67-50v-206H295.17s10.2,62.22-45.9,82.63l-64.7,23.57v128.3l77.2-26.89a14.39,14.39,0,0,1,19.12,13.59v.15l-97.66,32.56V559.06C194.11,556.84,271.2,539.53,277.83,494Z"/><path class="cls-1" d="M175.23,558.91v-149l-58.41,19.47a13.31,13.31,0,0,1-17.5-11.84l77.25-26.91V262.45L128.9,279.82s-114.24,35.7-101,158.11c0,0,4.08,88.74,103,118.32Zm-49.33-211a1,1,0,0,1,0,2A1,1,0,0,1,125.9,347.94Z"/><path class="cls-1" d="M395.91,565c159.43-16.93,172.83-136.48,172.51-178.72H442.74c-10.49,26-53.84,25.24-53.84,25.24l.41,154Z"/><path class="cls-1" d="M419.18,298.9l-14,24.67c-14,24.66,10.34,21.92,10.34,21.92C445,342.75,444.29,366,444.29,366a42.18,42.18,0,0,1,.47,12.23H568.19c-.24-4.31-.55-6.74-.55-6.74C575,259.17,491.56,211.9,491.56,211.9,470.14,205.73,419.18,298.9,419.18,298.9Z"/><path class="cls-1" d="M116.7,691.24a40.7,40.7,0,0,0-2.57-14.54,58.37,58.37,0,0,0-4.5-8.62q-4.12-6.95-5.92-6.94c-.6,0-2.31,2.39-5.15,7.2q-4.36,7.59-4.37,8.36a4.26,4.26,0,0,0,1.29,1q14.74,11.91,15.27,18.54h5.74C116.63,694.61,116.7,692.93,116.7,691.24Z"/><path class="cls-1" d="M103.46,708q-7.35,7.54-26.64,16.67-8.35,4-8.36,5,0,2.06,10.17,3,10.68,1,16.85,1a8.08,8.08,0,0,0,5.53-1.92c1.8-1.56,4.07-4.5,6.81-8.88a59.34,59.34,0,0,0,8.48-24.61h-5.77Q109.44,701.89,103.46,708Z"/><path class="cls-1" d="M145,662.29q6,0,10.9,6.31h11.47Q162.6,645.21,149,645.19q-7.87,0-13.43,12.25l5.86,5.8A6.52,6.52,0,0,1,145,662.29Z"/><path class="cls-1" d="M167.51,693.16h15.7V673.74H168.28c-.16-1.08-.33-2.12-.52-3.14H157.31c.63,1,1.24,2,1.84,3.14h-6.81q-15.06,0-15.05-4.63a6.19,6.19,0,0,1,2.44-4.24l.21-.27-5.23-5.19q-5.39,12.9-5.4,21.41a9.46,9.46,0,0,0,6.3,9.45q6.3,2.64,26.36,2.64a17.13,17.13,0,0,1-2.13,7.36h6.58A67.16,67.16,0,0,0,167.51,693.16Z"/><path class="cls-1" d="M149.38,711.94a91.93,91.93,0,0,1-20.84,12.22q-10.42,4.38-10.42,5.92.25,1.93,12.73,3.08c5.92.6,11,.91,15.18.91q4.25,0,10-8.5a64,64,0,0,0,7.07-14.14,76.49,76.49,0,0,0,2.84-9.16h-7.33A43.73,43.73,0,0,1,149.38,711.94Z"/><path class="cls-1" d="M255.7,693.16V673.74h-2.83q-8.61,0-10.94-9.78c-.5-2.14-1.15-3.21-1.92-3.21a1.19,1.19,0,0,0-.91.84,20.79,20.79,0,0,0-.63,2.51q-1.82,9.38-8.11,9.26t-8-9.4q-.65-3.21-1.92-3.21c-1,0-1.59,1-1.94,3.08-1,6.35-3.73,9.53-8.1,9.53q-6.31,0-7.84-9c-.43-2.31-1.12-3.48-2.07-3.48-1.11.18-1.79,1.34-2.06,3.48-.5,3.51-1.49,6.09-2.94,7.72a7.06,7.06,0,0,1-5.15,1.67h-2.58v19.42H192q6.56,0,9.9-8.49,3,8.37,10.17,8.24c4.63-.08,8-2.71,10-7.86q4.5,8,11.19,8,5.91,0,9.13-7.46,4.25,7.6,11.19,7.59Z"/><polygon class="cls-1" points="288.59 619.98 279.59 611.1 270.96 619.85 279.84 628.98 288.59 619.98"/><path class="cls-1" d="M281.25,670.44q-2.52,3.3-17.61,3.3h-3.23v19.42h3.23q23,0,25.42-22.72Z"/><path class="cls-1" d="M271.73,655.87q9.21,9.3,10,12.57h7.55c.07-1.15.11-2.34.11-3.57q0-4.25-2.7-13.9-3.11-11.19-6.05-11.19a2,2,0,0,0-1.42.64q-1.53,2.21-2.83,3.86l-4.88,7.85a9,9,0,0,0-.9,1.93C270.58,654.5,271,655.09,271.73,655.87Z"/><path class="cls-1" d="M308.65,653.55c-.07,6.36-.11,9.6-.12,9.74a66.4,66.4,0,0,0,.93,11.18l11.25-11.2a39.56,39.56,0,0,1-.35-5.48q0-5.26.25-11.06l1-20.32.38-12.35a43.83,43.83,0,0,0-.13-6.18c-.25-1-.77-1.54-1.54-1.54q-2.19,0-12.09,10.42.63,10.54.64,21.6c0,.95,0,3-.12,6C308.69,647.93,308.65,651,308.65,653.55Z"/><path class="cls-1" d="M328.34,693.16h4.36V674l-3.59-.26q-6.12-.45-8-8.09L310,676.81Q313.84,693.16,328.34,693.16Z"/><path class="cls-1" d="M406.36,657.92c-1.11-7.28-2.75-10.93-4.89-10.93q-.25,0-.9,1l-4.38,6.44c-.59,1.46-.89,2.09-.89,1.92a18.08,18.08,0,0,0,1.16,2.06c2.92,4.2,4.44,7.24,4.6,9.17h6.21A80.75,80.75,0,0,0,406.36,657.92Z"/><path class="cls-1" d="M392.46,673.48q-10.79-.12-11.95-9.77c-.34-2-1-3-1.93-3q-1.15,0-2.06,4.12c-.78,3.17-1.8,5.4-3.09,6.69s-3.26,1.92-5.92,1.92c-5.48,0-8.7-3.16-9.65-9.52-.33-2.05-.94-3.09-1.79-3.09-1,.18-1.67,1.47-1.93,3.86q-1,5-3.22,7c-1.45,1.34-4.16,2-8.11,2h-5.4v19.42H341q9.14,0,14.67-8.49Q360.43,693,368,693q6.3,0,11.71-8.36,5,8.25,11.83,8.24t10.81-6.17a30.86,30.86,0,0,0,4.75-15.18c.07-.6.1-1.27.13-2h-6.44Q399.58,673.59,392.46,673.48Z"/><path class="cls-1" d="M455.12,660.6h12.64c-.39-2-.78-4.35-1.15-6.92l-2.7-19.55c-.68-5.23-1.37-7.86-2.06-7.86s-2.29,1.87-5.08,5.6-4.18,6.11-4.18,7.14a63.48,63.48,0,0,0,.64,7.21c-1.57.95-3,1.84-4.41,2.69v7.74q2.54-1.53,5.44-3.1A52.31,52.31,0,0,0,455.12,660.6Z"/><path class="cls-1" d="M479.73,693.16V673.74h-2.44c-3.18,0-5.4-1.16-6.69-3.47a31.41,31.41,0,0,1-2.42-7.67H455.46c.35,1.94.76,4.14,1.25,6.63a92.33,92.33,0,0,1-9.56-2.11v14.14a21.18,21.18,0,0,0,3.9.85c.77,0,2-1.37,3.73-4.13l2.7-4.37q1.8,10.17,5.78,15.18,3.48,4.38,12.61,4.37Z"/><path class="cls-1" d="M446.82,650.15q-10.59,6.6-12.11,8.48A25.89,25.89,0,0,0,430,671.94a6.88,6.88,0,0,0,1.22,3.34q1,1.29,9.85,4.12c1.56.5,2.92.92,4.13,1.28V666.51a28.53,28.53,0,0,1-6.32-2.8,66.48,66.48,0,0,1,8-5.82Z"/><path class="cls-1" d="M513.24,668.77c.09-1.26.15-2.55.15-3.9q0-4.25-2.71-13.9-3.09-11.19-6-11.19a2,2,0,0,0-1.42.64q-1.55,2.21-2.83,3.86l-4.88,7.85a9,9,0,0,0-.9,1.93c0,.44.38,1,1.15,1.81q9.71,9.81,10,12.9Z"/><polygon class="cls-1" points="492.17 713.36 500.78 722.49 509.78 713.36 500.78 704.35 492.17 713.36"/><path class="cls-1" d="M484.44,673.74v19.42h3.22q22.88,0,25.39-22.39H505c-2,2-7.77,3-17.32,3Z"/><rect class="cls-1" x="68.46" y="590.57" width="136.25" height="11.55"/><rect class="cls-1" x="322.4" y="590.57" width="139.36" height="11.55"/><rect class="cls-1" x="212.71" y="590.57" width="101.69" height="11.55"/><rect class="cls-1" x="469.76" y="590.57" width="69.69" height="11.55"/><rect class="cls-1" x="68.46" y="748.27" width="170.6" height="11.55"/><rect class="cls-1" x="247.07" y="748.27" width="29.91" height="11.55"/><rect class="cls-1" x="284.97" y="748.27" width="175.61" height="11.55"/><rect class="cls-1" x="468.58" y="748.27" width="70.87" height="11.55"/></svg>