<svg id="Layer_1" data-name="Layer 1" xmlns="http://www.w3.org/2000/svg" viewBox="0 0 595.28 841.89"><defs><style>.cls-1{fill:#231f20;}</style></defs><path class="cls-1" d="M283.94,55.17q-6.1-6.11-8.68-6.1-.7.15-2.78,5.55c-1.38,3.6-2.08,5.79-2.08,6.58s.34,1.09,1,1.09a1.8,1.8,0,0,0,.94-.35,2.14,2.14,0,0,1,1.17-.35q2.5,0,9.55,5.51a32.15,32.15,0,0,1,6.32,6h4.13a22,22,0,0,0-2.47-9.31Q289.34,60.57,283.94,55.17Z"/><path class="cls-1" d="M286.13,77.48a46.61,46.61,0,0,1-9.78,1q-8.85,0-10.25-2.19a4.76,4.76,0,0,1-.71-2.58c-.26-1.52-.7-2.27-1.33-2.27q-1.24,0-2,4.46a33.91,33.91,0,0,0-.55,5.48q0,9.23,13.54,9.23,10.39,0,14.51-3.83,3.62-3.37,4-11h-3.91A9.44,9.44,0,0,1,286.13,77.48Z"/><path class="cls-1" d="M312.9,36.74q-1.17,0-11.26,8.06l3.12,28.25q1.65,14.49,2.19,15.5c.21.63.58.94,1.1.94a.82.82,0,0,0,.78-.39,57.13,57.13,0,0,0,1.26-7.83l2.34-31.85.94-11.89C313.42,37,313.27,36.74,312.9,36.74Z"/><path class="cls-1" d="M333.32,79.39a12.61,12.61,0,0,1-5.4-1.09q-3-1.48-3-4.23c0,.06.08-.52.23-1.72.05-.58.08-1.15.08-1.72s-.23-1-.7-1q-1.41,0-2.43,5.4a38.07,38.07,0,0,0-.78,6.73q0,8.37,8.69,8.37,9.25,0,15.91-7.94c-1.41-1.45-2.83-2.9-4.26-4.33A20.7,20.7,0,0,1,333.32,79.39Z"/><path class="cls-1" d="M352.73,63.9,349.29,53q-1-3.21-1.41-3.21c-.21,0-.81.65-1.8,2-.84,1-1.41,1.8-1.72,2.27-1.1,1.2-1.65,2-1.65,2.5,0,0,.21.58.63,1.88l5.48,14.71a25,25,0,0,1-4.59,3.43q1.69,1.71,3.38,3.44a38.85,38.85,0,0,0,2.3-3.66,42.56,42.56,0,0,0,5.25,10.45,7.89,7.89,0,0,0,6.57,3.4h1.8V78.37h-1.88Q357.27,78.37,352.73,63.9Z"/><polygon class="cls-1" points="373.3 107.64 378.7 113.04 384.02 107.49 378.78 102.09 373.3 107.64"/><path class="cls-1" d="M379.71,69.3c-.25-1.62-.62-2.43-1.09-2.43s-.83.81-1.09,2.43c-1.21,6-4.25,9.07-9.16,9.07H366.8V90.19c3.39,0,6-.75,7.79-2.27s3.14-3.88,4-7.12a15.44,15.44,0,0,0,3,6.46c1.51,1.95,4.45,2.93,8.84,2.93V78.37h-2Q381.29,78.37,379.71,69.3Z"/><path class="cls-1" d="M406.63,69.3c-.26-1.62-.63-2.43-1.1-2.43s-.83.81-1.09,2.43q-1.8,9.08-9.16,9.07h-1.57V90.19c3.4,0,6-.75,7.79-2.27s3.14-3.88,4-7.12a15.44,15.44,0,0,0,3,6.46q2.26,2.92,8.84,2.93V78.37h-2Q408.2,78.37,406.63,69.3Z"/><polygon class="cls-1" points="410.31 60.38 415.4 55.06 410.46 49.58 405.69 54.58 401.15 49.58 396.06 55.06 401.15 60.3 405.85 55.21 410.31 60.38"/><path class="cls-1" d="M463.08,73.54c-.07-1.4-.24-3-.51-4.79q-1-6.65-3-6.65c-.11,0-.29.21-.55.62l-2.66,3.92c-.37.89-.55,1.28-.55,1.17a11.4,11.4,0,0,0,.71,1.25,20.7,20.7,0,0,1,2.54,4.48Z"/><path class="cls-1" d="M454.12,78.22q-6.57-.07-7.27-6c-.21-1.2-.61-1.8-1.18-1.8s-.89.84-1.25,2.51a8.77,8.77,0,0,1-1.88,4.07,4.92,4.92,0,0,1-3.6,1.17q-5,0-5.87-5.79c-.21-1.25-.58-1.88-1.1-1.88s-1,.89-1.17,2.35a7.84,7.84,0,0,1-2,4.26c-.88.81-2.53,1.21-4.93,1.21h-3.28V90.19h2.19q5.55,0,8.92-5.16,2.89,5.09,7.51,5.08,3.84,0,7.13-5.08,3,5,7.19,5a7.61,7.61,0,0,0,6.58-3.75A18.73,18.73,0,0,0,463,77.05c0-.25,0-.54,0-.8h-4C458.39,77.6,456.76,78.26,454.12,78.22Z"/><path class="cls-1" d="M485,36.74q-1.18,0-11.27,8.06l3.13,28.25c1.1,9.66,1.82,14.82,2.19,15.5.21.63.57.94,1.1.94a.85.85,0,0,0,.78-.39,56.91,56.91,0,0,0,1.25-7.83l2.35-31.85.94-11.89C485.54,37,485.39,36.74,485,36.74Z"/><path class="cls-1" d="M506.24,72.27a40.68,40.68,0,0,1,4.61-3.38V64.18q-6.19,3.88-7.12,5a15.76,15.76,0,0,0-2.89,8.1,4.16,4.16,0,0,0,.74,2,7.58,7.58,0,0,0,2.69,1.38c2.18-2.18,4.37-4.33,6.56-6.48A18.9,18.9,0,0,1,506.24,72.27Z"/><path class="cls-1" d="M525.57,76.26q-1.34-2.51-2.43-10.09l-1.64-11.9q-.63-4.77-1.26-4.77t-3.09,3.4q-2.53,3.41-2.54,4.35a37.6,37.6,0,0,0,.39,4.38l-1.45.88v4.74c.67-.38,1.35-.77,2.08-1.16a69.19,69.19,0,0,0,1.49,9.54c-1.16-.2-2.23-.41-3.23-.63q-3.4,3.3-6.76,6.67l.44.15a36.29,36.29,0,0,0,6.1,1.64c.47,0,1.23-.83,2.27-2.5l1.65-2.66q1.1,6.18,3.52,9.23c1.4,1.78,4,2.66,7.67,2.66h2.34V78.37h-1.48A4.25,4.25,0,0,1,525.57,76.26Z"/><path class="cls-1" d="M537.71,78.37h-2V90.19h2q13.8,0,15.43-13.38H548C546.53,77.85,543.12,78.37,537.71,78.37Z"/><path class="cls-1" d="M548,57.72a1.15,1.15,0,0,0-.86.39c-.63.88-1.2,1.67-1.73,2.34l-3,4.78a5.6,5.6,0,0,0-.54,1.17c0,.26.23.63.7,1.1a37.82,37.82,0,0,1,5.6,6.61h5.09c0-.38,0-.75,0-1.13a35.89,35.89,0,0,0-1.64-8.46C550.46,60,549.24,57.72,548,57.72Z"/><polygon class="cls-1" points="540.45 102.48 545.69 108.03 551.17 102.48 545.69 97 540.45 102.48"/><path class="cls-1" d="M176.06,247.2l18.47-33.78L213,247.2l32.25,17.63H350.49A155.25,155.25,0,0,0,222.13,119.46v-75H172.35v74.43A155.26,155.26,0,0,0,40.54,263.3H146.61Z"/><path class="cls-1" d="M458.82,450.52H222.13V425.29A155.25,155.25,0,0,0,350.68,272.38c0-.86,0-1.71,0-2.57H239.21L213,284.14l-18.47,33.78-18.47-33.78-29-15.86H40.33c0,1.36-.06,2.73-.06,4.1A155.23,155.23,0,0,0,172.35,425.86V801.3H508.59v-564H458.82Z"/><circle class="cls-1" cx="397.15" cy="370.35" r="31.89"/><rect class="cls-1" x="494.74" y="118.55" width="60.26" height="11.55"/></svg>