<svg id="Layer_1" data-name="Layer 1" xmlns="http://www.w3.org/2000/svg" viewBox="0 0 595.28 841.89"><defs><style>.cls-1{fill:#231f20;}</style></defs><circle class="cls-1" cx="356.87" cy="135.61" r="38.66" transform="translate(201.73 484.43) rotate(-86.83)"/><rect class="cls-1" x="84.21" y="608.89" width="130.34" height="11.55"/><rect class="cls-1" x="78.21" y="733.38" width="134.34" height="11.55"/><rect class="cls-1" x="214.55" y="733.38" width="242.67" height="11.55"/><rect class="cls-1" x="459.22" y="733.38" width="79.32" height="11.55"/><path class="cls-1" d="M232.85,418.13a76,76,0,0,1-15.8,7.21c-26.63,9-53.94,9.25-81.08,3.7-13.52-2.76-27.34-6.93-39.38-13.5-7.62-4.15-12.86-8.78-15.91-14H66.16c8.89,34.25,21.18,67.34,38.49,98.67,16.8,30.38,39.84,54.55,72,68.35,52,22.3,108.23-.42,114.25-65.83,3.94-42.83-8.63-81.64-28.89-118.58a117.43,117.43,0,0,0-31.74-36.78c-7.64-5.88-30.45-15.27-39.87-8.65-.06,13,14.39,18.39,24.84,24.48l31.15,18.16C249.65,401.83,246.71,409.46,232.85,418.13Z"/><path class="cls-1" d="M497.39,275.89q6.75-7,13.62-13.83c-16.95-30.72-42.23-61.11-79.89-86.78l-14,20.09C417.54,195.65,476.38,241.14,497.39,275.89Z"/><path class="cls-1" d="M514.93,269.47c-4.56,4.57-9.1,9.16-13.57,13.82,3.32,7.3,4.44,13.86,2.3,19.08a34.33,34.33,0,0,1-7.91,10.81c-8.86,8.64-19.6,12-31.91,11.12C439.66,322.57,419,311.8,400,298.11c-39.14-28.23-77.67-57.32-116.23-86.34-5.84-4.4-33.89-24.2-36.87-25.61-7.37-3.47-14.45-7.59-21.85-11-25.61-11.68-51.91-20.81-80.6-20.42-40.1.55-74.8,20.56-85.54,63.42-4.76,19-7.07,38.94-8.28,58.58-1.85,30.35,1.94,60.51,7.76,90.31q2.6,13.32,5.78,26.44H77.78c-1.2-7.18.76-15.39,5.58-24.89a82.36,82.36,0,0,1,5.12-9.13c18.34-27.11,44-44.92,74.63-54.6,44.1-13.94,77.83-3.6,104.27,31,20.13,26.32,39.14,53.5,58.75,80.23,21.8,29.7,45.92,57.16,76.48,78.32,19.26,13.34,39.48,24.38,62.66,29.73,35.62,8.23,57.62-3.4,69.21-37.71A204.85,204.85,0,0,0,545,422.9C545.23,400.18,548.2,334.89,514.93,269.47Z"/><path class="cls-1" d="M99.54,682a54.37,54.37,0,0,0-8.68-1.3c-4-.44-6.63-1-8-1.67-1.12-.29-1.67-.7-1.67-1.23a3.68,3.68,0,0,1,.18-1.07h-3A23.39,23.39,0,0,0,77.11,684c0,2.79,1.86,4.7,5.58,5.71a59.86,59.86,0,0,0,8.9,1.09,51,51,0,0,1,8.54,1.3c1,.43,1.43,1,1.43,1.67,0,.07,0,.14,0,.22h2.65a28.46,28.46,0,0,0,.34-4.49,8.54,8.54,0,0,0-1.19-5A7,7,0,0,0,99.54,682Z"/><path class="cls-1" d="M78.69,700.26q-10.48,0-15.84-2c-.58-.21-1.12-.43-1.63-.67q-3.8,3.72-7.56,7.48A12.82,12.82,0,0,0,55,706.26q5.58,4.05,17.73,4.06,11.37,0,18.32-2.61,7.23-2.6,10.34-6.66a13.89,13.89,0,0,0,2.37-5.08h-3Q97.26,700.26,78.69,700.26Z"/><path class="cls-1" d="M54.17,686.72a28.19,28.19,0,0,1,1.15-7.09,10,10,0,0,0,.5-2.61q0-1.08-.93-1.08c-1,0-2.18,2.13-3.47,6.26a38.5,38.5,0,0,0-2,11.62,15.8,15.8,0,0,0,2.87,9.78q3.53-3.5,7.06-7A11,11,0,0,1,54.17,686.72Z"/><path class="cls-1" d="M106.13,670.66a9.48,9.48,0,0,0-3.26-7.17,10.48,10.48,0,0,0-7.3-3q-7.47,0-13.25,8.33a33.36,33.36,0,0,0-3.28,6H82.3a22,22,0,0,1,1.9-2.57c2.13-2.17,5.21-3.24,9.27-3.19,4.87,0,8.76.68,11.64,1.89a8.92,8.92,0,0,0,.87.36A1.17,1.17,0,0,0,106.13,670.66Z"/><path class="cls-1" d="M128.71,681.44c-1.54-2.6-2.66-3.91-3.33-3.91q-.51,0-2.89,4.06a28.89,28.89,0,0,0-2.46,4.7,2.38,2.38,0,0,0,.72.58q7.48,6,8.45,9.66h3.42c0-.68.07-1.37.07-2.07a23.1,23.1,0,0,0-1.44-8.17A32.52,32.52,0,0,0,128.71,681.44Z"/><path class="cls-1" d="M125.24,703.91q-4.12,4.25-15,9.38c-3.14,1.49-4.7,2.43-4.7,2.82q0,1.15,5.71,1.66c4,.39,7.17.58,9.48.58a4.47,4.47,0,0,0,3.11-1.09,22.72,22.72,0,0,0,3.84-5,33.26,33.26,0,0,0,4.74-13.74h-3.27C128.73,699.87,127.43,701.66,125.24,703.91Z"/><path class="cls-1" d="M148.25,675.65q0-3,.14-6.23L149,658l.22-7a23.81,23.81,0,0,0-.08-3.47q-.21-.87-.87-.87-1.23,0-6.8,5.86.36,5.94.36,12.16c0,.53,0,1.67-.06,3.4-.06,2-.08,3.7-.08,5.14,0,3.43-.07,5.25-.08,5.47a32.28,32.28,0,0,0,1.06,8.58L149,681A17,17,0,0,1,148.25,675.65Z"/><path class="cls-1" d="M149.92,682.87l-6.52,6.52a9.47,9.47,0,0,0,9.35,6.16h2.45V684.77l-2-.15A4.28,4.28,0,0,1,149.92,682.87Z"/><path class="cls-1" d="M172.42,676.23c-.25-1.49-.59-2.24-1-2.24s-.78.75-1,2.24q-1.68,8.38-8.48,8.39h-1.45v10.93c3.14,0,5.55-.7,7.21-2.1a12.76,12.76,0,0,0,3.73-6.58,14,14,0,0,0,2.74,6c1.4,1.81,4.12,2.71,8.18,2.71V684.62h-1.88Q173.87,684.62,172.42,676.23Z"/><polygon class="cls-1" points="166.48 711.69 171.47 716.69 176.4 711.55 171.55 706.55 166.48 711.69"/><path class="cls-1" d="M189.3,676.66q0,.87.72.87c.34,0,.87-.43,1.6-1.3,1.49-2,3-3,4.7-3a7.87,7.87,0,0,1,1.86.3v-8.37c-2.19.5-4.12,2.09-5.8,4.82C190.32,673.34,189.3,675.55,189.3,676.66Z"/><polygon class="cls-1" points="216.3 711.76 211.24 706.7 206.31 711.76 211.3 716.76 216.3 711.76"/><path class="cls-1" d="M213.35,687.68l.85-.52c3.9-2.41,6.61-3.84,8.1-4.27a18.11,18.11,0,0,1,4.85-.87,5.15,5.15,0,0,0,1.08.07,6.28,6.28,0,0,0,1,.07c.49-.09,1-.57,1.45-1.44l2.74-5.21a2.64,2.64,0,0,0,.51-.87c0-.43-.91-.77-2.75-1a91.64,91.64,0,0,1-24-6.44,32.37,32.37,0,0,0-7-2.13v9.11c.75.25,1.58.55,2.52.91q5.2,2.1,11.57,4a63.23,63.23,0,0,1-6.93,2.68C209.36,683.7,211.35,685.69,213.35,687.68Z"/><path class="cls-1" d="M205.15,682.39c-1.27.35-2.54.67-3.8.93a80.44,80.44,0,0,1-15.75,1.3v10.93h2.76a41.22,41.22,0,0,0,13.53-2.1,55.14,55.14,0,0,0,9.7-4.7C209.45,686.62,207.32,684.48,205.15,682.39Z"/><path class="cls-1" d="M242.57,653.58l2.89,26.13q1.53,13.38,2,14.32c.19.58.53.87,1,.87a.79.79,0,0,0,.73-.36,52.77,52.77,0,0,0,1.15-7.23l2.18-29.46.86-11c0-.48-.1-.73-.44-.73Q251.9,646.12,242.57,653.58Z"/><path class="cls-1" d="M325.78,677.82a18.36,18.36,0,0,0-1.31-7.16,18.74,18.74,0,0,0-3-4.71,6,6,0,0,0-1.88-1.66c-.39,0-.84.7-1.38,2.1a4.53,4.53,0,0,1-.72,1.37l-2,4.2a2.58,2.58,0,0,0-.65,1.81c0,.19.53.77,1.58,1.74,2.53,2.29,4.05,4.11,4.61,5.46h4.5A23,23,0,0,0,325.78,677.82Z"/><polygon class="cls-1" points="300.96 662.84 305.88 657.85 300.89 652.64 296.33 657.41 291.55 652.64 286.63 657.92 291.63 662.91 296.33 658.14 300.96 662.84"/><path class="cls-1" d="M272.37,673.41v-.66c0-.81-.28-1.23-.87-1.23s-1.31,1.16-2,3.48a22.9,22.9,0,0,0-1.23,7.82q0,6.09,3.19,9.78,3.56-3.58,7.16-7.14a11,11,0,0,1-1.6-.69,8.43,8.43,0,0,1-4.91-8,11.53,11.53,0,0,1,.2-2.32A8,8,0,0,1,272.37,673.41Z"/><path class="cls-1" d="M293.79,698.38q20.19,0,26.1-6a19.61,19.61,0,0,0,5.28-9.43h-4.29c-.84,1-3,1.93-6.46,2.74q-6.81,1.59-19.1,1.6a67.44,67.44,0,0,1-14.52-1.21q-4,3.93-7.93,7.9a12.16,12.16,0,0,0,.95.76Q279,698.38,293.79,698.38Z"/><path class="cls-1" d="M333.66,673.26c0,3.42-.05,5.24-.06,5.47a30.81,30.81,0,0,0,1.19,9q3.18-3.16,6.32-6.37a15.85,15.85,0,0,1-.85-5.73c0-2,0-4.06.14-6.23L341,658l.21-7a24.08,24.08,0,0,0-.07-3.47c-.14-.58-.44-.87-.86-.87q-1.25,0-6.81,5.86.36,5.94.37,12.16c0,.53,0,1.67-.08,3.4C333.69,670.1,333.66,671.82,333.66,673.26Z"/><path class="cls-1" d="M344.74,695.55h2.46V684.77l-2-.15a4.24,4.24,0,0,1-3-1.45q-3.27,3.33-6.58,6.62A9.4,9.4,0,0,0,344.74,695.55Z"/><polygon class="cls-1" points="368.92 650.03 364.07 644.97 359 649.96 364.07 655.02 368.92 650.03"/><path class="cls-1" d="M356.91,663.56a30.34,30.34,0,0,0-1.73,5h3.55a5.44,5.44,0,0,1,.5-.84,4.74,4.74,0,0,1,2.82-.87,6.42,6.42,0,0,1,2.71.6l5.72-5.73a7.79,7.79,0,0,0-6.41-3.41Q359.23,658.28,356.91,663.56Z"/><path class="cls-1" d="M355.1,684.62h-3.62v10.93h3.33q9.35,0,14.55-4.56,5.42-4.85,5.35-14a30.29,30.29,0,0,0-2.16-11.64,21.54,21.54,0,0,0-.95-2l-5.13,5.14a9.15,9.15,0,0,1,2.24,3.13c-1.4.1-2.93.15-4.56.15a27.31,27.31,0,0,1-4.28-.23,1.65,1.65,0,0,1-1.42-1.06h-3.71a24.12,24.12,0,0,0-.36,4.11c0,2.27.71,3.78,2.14,4.55s3.94,1.16,7.55,1.16a43.32,43.32,0,0,0,6.74-.43Q370.74,684.63,355.1,684.62Z"/><path class="cls-1" d="M391.14,687.31l2.18-29.46.86-11c0-.48-.1-.73-.44-.73q-1.08,0-10.41,7.46l2.89,26.13q1.53,13.38,2,14.32c.19.58.53.87,1,.87a.79.79,0,0,0,.73-.36A52.77,52.77,0,0,0,391.14,687.31Z"/><path class="cls-1" d="M411.61,679a10,10,0,0,0-1.51-1.66c-.35.14-1.36,1.49-3.05,4s-2.54,4.1-2.54,4.63c0,.24.56.82,1.67,1.74q7.53,6.28,7.53,9.91a4,4,0,0,1-.3,1.44h3.18c.06-.74.09-1.48.09-2.23a17.83,17.83,0,0,0-.14-2.75c.76,1,2.11,1.44,4,1.44V684.62h-1.8Q416.4,684.62,411.61,679Z"/><path class="cls-1" d="M409.55,704.16q-4.16,4.07-15.74,9.34c-2.85,1.26-4.28,2-4.28,2.39,0,.58,2.08,1.13,6.24,1.67a65.51,65.51,0,0,0,8.82.57,5.7,5.7,0,0,0,4.12-1.51,41.73,41.73,0,0,0,2.83-3.77,28.71,28.71,0,0,0,4.81-11.76h-4.08A22.64,22.64,0,0,1,409.55,704.16Z"/><polygon class="cls-1" points="431.96 657.99 427.25 663.06 431.96 667.91 436.3 663.21 440.43 667.98 445.13 663.06 440.57 657.99 436.15 662.62 431.96 657.99"/><path class="cls-1" d="M437,676.23c-.24-1.49-.58-2.24-1-2.24s-.78.75-1,2.24q-1.67,8.38-8.47,8.39h-1.45v10.93c3.13,0,5.54-.7,7.2-2.1a12.76,12.76,0,0,0,3.73-6.58,14.15,14.15,0,0,0,2.75,6q2.1,2.71,8.17,2.71V684.62h-1.87Q438.46,684.62,437,676.23Z"/><path class="cls-1" d="M480,683.76a3.5,3.5,0,0,0-.54.07,4.5,4.5,0,0,1-.83.07c-2,.19-4.1.29-6.22.29q-8.69,0-12.42-2.21c-2.35-1.39-3.58-3-3.7-4.86h-3.35a9.43,9.43,0,0,0-.73,3,5.56,5.56,0,0,0,2.39,4.48h-5.36v10.93q9.35,0,13.54-3.18a28.86,28.86,0,0,0,10.86,1.74,6,6,0,0,0,2.38-.36,12.43,12.43,0,0,0,1.74-2.76l1.45-2.67a11.12,11.12,0,0,0,1.52-4C480.7,684,480.45,683.76,480,683.76Z"/><path class="cls-1" d="M472.38,665.45a8.9,8.9,0,0,0-5.21-1.53,11.58,11.58,0,0,0-6.74,2.17,18.62,18.62,0,0,0-5.71,7c-.37.71-.68,1.37-1,2h3a3.8,3.8,0,0,1,1.15-1.28c1.44-1,4-1.45,7.74-1.45a56.64,56.64,0,0,1,10,1.45,22.81,22.81,0,0,1,2.24.51.66.66,0,0,0,.66-.73,14.26,14.26,0,0,0-1.89-3.69A11.69,11.69,0,0,0,472.38,665.45Z"/><path class="cls-1" d="M500.16,646.12q-1.1,0-10.42,7.46l2.89,26.13q1.53,13.38,2,14.32.3.87,1,.87a.77.77,0,0,0,.72-.36,52.77,52.77,0,0,0,1.15-7.23l2.18-29.46.87-11C500.64,646.37,500.5,646.12,500.16,646.12Z"/><path class="cls-1" d="M521.46,675.28c1.08-.66,2.25-1.34,3.51-2a34.56,34.56,0,0,0,.6,4.6h7.14c-.27-1.29-.53-2.8-.78-4.52l-1.53-11c-.37-3-.76-4.42-1.15-4.42s-1.29,1.05-2.86,3.15-2.35,3.44-2.35,4a34.77,34.77,0,0,0,.36,4.06c-2.22,1.34-4.08,2.5-5.6,3.47Z"/><path class="cls-1" d="M534.18,682.67a13.47,13.47,0,0,1-1-2.81h-7.24c.14.7.27,1.43.43,2.23q-7.1-1.23-10.07-3.11a36.85,36.85,0,0,1,3.45-2.59l-2.65-2.66a18,18,0,0,0-3.12,2.39,12.69,12.69,0,0,0-1.88,3.62,12.12,12.12,0,0,0-.79,3.87,3.93,3.93,0,0,0,.69,1.88q.54.74,5.53,2.32a33.57,33.57,0,0,0,5.65,1.52c.43,0,1.13-.77,2.1-2.32l1.52-2.46c.67,3.81,1.76,6.66,3.25,8.54,1.31,1.64,3.67,2.46,7.1,2.46h2.17V684.62h-1.38A3.9,3.9,0,0,1,534.18,682.67Z"/><path class="cls-1" d="M555.94,665.52a1.11,1.11,0,0,0-.79.36c-.58.82-1.11,1.54-1.59,2.17l-2.75,4.41a5.18,5.18,0,0,0-.5,1.09c0,.24.2.58.65,1a34.77,34.77,0,0,1,5.25,6.23h4.62c0-.38,0-.76,0-1.16a33.51,33.51,0,0,0-1.52-7.81C558.19,667.62,557.06,665.52,555.94,665.52Z"/><polygon class="cls-1" points="548.93 706.92 553.78 712.05 558.85 706.92 553.78 701.85 548.93 706.92"/><path class="cls-1" d="M546.39,684.62h-1.81v10.93h1.81q13,0,14.31-12.76h-4.41Q554.84,684.62,546.39,684.62Z"/></svg>