<svg id="Layer_1" data-name="Layer 1" xmlns="http://www.w3.org/2000/svg" viewBox="0 0 595.28 841.89"><defs><style>.cls-1{fill:#231f20;}</style></defs><rect class="cls-1" x="268.39" y="737.24" width="79.32" height="11.55"/><path class="cls-1" d="M449.33,391.28l-.72,1.64c-2.89,6.6-7.38,12.49-10.9,18.84-2.08,3.73-3.41,7.88-5.54,11.58-1.83,3.2-4.35,6-6.48,9-3.43,4.87-6.81,9.78-10.19,14.68a37.18,37.18,0,0,0-3.72,5.56,76.65,76.65,0,0,1-7.51,12.94l6.3,6.26c.53-1.05,1-2.12,1.6-3.1,1.5-2.57,2.81-5.27,4.44-7.76,5.53-8.39,11.89-16.26,16-25.53a21.49,21.49,0,0,1,2.28-3.17c1.16-1.69,2.38-3.35,3.4-5.12,2.49-4.36,4.88-8.77,7.31-13.16a33,33,0,0,0,2.16-3.89c2.21-5.7,4.34-11.42,6.72-17Q452,392.08,449.33,391.28Z"/><path class="cls-1" d="M133.5,307.61c4.12,5.05,9.95,6.27,15.89,7.28,8.51,1.45,15.49-2,21.28-7.63a77.48,77.48,0,0,0,10.44-13.11c3.38-5.08,6.78-10.23,6.9-16.82.05-2.71,1.26-5.42,2.1-8.08,2.65-8.37,4.76-16.8,4.61-25.7a32.89,32.89,0,0,1,1.47-9.3,24.12,24.12,0,0,0-9.46-26.55c-3.07.31-6.29.29-9.34,1-10.82,2.48-20.86,6.76-29.6,13.72-2.47,2-4.5,4.55-7.09,6.33-4.72,3.26-7.1,8-9.3,13-2.33,5.29-4.74,10.57-7.52,15.63-2.59,4.71-8.18,6.31-11.86,3.87a20.3,20.3,0,0,1-6.82-8.35q-3,3-6,6a20.89,20.89,0,0,0,3.69,9.34c2.12,2.82,4.62,5.53,6,8.7,3.08,7.11,8.07,13,12,19.46,2.49,4.12,5.34,7.54,9.92,9.32A7,7,0,0,1,133.5,307.61Z"/><path class="cls-1" d="M375.58,516.14c6.17-4.77,9.42-12,14.81-17.43,6.07-6.1,9-14.54,15-20.74l-6.11-6.08a108.9,108.9,0,0,1-9.72,9.86c-3.11,2.8-6,2.92-9.75.57a17.73,17.73,0,0,0-8.87-3,5,5,0,0,1-2.69-.59c-3.84-2.91-8.59-3.5-12.83-5.32-6.15-2.65-12.15-5.65-18.07-8.78-7.41-3.93-14.7-8.1-22-12.25a15.2,15.2,0,0,1-3.38-2.89c-4-4.21-7.68-8.67-11.81-12.7-9.29-9.06-16.8-19.45-23.49-30.49-.46-.76-.88-1.56-1.3-2.36-1.65-5.77-3.43-11.47-3.82-17.64-.55-8.56,1.93-17,.49-25.5a2.16,2.16,0,0,1,.05-.56c.29-4.26.55-8.53.9-12.78a40.72,40.72,0,0,1,.75-4.93c.63-2.91,1.58-5.76,2-8.7,1.05-7.39,2.39-14.67,5.71-21.47a17.3,17.3,0,0,0,1.3-4.85c.85-5.32,1.47-10.68,2.42-16a61.47,61.47,0,0,1,2.42-9.11c1.69-4.92,4.06-9.62,3.54-15.1-.13-1.38.56-2.88,1.05-4.27,2.46-7,5-14,7.5-21s4.95-14,7.46-21a4.53,4.53,0,0,1,1-1.35c3.25-3.64,4.14-8.2,5.3-12.74a29.35,29.35,0,0,1,3.74-9.24c4.4-6.48,8.95-12.81,11.28-20.43A20.08,20.08,0,0,1,330.4,174c.7-1.31,1.35-2.65,2-4,2-4.17,3.89-8.4,6-12.51,2.46-4.78,5.1-9.48,7.68-14.19.72-1.31,1.53-2.56,2.3-3.83,1.74-2.86,3.46-5.74,5.24-8.57,2.08-3.3,3.78-7,6.44-9.75,5.13-5.32,6.8-12.35,10.05-18.58,1.72-3.3.24-5.55-3.66-6.49s-7.65-1.53-11.51-2.09c-2.94-.42-6-1-8.87-.67a61.91,61.91,0,0,1-20-.12,16.22,16.22,0,0,0-4.42.26,49.39,49.39,0,0,1-5,.56c-7.47,0-15,.12-22.42-.1S279.43,95.28,272,94a7.33,7.33,0,0,0-2.24,0c-5.68.85-11.36,1.8-17,2.58-3.12.43-6.28.6-9.42.87-1.3.1-2.61.09-3.91.23q-9.14,1-18.27,2c-3.7.43-7.48.56-11.07,1.43-8.66,2.12-17.2,4.73-26.12,5.68a21.69,21.69,0,0,0-4.76,1.6,64.32,64.32,0,0,1-6.29,2.32,37.8,37.8,0,0,0-15.48,8.59c-4.92,4.25-10.13,8.2-14.75,12.76a79.14,79.14,0,0,0-11.52,13.58c-4.44,7-7.91,14.69-11.83,22.06-.52,1-1.25,1.84-1.85,2.78a34,34,0,0,0-3.18,5.23c-2.48,6.22-5.17,12.41-7,18.83-2.81,9.83-5,19.85-7.41,29.79a29,29,0,0,0-.18,13.81c.52,2.18-.23,4.71-.58,7.05-.17,1.12-.72,2.25-1,3.34,1.58-1.57,3.17-3.12,4.76-4.68a18.92,18.92,0,0,1,.48-5.86c.93-3.6,1.49-7.3,2.45-10.89a66,66,0,0,1,3.23-10c3-6.78,8.13-12,13.5-17a51.52,51.52,0,0,1,16.36-10.46c2.94-1.12,6.11-2.37,8.32-4.46,3.42-3.22,7.56-4.8,11.64-6.51a150.07,150.07,0,0,1,14.2-5c6.57-2,13.22-3.81,19.82-5.73,3.39-1,6.7-2.48,10.15-2.93,10.86-1.42,21.78-2.49,32.68-3.61a27.25,27.25,0,0,1,5,.16c3.7.31,7.4.68,11.1,1.05,2,.2,4.05.48,6.08.66a28.09,28.09,0,0,0,3.89.11c4.26-.25,8.52-.82,12.79-.81,6.06,0,9.34,4,8.2,9.92a17,17,0,0,1-2.93,5.87c-2.18,3.23-4.6,6.3-6.92,9.44-.67.9-1.29,1.83-2,2.69-5.87,7.17-11.77,14.32-17.63,21.5-.58.71-.91,1.62-1.43,2.4q-9,13.5-17.93,27c-2.78,4.18-5,8.73-8.77,12.22a8.34,8.34,0,0,0-1.32,2.45c-2.93,5.8-5.36,11.93-8.92,17.31-5.17,7.82-9.93,15.78-13.11,24.6-3.34,9.27-10.26,16.95-11.91,27a8.21,8.21,0,0,1-.69,1.52c-1.14,3-2.35,5.88-3.35,8.87-1.92,5.77-1.23,12.26-4.83,17.58a3.36,3.36,0,0,0-.26,1.64q-.64,11.16-1.25,22.33c-.08,1.49.27,3.07-.11,4.46-.93,3.48.07,6.56,1.18,9.77a19.23,19.23,0,0,1,1.21,7.08,19.67,19.67,0,0,0,2.43,11.28c1.29,2.25,2,4.82,3.14,7.17,1.84,3.84,3.8,7.63,5.72,11.44,1,2,2.61,3.89,2.9,6,.83,5.94,4.45,10.14,8,14.47.94,1.15,1.91,2.29,2.78,3.49,4.61,6.31,9.34,12.53,13.74,19,6,8.83,13.87,16.06,21.68,23.13,5.73,5.2,12.7,9.09,19.38,13.13a10.31,10.31,0,0,0,7.78.75c4.11,3.7,9.2,6.06,14.09,8.66a32.49,32.49,0,0,1,9,6.57,18.23,18.23,0,0,0,4.28,3.5c6.58,3.81,13.95,6.14,20.19,10.66a10.81,10.81,0,0,0,4.14,1.6c8.55,1.78,17.1,3.61,25.71,5,1.78.3,4-.71,5.7-1.62a12.26,12.26,0,0,0,3.67-3.41c5.34-6.93,12.37-12.43,16.9-20A10.81,10.81,0,0,1,375.58,516.14Z"/><path class="cls-1" d="M487.75,311.47a20.78,20.78,0,0,1,1.48-4.75c3.23-7.18,4.7-14.88,6.61-22.43,1.46-5.71.16-11.69,1.23-17.55,1.39-7.67,1.85-15.5,3-23.21.88-5.91,1.6-11.68.75-17.75-.65-4.66-2.46-9.47-.53-14.31a3.77,3.77,0,0,0,0-1.67c-.72-6.64-1.34-13.3-2.22-19.92-.44-3.3-1.42-6.53-2-9.81-1.12-5.84-1.88-11.77-4.69-17.16a6.54,6.54,0,0,1-.81-3.21c.19-3.65-1.2-6.86-2.19-10.26-3.17-11-9.4-20.28-16.07-29.23a20.7,20.7,0,0,0-24.59-6.42c-3.41,1.44-7.12,2.15-10.59,3.47-2.93,1.12-6.2,2.09-8.45,4.09-8.34,7.41-17.6,14-23.35,23.92-.81,1.41-2.37,2.38-3.39,3.7-2.05,2.64-4.37,5.18-5.84,8.13-2.16,4.3-3.55,9-5.51,13.39s-3.85,8.9-3.7,13.93a8.5,8.5,0,0,1-.58,2.72c-1.56,4.87-1.71,9.88-1.57,15A24.42,24.42,0,0,0,391,218.37a59.29,59.29,0,0,1,6.67,8.95c3.37,5.58,6.38,11.36,11.4,15.73a12.05,12.05,0,0,1,2.13,2.58c3.46,5.3,6.95,10.59,10.28,16,4.41,7.12,8.87,14.22,13,21.52a208.92,208.92,0,0,1,9.79,19.43c1.89,4.4,2.35,9.4,4.17,13.83,2.69,6.57,4.29,13.38,6,20.23,1.64,6.61,2.87,13.09,1.19,19.84a6.08,6.08,0,0,0,0,2.78c2.06,8.85-.09,16.88-3.18,24.64,1.8.56,3.57,1.19,5.33,1.87.8-1.64,1.62-3.28,2.51-4.89,3.9-7.1,5.22-15.57,11.3-21.55a1.22,1.22,0,0,0,.28-.48c3.24-8.44,8.56-16.19,8.52-25.74a6.61,6.61,0,0,1,.9-2.62A75.3,75.3,0,0,0,487.75,311.47Z"/><path class="cls-1" d="M354,253.47c-4.89,1.34-7.9,4.36-10,8.64-2.9,6-6.53,11.61-9.28,17.73-3.43,7.67-4.6,15.71-5.12,23.84-.26,4.17,1,8.44,1.62,12.65.83,5.5,2,11,2.48,16.49a36.46,36.46,0,0,0,2.16,10.28c1.77,4.67,3.13,9.5,4.63,14.28.78,2.47,1.27,5.06,2.23,7.46,2.06,5.16,4.35,10.22,6.5,15.34a5.42,5.42,0,0,0,5.16,3.66c2.33-.06,5.22-.31,6.85-1.69,4.64-3.9,9.62-7.64,12.05-13.62a14.19,14.19,0,0,1,3.31-5.09c2.72-2.46,3.57-5.55,4-8.91.21-1.47.2-3,.54-4.42,1.71-7.23,3.35-14.48,5.3-21.64,2.21-8.06.32-15.87-1-23.71-.59-3.47-1.57-6.88-2.44-10.29-1.45-5.79-3.1-11.48-6.55-16.49-3.7-5.37-7.34-10.78-10.8-16.31C363,257.31,359.42,254.4,354,253.47Z"/><path class="cls-1" d="M120.27,684.83c-1.74-.88-4.38-1.31-7.91-1.31l-11-.09a19.91,19.91,0,0,1-4.35-.43.66.66,0,0,1-.15,0H90.2a11.78,11.78,0,0,0-.1,1.45c.07,2.2.84,3.71,2.35,4.52q2.7,1.31,8.17,1.3h13.21a7.41,7.41,0,0,1,3.66.58h4.94c0-.51.09-1,.09-1.53C122.52,687.08,121.77,685.58,120.27,684.83Z"/><path class="cls-1" d="M70.47,692.12a13,13,0,0,1-7.56-12.42,20.35,20.35,0,0,1,1-5.48,11.22,11.22,0,0,0,.61-2.78c0-.87-.47-1.3-1.39-1.3-1.1,0-2.26,2.38-3.48,7.12a50.56,50.56,0,0,0-1.91,12.26q0,7.2,4.81,11.33L71,692.36C70.82,692.28,70.63,692.21,70.47,692.12Z"/><path class="cls-1" d="M107.31,695.34a114,114,0,0,1-12.51.7c-9.07,0-16.07-.87-21.1-2.59l-9,9c4.47,2.68,11.44,4,21,4q17.63,0,27.24-3.7c4.9-1.88,7.91-5,9.06-9.2h-6.32A32.44,32.44,0,0,1,107.31,695.34Z"/><path class="cls-1" d="M102.62,669.27a29.5,29.5,0,0,0-8.35,6.08,17.31,17.31,0,0,0-3.33,5h4.2c.8-1.61,3.75-2.35,8.88-2.2l21.28.69V665.7h-4.6Q109.75,665.7,102.62,669.27Z"/><path class="cls-1" d="M154.55,603.75a18.6,18.6,0,0,0-.43-9.82l-1.75.87c-.23,5.09-1.21,7.65-2.94,7.65-1,0-1.66-.64-2-1.92a19.92,19.92,0,0,1-.53-3.48l-2.35,1c-.28,2.09-.49,3.6-.6,4.52-.59,2.32-1.71,3.48-3.39,3.48-1,0-1.48-1-1.48-3a23.44,23.44,0,0,1,.26-3.22,3.19,3.19,0,0,0-2.78,2.35,15.07,15.07,0,0,0-.35,4,9.14,9.14,0,0,0,.7,3.65c.57,1.45,1.44,2.17,2.6,2.17q4.35,0,6.69-6.17c.64.76,1.11,1.28,1.4,1.57a4.06,4.06,0,0,0,2.69.7C152.44,608,153.85,606.58,154.55,603.75Z"/><path class="cls-1" d="M140.38,627.29A96.35,96.35,0,0,1,140.9,639c0,6.53,0,10.76,0,12.73h7.61c.19-3.88.36-7.24.5-10q.7-15.91.71-17.73c0-2.38-.44-3.57-1.31-3.57C147.94,620.49,145.25,622.77,140.38,627.29Z"/><path class="cls-1" d="M149.16,661.53a24.69,24.69,0,0,1-.7-7.08H141q-.45,8.26-2.43,9.78-1.38,1.47-5.39,1.47h-2v13.13h2.44a12.23,12.23,0,0,0,10.86-6.09c2.55,4.07,5.62,6.09,9.22,6.09h3.73V665.7h-2.78C151.91,665.7,150.08,664.32,149.16,661.53Z"/><path class="cls-1" d="M178.6,665.88c-1.93-4-2.91-7.09-2.91-9.3,0-3.13,1.28-4.66,3.83-4.61a4.73,4.73,0,0,1,1.35.24c1.17-1.15,2.32-2.3,3.47-3.45a7.94,7.94,0,0,0-4.82-1.65,9.65,9.65,0,0,0-7.44,3.08,11.1,11.1,0,0,0-2.82,7.78c0,1.34,0,2.43.09,3.31a3.86,3.86,0,0,1,.09.52q0,3.9-8.87,3.9v13.13h.61a8.15,8.15,0,0,0,6.26-2.74,17.2,17.2,0,0,0,3.73-7.69A39.83,39.83,0,0,0,174.8,675c1.95-1.95,3.9-3.88,5.86-5.82A17.52,17.52,0,0,1,178.6,665.88Z"/><path class="cls-1" d="M187.08,651.54c-.25-.33-.51-.64-.77-.94l-3.05,3a12.79,12.79,0,0,1,2.6,3.69,22.73,22.73,0,0,1,2.61,10.13q0,4.42-3.3,4.43a4.65,4.65,0,0,1-2.56-.8q-3.08,3-6.13,6.09c2.15,2.37,4.41,3.57,6.78,3.57a8.09,8.09,0,0,0,7.12-3.73,13.19,13.19,0,0,0,2.35-8,34.85,34.85,0,0,0-1.66-9.21A23.22,23.22,0,0,0,187.08,651.54Z"/><path class="cls-1" d="M216.12,660.75q.18-1.9.27-3.12v-1.14c0-1.27-.32-1.9-1-1.9-.87,0-1.71,1.56-2.52,4.51a33,33,0,0,0-1.39,8.7q.07,9.9,6.35,14.16a22,22,0,0,0,7.61,3.2V671.79Q216.14,668.82,216.12,660.75Z"/><path class="cls-1" d="M266.19,668.36c-1.41.6-2.88,1.17-4.44,1.69a70.69,70.69,0,0,1-22.6,3.48,54.07,54.07,0,0,1-11-1v13.2a57.67,57.67,0,0,0,9.77.69,64.65,64.65,0,0,0,24.47-4.82,40.66,40.66,0,0,0,10.7-6.32Z"/><polygon class="cls-1" points="244.9 633.81 250.63 639.38 256.8 633.21 250.63 627.21 244.98 632.77 239.33 627.21 233.33 633.21 239.25 639.38 244.9 633.81"/><path class="cls-1" d="M284.43,657.63a1.15,1.15,0,0,0-1.21-1.14q-.71,0-3.73,3.13a37.56,37.56,0,0,1-10.68,7.54l6.29,6.27a28.58,28.58,0,0,0,4.12-5.11q2.34,10.51,11.91,10.51h1.74V665.7H290a9.91,9.91,0,0,1-4.52-1C283.8,663.85,283,663,283,662c.17-.58.38-1.18.61-1.82A8.25,8.25,0,0,0,284.43,657.63Z"/><polygon class="cls-1" points="315.07 629.38 308.98 623.38 303.16 629.29 309.15 635.46 315.07 629.38"/><path class="cls-1" d="M296,665.7v13.13h2.18q15.71,0,17.2-15.64h-5.12q-1.26,2.52-12.08,2.51Z"/><path class="cls-1" d="M303.68,653.63a47.65,47.65,0,0,1,5.94,6.87h5.95c0-.26,0-.52,0-.79a40.13,40.13,0,0,0-1.83-9.39q-2.08-7.56-4.08-7.56a1.34,1.34,0,0,0-1,.44c-.69,1-1.33,1.86-1.91,2.6l-3.3,5.31a5.66,5.66,0,0,0-.61,1.3C302.9,652.7,303.16,653.11,303.68,653.63Z"/><path class="cls-1" d="M341.78,689.18q-5,4.86-18.9,11.21-5.13,2.25-5.13,2.86c0,.7,2.49,1.36,7.48,2a80.4,80.4,0,0,0,10.6.7,6.89,6.89,0,0,0,4.95-1.83,49.58,49.58,0,0,0,3.39-4.52,34,34,0,0,0,5.89-15.11H345.7A24.66,24.66,0,0,1,341.78,689.18Z"/><path class="cls-1" d="M344.26,658.93a11.87,11.87,0,0,0-1.82-2c-.41.18-1.63,1.79-3.66,4.87s-3,4.92-3,5.56c0,.29.67,1,2,2.09q9,7.56,9,11.9a3.64,3.64,0,0,1,0,.45h3.56c0-.47,0-.94,0-1.41a19.88,19.88,0,0,0-.17-3.3q1.4,1.74,4.86,1.74V665.7h-2.17Q350,665.7,344.26,658.93Z"/><polygon class="cls-1" points="370.41 639.28 365.38 633.73 359.72 639.81 365.38 645.63 370.59 639.98 375.55 645.72 381.2 639.81 375.72 633.73 370.41 639.28"/><path class="cls-1" d="M371.46,655.63c-.29-1.8-.7-2.7-1.22-2.7s-.92.9-1.21,2.7q-2,10.08-10.17,10.07h-1.74v13.13c3.76,0,6.65-.84,8.65-2.52s3.48-4.31,4.47-7.91a17,17,0,0,0,3.31,7.17q2.52,3.27,9.82,3.26V665.7H381.1C375.84,665.7,372.61,662.35,371.46,655.63Z"/><path class="cls-1" d="M399.52,655.63c-.28-1.8-.69-2.7-1.21-2.7s-.93.9-1.21,2.7q-2,10.08-10.17,10.07h-1.74v13.13c3.76,0,6.65-.84,8.65-2.52s3.48-4.31,4.47-7.91a17,17,0,0,0,3.31,7.17q2.52,3.27,9.82,3.26V665.7h-2.27Q401.27,665.7,399.52,655.63Z"/><polygon class="cls-1" points="398.31 635.46 404.14 629.29 398.31 623.29 392.31 629.21 398.31 635.46"/><path class="cls-1" d="M432.8,655.51a1.22,1.22,0,0,1,.74-.37c-.3-1.39-.7-3-1.21-4.82q-2.08-7.56-4.08-7.56a1.34,1.34,0,0,0-1,.44c-.69,1-1.33,1.86-1.92,2.6l-3.29,5.31a5.66,5.66,0,0,0-.61,1.3c0,.29.26.7.78,1.22a51.7,51.7,0,0,1,5.81,6.65C429.65,658.71,431.25,657.14,432.8,655.51Z"/><path class="cls-1" d="M434.16,659.71a14.83,14.83,0,0,0-.11-1.63c-1.74,1.8-3.53,3.54-5.31,5.3q-1.56,2.32-12,2.32H414.6v13.13h2.18Q434.15,678.83,434.16,659.71Z"/><polygon class="cls-1" points="427.73 689.7 422.43 684.13 417.03 690.13 422.68 696.04 427.73 690.56 432.77 696.04 438.5 690.13 432.77 684.13 427.73 689.7"/><path class="cls-1" d="M460.75,619.47q-1.31,0-12.51,8.95l3.47,31.38q1.83,16.08,2.44,17.21c.23.69.63,1,1.22,1a.92.92,0,0,0,.86-.44,62.48,62.48,0,0,0,1.39-8.69l2.61-35.37,1-13.21C461.33,619.76,461.15,619.47,460.75,619.47Z"/><path class="cls-1" d="M496.52,642.24a41.83,41.83,0,0,0,.44,4.87l-1.89,1.15v5.25c.82-.48,1.68-1,2.58-1.45a42.59,42.59,0,0,0,.77,5.86H507q-.53-2.45-1-5.77l-1.83-13.21c-.46-3.53-.93-5.31-1.39-5.31s-1.55,1.26-3.43,3.79S496.52,641.55,496.52,642.24Z"/><path class="cls-1" d="M508.69,663.36a14.23,14.23,0,0,1-1-2.75h-8.75c.12.65.26,1.33.4,2q-8.52-1.47-12.09-3.73a46.23,46.23,0,0,1,5.16-3.78v-5.23q-6.93,4.33-7.94,5.58a17.36,17.36,0,0,0-3.21,9,4.64,4.64,0,0,0,.82,2.26c.44.58,2.65,1.5,6.65,2.78a40.79,40.79,0,0,0,6.78,1.83q.78,0,2.52-2.79l1.83-3q1.21,6.87,3.9,10.25c1.57,2,4.41,3,8.52,3h2.61V665.7h-1.65A4.73,4.73,0,0,1,508.69,663.36Z"/><path class="cls-1" d="M535.76,650.32q-2.09-7.56-4.08-7.56a1.34,1.34,0,0,0-1,.44c-.69,1-1.33,1.86-1.91,2.6l-3.3,5.31a5.66,5.66,0,0,0-.61,1.3c0,.29.26.7.78,1.22,3.47,3.51,5.59,6,6.4,7.66h5.46c0-.52.05-1,.05-1.58A40.13,40.13,0,0,0,535.76,650.32Z"/><path class="cls-1" d="M520.21,665.7H518v13.13h2.18q15.31,0,17.13-14.85h-5.76C530,665.13,526.2,665.7,520.21,665.7Z"/><polygon class="cls-1" points="523.25 692.47 529.07 698.64 535.15 692.47 529.07 686.39 523.25 692.47"/></svg>