<svg id="Layer_1" data-name="Layer 1" xmlns="http://www.w3.org/2000/svg" viewBox="0 0 595.28 841.89"><defs><style>.cls-1{fill:#231f20;}</style></defs><polygon class="cls-1" points="135.96 256.37 178.87 256.37 178.87 148.07 29.78 148.07 29.78 306.9 135.96 306.9 135.96 256.37"/><polygon class="cls-1" points="240.72 306.9 346.89 306.9 346.89 148.07 187.1 148.07 187.1 256.37 240.72 256.37 240.72 306.9"/><polygon class="cls-1" points="178.87 361.84 135.96 361.84 135.96 315.13 29.78 315.13 29.78 470.14 178.87 470.14 178.87 361.84"/><polygon class="cls-1" points="346.89 315.13 240.72 315.13 240.72 361.84 187.1 361.84 187.1 470.14 240.72 470.14 240.72 683.91 405.15 683.91 405.15 575.61 346.89 575.61 346.89 315.13"/><polygon class="cls-1" points="459.32 575.61 413.38 575.61 413.38 683.91 565.5 683.91 565.5 359.01 459.32 359.01 459.32 575.61"/><rect class="cls-1" x="459.32" y="148.07" width="106.18" height="106.18"/><rect class="cls-1" x="23.18" y="698.75" width="104.28" height="10.2"/><path class="cls-1" d="M75.42,653.2a54.37,54.37,0,0,0-8.68-1.3c-4-.44-6.63-1-8-1.67-1-.25-1.53-.6-1.64-1.05H53.82a22.72,22.72,0,0,0-.82,6c0,2.8,1.85,4.7,5.57,5.71A58.63,58.63,0,0,0,67.46,662a53,53,0,0,1,8.54,1.3c1,.44,1.44,1,1.44,1.67a3.29,3.29,0,0,1,0,.44H80a28.58,28.58,0,0,0,.37-4.71,8.53,8.53,0,0,0-1.19-5A7,7,0,0,0,75.42,653.2Z"/><path class="cls-1" d="M54.59,671.42c-7,0-12.27-.64-15.84-1.95q-8.68-3.11-8.68-11.57a28.14,28.14,0,0,1,1.16-7.08,10.64,10.64,0,0,0,.5-2.61c0-.72-.31-1.08-.94-1.08-1,0-2.16,2.13-3.47,6.25A38.72,38.72,0,0,0,25.37,665q0,8.38,5.57,12.44t17.72,4.05q11.34,0,18.3-2.61c4.81-1.73,8.27-4,10.34-6.65a14.15,14.15,0,0,0,2.37-5.1h-3Q73.16,671.43,54.59,671.42Z"/><path class="cls-1" d="M82,641.84a9.44,9.44,0,0,0-3.26-7.15,10.41,10.41,0,0,0-7.3-3q-7.45,0-13.23,8.32a31.46,31.46,0,0,0-3.85,7.44h3.06a16.58,16.58,0,0,1,2.66-4c2.13-2.16,5.21-3.23,9.26-3.17A31.72,31.72,0,0,1,81,642.06a5.87,5.87,0,0,0,.86.37A1.29,1.29,0,0,0,82,641.84Z"/><path class="cls-1" d="M104.57,652.62q-2.32-3.9-3.33-3.9c-.34,0-1.3,1.35-2.9,4a29.41,29.41,0,0,0-2.46,4.7,2.61,2.61,0,0,0,.73.58q7.64,6.15,8.49,9.81h3.37c0-.73.07-1.47.07-2.22a23,23,0,0,0-1.44-8.17A33.74,33.74,0,0,0,104.57,652.62Z"/><path class="cls-1" d="M101.1,675.07q-4.14,4.24-15,9.37-4.7,2.25-4.7,2.82c0,.78,1.9,1.33,5.72,1.67q6,.57,9.47.57a4.55,4.55,0,0,0,3.11-1.08,23.33,23.33,0,0,0,3.83-5,33.29,33.29,0,0,0,4.75-13.81h-3.25C104.63,671,103.32,672.79,101.1,675.07Z"/><path class="cls-1" d="M124.09,646.83q0-3,.14-6.21l.59-11.43.21-6.94a24,24,0,0,0-.07-3.47c-.14-.58-.44-.87-.87-.87q-1.23,0-6.8,5.86.36,5.93.37,12.14c0,.53,0,1.67-.08,3.4,0,2-.07,3.69-.07,5.14,0,3.42-.06,5.24-.07,5.46a35.52,35.52,0,0,0,.72,7.31l6.3-6.3A20.25,20.25,0,0,1,124.09,646.83Z"/><path class="cls-1" d="M125.05,652.83l-6.34,6.34c1.66,5,4.94,7.55,9.87,7.55H131V656l-2-.15A4.48,4.48,0,0,1,125.05,652.83Z"/><path class="cls-1" d="M145,647.42c-.24-1.5-.57-2.25-1-2.25s-.77.75-1,2.25q-1.67,8.39-8.46,8.38H133v10.92q4.71,0,7.2-2.09a12.69,12.69,0,0,0,3.72-6.58,14.26,14.26,0,0,0,2.76,6q2.09,2.72,8.17,2.71V655.8H153Q146.41,655.8,145,647.42Z"/><polygon class="cls-1" points="139.02 682.85 144.02 687.84 148.94 682.71 144.09 677.72 139.02 682.85"/><path class="cls-1" d="M160.55,647.85q0,.87.72.87c.34,0,.87-.44,1.59-1.3,1.5-2,3.06-3,4.71-3a4.79,4.79,0,0,1,.78.08v-7.81a10.47,10.47,0,0,0-4.73,4.48Q160.54,646.18,160.55,647.85Z"/><path class="cls-1" d="M177.4,653.29c-1.61.48-3.21.89-4.81,1.21a80.36,80.36,0,0,1-15.73,1.3v10.92h2.75a41.42,41.42,0,0,0,13.52-2.09,56.8,56.8,0,0,0,10.45-5.16Z"/><path class="cls-1" d="M185.12,658.52l.31-.19q5.85-3.62,8.1-4.26a18,18,0,0,1,4.84-.87,5.27,5.27,0,0,0,1.09.07,6,6,0,0,0,1,.08c.48-.1,1-.58,1.45-1.45l2.74-5.21a3.06,3.06,0,0,0,.51-.86c0-.44-.92-.78-2.75-1a92.36,92.36,0,0,1-24-6.44c-3.71-1.44-6.21-2.17-7.52-2.17a6.48,6.48,0,0,0-.77.06v8.67c1,.3,2.31.74,3.81,1.33q5.2,2.1,11.57,4a63.49,63.49,0,0,1-6.21,2.46Z"/><polygon class="cls-1" points="177.54 682.93 182.53 687.91 187.53 682.93 182.46 677.87 177.54 682.93"/><path class="cls-1" d="M211.06,624.78,214,650.89q1.52,13.38,2,14.32c.2.57.53.87,1,.87a.77.77,0,0,0,.72-.37,51,51,0,0,0,1.16-7.23L221,629l.86-11c0-.48-.09-.72-.43-.72Q220.38,617.33,211.06,624.78Z"/><path class="cls-1" d="M83.77,571.83c0-4.06-1-7.33-2.86-9.85s-3-3.76-3.43-3.76-.77.73-1.45,2.18c-.29.72-.48,1.18-.58,1.37l-2,4.12-.22.44-.5,1.44a6.32,6.32,0,0,0,1.66,1.67,20.09,20.09,0,0,1,4.42,5.28h4.77A21.25,21.25,0,0,0,83.77,571.83Z"/><polygon class="cls-1" points="56.43 610.59 61.49 605.45 56.43 600.53 51.52 605.45 56.43 610.59"/><path class="cls-1" d="M83.25,576.48h-4.2q-.67,1.82-6.67,3.22-6.76,1.6-19.13,1.6a72.29,72.29,0,0,1-13.25-1v11.16a69.62,69.62,0,0,0,11.59.81q20.68,0,26.43-6.11A20.34,20.34,0,0,0,83.25,576.48Z"/><path class="cls-1" d="M30.11,568.5a12.53,12.53,0,0,0,.15-1.74c0-.82-.27-1.23-.8-1.23-.73,0-1.44,1.15-2.14,3.47a26.94,26.94,0,0,0-1.05,7.81q0,9.77,8.39,13.24a23.15,23.15,0,0,0,3.58,1.09V579.93a15.75,15.75,0,0,1-3.36-1.24,8.52,8.52,0,0,1-4.92-8c0-.15,0-.48.08-1S30.11,568.78,30.11,568.5Z"/><path class="cls-1" d="M91.43,567.2c0,3.41-.06,5.23-.07,5.46a30.93,30.93,0,0,0,1.23,9.12l6.33-6.33a15.63,15.63,0,0,1-.91-5.87q0-3,.14-6.22l.59-11.42.21-7a24.08,24.08,0,0,0-.07-3.47q-.21-.87-.87-.87-1.23,0-6.8,5.86.36,5.93.37,12.15c0,.53,0,1.66-.07,3.4C91.45,564,91.43,565.75,91.43,567.2Z"/><path class="cls-1" d="M102.5,589.47H105V578.69l-2-.14A4.29,4.29,0,0,1,99.85,577l-6.56,6.57A9.41,9.41,0,0,0,102.5,589.47Z"/><path class="cls-1" d="M107,578.55v10.92a61.16,61.16,0,0,0,9.55-.72q7.31-1.15,14.83-7l2.42-1.86q-2.69-2.78-5.45-5.47a47.33,47.33,0,0,1-7,2.77A43.88,43.88,0,0,1,110,578.55Z"/><path class="cls-1" d="M142.61,574.36c0-1.36.74-2,2.24-2l.65.07a8.48,8.48,0,0,0,1.08.07,22.77,22.77,0,0,0,3.18.29,6.31,6.31,0,0,0,1.38-.25,1.32,1.32,0,0,0,.44-.68l.28-.37,2.61-5.35a2.69,2.69,0,0,0,.36-1.3c0-.29-.08-.44-.22-.44-.57,0-1.09-.09-1.52-.14a97.75,97.75,0,0,1-24.66-4.85,30.66,30.66,0,0,0-6.78-1.57v9l.85.22,13.31,3.62c-2.13,1.14-4.06,2.13-5.82,3,1.74,1.71,3.47,3.44,5.17,5.2l4.84-3.71a21.46,21.46,0,0,0-.21,2.75c0,.54,0,1.06.06,1.57a29.9,29.9,0,0,1,3.17-3.76A2.41,2.41,0,0,1,142.61,574.36Z"/><path class="cls-1" d="M112.67,569q2.31-2.89,5-2.89a12.5,12.5,0,0,1,2.22.31v-8.54q-5.19.71-8.37,7.72a12.84,12.84,0,0,0-1.37,3.91c0,.63.28.94.86.94C111.39,570.45,111.94,570,112.67,569Z"/><polygon class="cls-1" points="128 605.67 132.84 610.66 137.83 605.59 132.84 600.61 128 605.67"/><path class="cls-1" d="M144.37,576.86a30.31,30.31,0,0,0-4.1,5.15,11.42,11.42,0,0,0,.75,2.18q1.65,3.62,7.44,4.7a57.86,57.86,0,0,0,9.26.58V578.55c-4.38,0-7.26-.17-8.6-.36A13.61,13.61,0,0,1,144.37,576.86Z"/><path class="cls-1" d="M175.44,577.24a80.21,80.21,0,0,1-15.73,1.31v10.92h2.75a41.22,41.22,0,0,0,13.53-2.1,60.3,60.3,0,0,0,11.75-6l-5.91-5.87A56.46,56.46,0,0,1,175.44,577.24Z"/><path class="cls-1" d="M166.48,563.94c-2,3.33-3.08,5.54-3.08,6.66,0,.57.24.86.73.86.33,0,.87-.43,1.58-1.3,1.5-2,3.07-3,4.71-3a20.86,20.86,0,0,1,6,1.66l6.94-6.94-2.09-.8c-3.71-1.45-6.21-2.17-7.52-2.17Q169.54,559,166.48,563.94Z"/><path class="cls-1" d="M205.28,567.55a87.31,87.31,0,0,1-20.11-4.95l-7,7c3.1,1.19,6.47,2.34,10.14,3.42q-2.34,1.07-4.66,1.91l5.6,5.57a37.58,37.58,0,0,1,7.09-3.65,18,18,0,0,1,4.84-.87,5.33,5.33,0,0,0,1.09.07,5.11,5.11,0,0,0,1,.08c.49-.1,1-.58,1.45-1.45l2.75-5.2a2.75,2.75,0,0,0,.5-.87C208,568.13,207.11,567.8,205.28,567.55Z"/><path class="cls-1" d="M34.46,510a34.34,34.34,0,0,1,3.67-2.74c-.88-.89-1.75-1.78-2.64-2.66a19.69,19.69,0,0,0-3.35,2.54,12.44,12.44,0,0,0-1.88,3.62,12.12,12.12,0,0,0-.79,3.87,3.93,3.93,0,0,0,.68,1.88,7.22,7.22,0,0,0,2.51,1.27q3-3,6-6A17.34,17.34,0,0,1,34.46,510Z"/><path class="cls-1" d="M52.32,513.68c-.82-1.54-1.57-4.66-2.24-9.33l-1.52-11c-.38-2.94-.77-4.42-1.16-4.42s-1.29,1.05-2.85,3.15-2.35,3.44-2.35,4a34.64,34.64,0,0,0,.36,4q-3.3,2-5.56,3.45c.89.89,1.77,1.79,2.65,2.68,1.07-.66,2.23-1.33,3.48-2a65.21,65.21,0,0,0,1.38,8.82c-1.41-.25-2.68-.51-3.85-.8q-3.09,3-6.16,6.13l1.19.38a33.33,33.33,0,0,0,5.64,1.52q.64,0,2.1-2.31L45,515.56q1,5.72,3.25,8.53,1.95,2.46,7.09,2.46h2.16V515.63H56.08A4,4,0,0,1,52.32,513.68Z"/><path class="cls-1" d="M61.26,515.63H59.45v10.92h1.81q12.84,0,14.27-12.55H71Q69.19,515.64,61.26,515.63Z"/><path class="cls-1" d="M70.8,496.54a1.09,1.09,0,0,0-.79.36c-.58.82-1.11,1.55-1.6,2.17l-2.74,4.41a5.23,5.23,0,0,0-.51,1.08c0,.25.22.59.65,1,3.11,3.15,4.91,5.36,5.46,6.66h4.41c0-.52,0-1.05,0-1.6a33.06,33.06,0,0,0-1.52-7.81C73,498.63,71.91,496.54,70.8,496.54Z"/><polygon class="cls-1" points="63.79 537.9 68.63 543.04 73.7 537.9 68.63 532.84 63.79 537.9"/></svg>