<svg id="Layer_1" data-name="Layer 1" xmlns="http://www.w3.org/2000/svg" viewBox="0 0 595.28 841.89"><defs><style>.cls-1{fill:#231f20;}</style></defs><polygon class="cls-1" points="196.03 431.82 175.53 431.82 175.53 332.9 196.03 332.9 196.03 206.57 107.45 206.57 44.29 269.73 44.29 494.98 107.45 558.15 196.03 558.15 196.03 431.82"/><polygon class="cls-1" points="419.74 206.57 419.74 431.82 365 431.82 365 269.73 301.83 206.57 203.3 206.57 203.3 332.9 233.79 332.9 233.79 431.82 203.3 431.82 203.3 558.15 480.8 558.15 550.99 494.98 550.99 206.57 419.74 206.57"/><polygon class="cls-1" points="439.66 159.59 374.81 95.44 309.95 159.59 374.81 224.42 439.66 159.59"/><rect class="cls-1" x="130.74" y="736.29" width="206.97" height="10.16"/><path class="cls-1" d="M281.71,597.85a23,23,0,0,0-.51,5.95,13.65,13.65,0,0,0,1,5.43c.85,2.15,2.15,3.23,3.88,3.23q6.45,0,10-9.18c.94,1.12,1.64,1.9,2.07,2.33a6,6,0,0,0,4,1q4.8,0,6.35-6.35t-.65-14.61l-2.59,1.3q-.53,11.37-4.39,11.38c-1.47,0-2.47-1-3-2.85a29.38,29.38,0,0,1-.77-5.18c-1.74.7-2.9,1.17-3.5,1.43-.43,3.1-.73,5.35-.9,6.73q-1.31,5.18-5,5.17-2.21,0-2.2-4.53a36.41,36.41,0,0,1,.39-4.79A4.77,4.77,0,0,0,281.71,597.85Z"/><path class="cls-1" d="M146.31,705V685.7l-3.62-.26q-8.3-.62-8.77-14.32l-11.5,11.5Q124.93,705,141.92,705Z"/><path class="cls-1" d="M134.15,658.28l1-20.44.38-12.42a42.69,42.69,0,0,0-.13-6.21c-.25-1-.77-1.55-1.55-1.55q-2.2,0-12.16,10.48.64,10.59.65,21.72,0,1.42-.13,6.08c-.09,3.55-.13,6.6-.13,9.2-.07,6.4-.12,9.66-.13,9.8,0,1.86.08,3.64.21,5.34l11.7-11.7Q133.92,663.65,134.15,658.28Z"/><path class="cls-1" d="M158.7,669.3h8.19a4.88,4.88,0,0,1,.41-1.06,12.74,12.74,0,0,1,8.79-3,13.24,13.24,0,0,1,3.18.42q6.76-6.76,13.51-13.57A120.14,120.14,0,0,0,181,644.43l-8.93-4.91a3.85,3.85,0,0,0-2.07-.78c-.6,0-1.08.56-1.42,1.68l-5.18,15a9.84,9.84,0,0,0-.51,2.33c0,.25.34.65,1,1.16l5,1.69C164.05,663.33,160.64,666.23,158.7,669.3Z"/><path class="cls-1" d="M150.47,705h1.82a49.58,49.58,0,0,0,30.15-9.83c1.87.77,4.15,1.81,6.8,3.08l8.68-8.69-6.95-2.8a17.46,17.46,0,0,0,3.67-7.43h-7.28a17,17,0,0,1-5.32,2.91,65.76,65.76,0,0,1-10.61-5.76c-3.27-2.2-4.92-3.56-4.92-4.08s0-.86.05-1.25h-8.82a11.11,11.11,0,0,0-.92,4.36,10.47,10.47,0,0,0,1.1,4.14c.73,1.64,2.81,3.58,6.27,5.82H150.47Z"/><path class="cls-1" d="M212.31,692.9l5.23,5.17a21.63,21.63,0,0,0,3.57-12.63,19.51,19.51,0,0,0-3.62-10.09,64.45,64.45,0,0,0-6.86-7.89c-.57-.57-1.35-1.31-2.33-2.21v16.61q5.55,4.2,5.56,7.07C213.86,691,213.34,692.27,212.31,692.9Z"/><path class="cls-1" d="M199.75,690.27,191,699.05c8.29,4,13.85,5.92,16.69,5.92q4.58,0,8.8-5.41-3.15-3.13-6.32-6.25c-2.11-.13-5.38-1.06-9.86-2.82Z"/><path class="cls-1" d="M194.24,653.21q-6.5,6.54-13,13.07h0a56.14,56.14,0,0,1,4.78,4,8,8,0,0,1,2.85,6.08,3.2,3.2,0,0,1-.21,1.1h6.25a18.79,18.79,0,0,0,0-3.68,111.58,111.58,0,0,1,11.51,6.74V663.59q-1.53-1.38-3.49-3.12C200.13,657.87,197.2,655.46,194.24,653.21Z"/><path class="cls-1" d="M261.33,633.05c-.17-.86-1.64-1.73-4.4-2.58a22.13,22.13,0,0,0-3.48-1.43l-5.18-2.58a39.74,39.74,0,0,1-7.63-5.18,8.75,8.75,0,0,0-2.47-1.69q-1,0-1.8,3.75L234.29,634a25.37,25.37,0,0,0-.51,4c0,.43,1.33,1.6,4,3.48q19.83,13.74,26.39,27.81c1.77-1.76,3.55-3.5,5.36-5.23a65.68,65.68,0,0,0-15.19-27.88Q261.33,634.86,261.33,633.05Z"/><path class="cls-1" d="M272.19,678.58a88.23,88.23,0,0,0-2.12-12.53c-1.72,1.65-3.43,3.31-5.12,5a32.3,32.3,0,0,1,2.46,11.28c-4.37,2.9-8.82,5.57-13.33,8.06l11.1,11.1q5-4.2,14.14-21.09c1.63-3.09,3.19-6.12,4.68-9.12q-1.94-2-3.93-4A96.09,96.09,0,0,1,272.19,678.58Z"/><path class="cls-1" d="M231.06,702.26q0,2.72,17.08,2.58c7.44-.07,12.61-.85,15.5-2.31L252.42,691.3q-7.39,4-15,7.21Q231.05,701.36,231.06,702.26Z"/><path class="cls-1" d="M296.06,621.41a31.3,31.3,0,0,0-1.35,7,74.49,74.49,0,0,1-3.1,13.65h8.05l.22-7.17c.08-2.77.13-5.61.13-8.55q0-6.59-2.07-6.59C297.16,619.73,296.54,620.29,296.06,621.41Z"/><path class="cls-1" d="M284.86,669.56q3.64-7.39,6.74-14.39-1.16,13.46-1.17,26.78a44.77,44.77,0,0,0,.5,6.83l9-9a42.94,42.94,0,0,1-1.12-11.36l.76-24.51H291q-1.83,5.31-4.46,11T281,665.67C282.31,667,283.59,668.24,284.86,669.56Z"/><path class="cls-1" d="M300.86,681.88c-.06-.09-.11-.2-.17-.3L291.33,691q3.1,14,17.21,14h1.17V685.44a1.2,1.2,0,0,1-1,.26C304.79,685.44,302.19,684.17,300.86,681.88Z"/><path class="cls-1" d="M341.75,685.7q-4.32-8.93-4.33-13.85c0-4.53,1.8-6.8,5.4-6.85v-7.23a14.22,14.22,0,0,0-10.77,4.58,16.46,16.46,0,0,0-4.21,11.58c0,2,.05,3.62.14,4.92.08.43.13.68.13.77q0,5.82-13.2,5.82V705h.9a12.12,12.12,0,0,0,9.32-4.07c2.5-2.71,4.36-6.54,5.56-11.45q7.89,17.77,17.35,18.33V693.64Q344.65,691.66,341.75,685.7Z"/><path class="cls-1" d="M355,678.85h6c-.19-.72-.39-1.45-.61-2.2a34.7,34.7,0,0,0-5.95-12.29q-4.32-5.79-9.73-6.5v7.33q4.59,1,7.92,7.76A41.1,41.1,0,0,1,355,678.85Z"/><path class="cls-1" d="M355.47,680.67a29.59,29.59,0,0,1,1,7.36c0,4.4-1.63,6.6-4.91,6.6a6.7,6.7,0,0,1-1.66-.22v13.35a11.91,11.91,0,0,0,9.42-5.5,19.62,19.62,0,0,0,3.5-11.9,42.82,42.82,0,0,0-1.4-9.69Z"/><path class="cls-1" d="M408.62,669.1c2.1-1.3,4.38-2.62,6.87-4a53.31,53.31,0,0,0,.91,7.35h12.72c-.41-2.12-.82-4.53-1.2-7.23l-2.73-19.66c-.68-5.26-1.37-7.9-2.07-7.9s-2.3,1.88-5.11,5.63-4.2,6.15-4.2,7.18a62.44,62.44,0,0,0,.65,7.25q-6.4,3.87-10.63,6.6Z"/><path class="cls-1" d="M431.92,682a31.8,31.8,0,0,1-2.42-7.65H416.71c.35,1.93.76,4.13,1.25,6.61-3.17-.55-6-1.15-8.46-1.8l-10.91,10.83c1.07.37,2.25.77,3.58,1.19,5.69,1.81,9.06,2.73,10.09,2.73.77,0,2-1.38,3.75-4.15l2.72-4.4a49.17,49.17,0,0,0,2.43,9.11L432.62,683A7.52,7.52,0,0,1,431.92,682Z"/><path class="cls-1" d="M434,684.19l-12,12a20.64,20.64,0,0,0,2.62,4.35Q428,705,437.23,705h3.88V685.44h-2.46A8.28,8.28,0,0,1,434,684.19Z"/><path class="cls-1" d="M400,675.35a65.39,65.39,0,0,1,7.09-5.24l-4.78-4.73c-3.59,2.37-5.75,4-6.45,4.86A26.08,26.08,0,0,0,391,683.63a7,7,0,0,0,1.23,3.36c.41.55,1.89,1.3,4.43,2.27l10.8-10.72A30.92,30.92,0,0,1,400,675.35Z"/><path class="cls-1" d="M465.57,651.29a2,2,0,0,0-1.42.64q-1.54,2.22-2.85,3.88l-4.91,7.9a9,9,0,0,0-.9,1.94c0,.44.38,1,1.16,1.81q9.39,9.52,10,12.75h7.56q.12-1.79.12-3.69c0-2.85-.9-7.5-2.72-14Q468.54,651.29,465.57,651.29Z"/><path class="cls-1" d="M463.55,683.81a.89.89,0,0,1-1.18.38q-4.55,1.24-13.87,1.25h-3.24V705h3.24q23.24,0,25.6-22.94h-7.8A5.65,5.65,0,0,1,463.55,683.81Z"/><polygon class="cls-1" points="453.03 725.28 461.69 734.47 470.75 725.28 461.69 716.23 453.03 725.28"/></svg>