<svg id="Layer_1" data-name="Layer 1" xmlns="http://www.w3.org/2000/svg" viewBox="0 0 595.28 841.89"><defs><style>.cls-1{fill:#231f20;}</style></defs><path class="cls-1" d="M48.59,749.13a17.44,17.44,0,0,1,.81-4.65,9.57,9.57,0,0,0,.52-2.36c0-.74-.4-1.11-1.18-1.11-.94,0-1.92,2-3,6a43.35,43.35,0,0,0-1.62,10.42q0,7.23,5.69,10.82,4.88,3.08,14.74,3.5v-9.44A29.8,29.8,0,0,1,55,759.69,11.08,11.08,0,0,1,48.59,749.13Z"/><path class="cls-1" d="M97.33,753.49a15.64,15.64,0,0,0-6.72-1.11l-9.31-.07c-2.63,0-4.3-.36-5-.95H71.88a8.12,8.12,0,0,0-.18,1.83,4.1,4.1,0,0,0,2,3.84,16.62,16.62,0,0,0,6.94,1.11H91.86a8,8,0,0,1,2.84.35h4.5c0-.38,0-.76,0-1.16Q99.25,754.45,97.33,753.49Z"/><path class="cls-1" d="M82.34,740.27a24.76,24.76,0,0,0-7.09,5.17,15.35,15.35,0,0,0-2.64,3.77h3.68q1.48-1.58,7.23-1.41l18.09.59V737.24H97.69Q88.39,737.24,82.34,740.27Z"/><path class="cls-1" d="M86.32,762.43a97,97,0,0,1-10.63.58q-4.29,0-7.87-.3v9.17h.12q15,0,23.15-3.14,6.41-2.47,7.77-8.1H94C92.61,761.4,90.05,762,86.32,762.43Z"/><path class="cls-1" d="M133.14,731.9a21.33,21.33,0,0,0-2.9,1.76,17.52,17.52,0,0,1,.79,5.06q0,3.76-2.8,3.77-3.1,0-5.58-5.1t-2.47-7.9c0-2.66,1.08-4,3.25-3.92s3.91,1.57,5.39,4.54l.21.47a26,26,0,0,1,3-1.68,17.29,17.29,0,0,0-2.19-3.69q-2.8-3.76-6.42-3.77a8.16,8.16,0,0,0-6.32,2.62,9.42,9.42,0,0,0-2.4,6.61c0,1.14,0,2.07.08,2.81a3,3,0,0,1,.07.44c0,2.22-2.51,3.32-7.53,3.32v11.15h.51a6.92,6.92,0,0,0,5.32-2.32,14.62,14.62,0,0,0,3.18-6.54Q121,750,126.6,750a6.9,6.9,0,0,0,6.06-3.17,11.25,11.25,0,0,0,2-6.8,29.81,29.81,0,0,0-1.41-7.83C133.22,732.11,133.17,732,133.14,731.9Z"/><path class="cls-1" d="M143.59,712.13q13.65,9.47,16.28,19.22c.88-.9,1.77-1.79,2.66-2.68A38.64,38.64,0,0,0,153,709.11c2.66-.49,4-1.08,4-1.78-.1-.48-.94-1-2.52-1.47a13.18,13.18,0,0,0-2-.81l-3-1.48a22.59,22.59,0,0,1-4.36-3,4.92,4.92,0,0,0-1.41-1c-.39,0-.73.72-1,2.14l-1.18,6.06a14.38,14.38,0,0,0-.29,2.29C141.3,710.39,142.06,711.06,143.59,712.13Z"/><path class="cls-1" d="M163.23,733.33c-.07-.7-.18-1.36-.27-2l-2.59,2.6c.07.53.11,1.05.13,1.58a106.49,106.49,0,0,1-17.14,9.23c-2.41,1.09-3.61,1.8-3.61,2.15,0,1,3.24,1.52,9.75,1.47,4.37-.05,7.38-.52,9-1.4q2.88-1.63,8.79-12.56,1.08-2,2.08-4L167,728A53.71,53.71,0,0,1,163.23,733.33Z"/><path class="cls-1" d="M179.59,735.21q-1.16-2-1.15-7.71l.59-19.13c.05-1.58.07-3.2.07-4.88,0-2.5-.39-3.76-1.18-3.76-.44,0-.8.32-1.07,1a17.81,17.81,0,0,0-.77,4,51.66,51.66,0,0,1-4.66,15.13c-1,2.24-2.11,4.33-3.25,6.29l2.21,2.21q2.13-4.29,3.93-8.35-.67,7.68-.67,15.29,0,13.15,10.34,13.14h.66V737.24a.65.65,0,0,1-.58.15C181.83,737.24,180.35,736.52,179.59,735.21Z"/><path class="cls-1" d="M225.78,733.08h3.66c-.06-1.41-.23-3.05-.5-4.92-.64-4.18-1.58-6.28-2.81-6.28-.1,0-.27.2-.52.59l-2.51,3.7c-.34.84-.51,1.2-.51,1.1a10.27,10.27,0,0,0,.66,1.18A17.61,17.61,0,0,1,225.78,733.08Z"/><path class="cls-1" d="M201.09,731.63c-.19-1.18-.54-1.77-1-1.77s-1,.84-1.1,2.21a7.43,7.43,0,0,1-1.85,4c-.83.76-2.39,1.14-4.66,1.14h-3.1v11.15h2.07c3.5,0,6.3-1.62,8.43-4.87,1.59,2.81,3.61,4.38,6,4.73V737C203.2,736.76,201.59,735,201.09,731.63Z"/><path class="cls-1" d="M221,737.09q-6.19-.06-6.86-5.61c-.2-1.13-.57-1.7-1.11-1.7s-.84.79-1.19,2.37A8.18,8.18,0,0,1,210,736a3.88,3.88,0,0,1-2,1v11.24c2-.42,3.87-2,5.61-4.67q2.88,4.72,6.79,4.73a7.2,7.2,0,0,0,6.21-3.55,17.7,17.7,0,0,0,2.73-8.71c0-.24.05-.5.06-.76H225.6C225,736.51,223.45,737.14,221,737.09Z"/><path class="cls-1" d="M250.12,698q-1.11,0-10.62,7.6l2.94,26.66q1.56,13.66,2.07,14.63c.2.58.54.88,1,.88a.77.77,0,0,0,.73-.37,52.5,52.5,0,0,0,1.19-7.38l2.21-30.06.89-11.23C250.61,698.21,250.47,698,250.12,698Z"/><path class="cls-1" d="M276.05,739.38a28.61,28.61,0,0,1,1.19-7.23,10.67,10.67,0,0,0,.51-2.66c0-.74-.31-1.11-1-1.11q-1.55.07-3.54,6.39a39.42,39.42,0,0,0-2,11.85q0,8.57,5.69,12.71c3.57,2.6,9.17,3.95,16.73,4.1V752.9a35,35,0,0,1-8.76-1.7Q276.05,748,276.05,739.38Z"/><path class="cls-1" d="M322.36,734.58a56.65,56.65,0,0,0-8.86-1.33q-6.06-.66-8.2-1.69c-1.13-.3-1.7-.72-1.7-1.26a5.6,5.6,0,0,1,.83-2.57l-2.23-2.23a25,25,0,0,0-2.73,11.08c0,2.85,1.89,4.8,5.68,5.83a61.6,61.6,0,0,0,9.09,1.11,53.61,53.61,0,0,1,8.71,1.33,2.47,2.47,0,0,1,1.34,1.13h2.94a32.11,32.11,0,0,0,.22-3.79,8.7,8.7,0,0,0-1.22-5.1A7.12,7.12,0,0,0,322.36,734.58Z"/><path class="cls-1" d="M329.08,723a9.69,9.69,0,0,0-3.33-7.31,10.63,10.63,0,0,0-7.45-3.1q-7.6,0-13.52,8.49c-.55.82-1,1.63-1.52,2.45l2.38,2.38c.32-.44.66-.88,1.06-1.36,2.17-2.21,5.32-3.3,9.45-3.24q7.47.06,11.9,1.91a6.09,6.09,0,0,0,.88.37A1.29,1.29,0,0,0,329.08,723Z"/><path class="cls-1" d="M301.09,753.19c-1.47,0-2.85,0-4.18-.09v10.33c6.86-.13,12.48-1,16.81-2.63q7.38-2.65,10.56-6.8a14.85,14.85,0,0,0,2.57-5.86H324Q321.45,753.2,301.09,753.19Z"/><path class="cls-1" d="M352.12,734q-2.37-4-3.4-4c-.34,0-1.32,1.37-3,4.13a30.11,30.11,0,0,0-2.51,4.8,2.25,2.25,0,0,0,.74.59q8.1,6.54,8.72,10.31h3.37q.09-1.26.09-2.55a23.54,23.54,0,0,0-1.47-8.35A33.85,33.85,0,0,0,352.12,734Z"/><path class="cls-1" d="M348.58,756.92q-4.21,4.32-15.29,9.57-4.8,2.28-4.8,2.88c0,.78,1.94,1.35,5.84,1.7,4.08.39,7.31.58,9.67.58a4.63,4.63,0,0,0,3.17-1.1,23.36,23.36,0,0,0,3.91-5.1A33.92,33.92,0,0,0,355.87,752h-3.5A19.67,19.67,0,0,1,348.58,756.92Z"/><path class="cls-1" d="M372.43,730.67a6.44,6.44,0,0,1,2.77.66q3.29-3.21,6.55-6.46a8.25,8.25,0,0,0-7-4q-4.74,0-8,7.72c-.38.9-.72,1.77-1,2.62a38.37,38.37,0,0,0,3.82.87A3.45,3.45,0,0,1,372.43,730.67Z"/><path class="cls-1" d="M374.94,759.17a52.73,52.73,0,0,1-12,7q-6,2.52-6,3.4c.1.74,2.54,1.32,7.32,1.77,3.39.34,6.29.52,8.71.52q2.43,0,5.76-4.88a36.79,36.79,0,0,0,4.06-8.12,41.26,41.26,0,0,0,2-7h-3.6A21.54,21.54,0,0,1,374.94,759.17Z"/><path class="cls-1" d="M383.34,727.83c-1.83,1.83-3.67,3.64-5.52,5.45a17.89,17.89,0,0,1,2.73,4h-3.91c-5.2,0-8-.72-8.55-2.16-1.16-.23-2.32-.5-3.46-.83a25.16,25.16,0,0,0-1.21,7.06,5.42,5.42,0,0,0,3.62,5.42q3.61,1.51,15.13,1.52a8.57,8.57,0,0,1-.2,1.5h3.2c.06-.45.14-.91.18-1.36h9V737.24H385.8A38.42,38.42,0,0,0,383.34,727.83Z"/><path class="cls-1" d="M423.58,725.65a6.21,6.21,0,0,0-1.55-4.21,4.42,4.42,0,0,0-3.54-1.55q-4.29,0-9.46,4.58c-.42.38-.84.77-1.23,1.19l3.36,3.33a4.63,4.63,0,0,1,1.93-.39c2,0,3,.91,3,2.74q0,2.5-3.92,5.9h-7.31a14.28,14.28,0,0,1,3.54-6.27l.11-.1-2.74-2.72a30.53,30.53,0,0,0-4.31,9.09h-4.65v11.15h4.44c1,5.47,3,9.53,6.05,12.19a16.62,16.62,0,0,0,5.45,3.28v-7a13.92,13.92,0,0,1-3.72-1.74,11.38,11.38,0,0,1-4.68-6.76H411a56.55,56.55,0,0,1,4.8,3.1q3.76,2.75,3.77,4c0,.34-.27.74-.82,1.21a3.76,3.76,0,0,1-2.51.7h-.25v7.14c.28,0,.56,0,.85,0a7.78,7.78,0,0,0,3.76-.81,6.62,6.62,0,0,0,3.55-6.28q0-4.59-7-9.09h10V737.24H416.63Q423.58,731.71,423.58,725.65Z"/><path class="cls-1" d="M448.48,719.89a10.24,10.24,0,0,0-5.24,1.7,8.73,8.73,0,0,0-3,4.06,15.61,15.61,0,0,0-1.11,5.46,14.35,14.35,0,0,1-.7,3.7,3.31,3.31,0,0,1-2.29,1.84,18.76,18.76,0,0,1-5.5.59v11.15a11.78,11.78,0,0,0,5.61-1.4q2.07-1.32,4.95-6.35,4,7.56,9.19,8.38V739l0,0a15.66,15.66,0,0,1-5-10.2,7.09,7.09,0,0,1,1-2.8,3.94,3.94,0,0,1,2.66-.89,4.61,4.61,0,0,1,3.17,1.67c.22.22.44.49.67.77l2.88-2.89Q452,719.79,448.48,719.89Z"/><path class="cls-1" d="M461.7,734.44q-2-3-2.88-4.73c-.44-.82-.89-1.59-1.33-2.31l-3,3c.26.53.52,1.11.78,1.73a16.18,16.18,0,0,1,1.56,5.83c0,1.77-.84,2.66-2.52,2.66a3.83,3.83,0,0,1-.73-.09v8.33a4.29,4.29,0,0,0,2.13-1.22,17.35,17.35,0,0,0,3.85-5.4q2.73,6.13,7.68,6.13h2.36V737.24a12.5,12.5,0,0,1-4.72-.73A10.64,10.64,0,0,1,461.7,734.44Z"/><polygon class="cls-1" points="494.29 764.94 499.38 770.03 504.48 764.94 499.31 759.77 494.29 764.94"/><path class="cls-1" d="M477.67,730c.35,0,.89-.44,1.62-1.33q2.29-3,4.81-3c1.18,0,3.34.62,6.5,1.85l.56.21q3.52-3.56,7.06-7.09c-1-.37-2-.76-3.05-1.18-3.79-1.47-6.34-2.21-7.68-2.21q-4.29,0-7.42,5.1c-2.09,3.39-3.14,5.66-3.14,6.79C476.93,729.71,477.18,730,477.67,730Z"/><path class="cls-1" d="M519.69,726a86.37,86.37,0,0,1-18.11-4.2L494.47,729c2.49.9,5.12,1.77,7.94,2.6a60.71,60.71,0,0,1-13.18,4.35,81.9,81.9,0,0,1-16.06,1.33v11.15H476a42,42,0,0,0,13.81-2.14,62.93,62.93,0,0,0,12.56-6.43c4-2.45,6.74-3.91,8.27-4.35a18.48,18.48,0,0,1,4.94-.89,4.67,4.67,0,0,0,1.11.08,6.33,6.33,0,0,0,1,.07c.5-.09,1-.59,1.48-1.48l2.81-5.31a2.67,2.67,0,0,0,.51-.89C522.49,726.61,521.56,726.27,519.69,726Z"/><path class="cls-1" d="M537,731.48a34.23,34.23,0,0,1,3-2.28c-.9-.9-1.82-1.78-2.72-2.69a14.75,14.75,0,0,0-2.62,2.06,14.81,14.81,0,0,0-2.73,7.64,4,4,0,0,0,.7,1.92,3.57,3.57,0,0,0,1.19.74l6-6A14.16,14.16,0,0,1,537,731.48Z"/><path class="cls-1" d="M555.24,735.25c-.83-1.57-1.6-4.75-2.28-9.53L551.4,714.5c-.39-3-.78-4.51-1.18-4.51s-1.31,1.07-2.91,3.21-2.4,3.51-2.4,4.1a34.48,34.48,0,0,0,.37,4.14c-2,1.24-3.8,2.32-5.27,3.26.91.91,1.84,1.81,2.76,2.72,1-.59,2-1.17,3.09-1.77a66.49,66.49,0,0,0,1.41,9c-1.42-.25-2.71-.52-3.9-.81l-6.26,6.27,1.15.37a34.75,34.75,0,0,0,5.76,1.56c.44,0,1.16-.79,2.14-2.37l1.56-2.51q1,5.83,3.31,8.71c1.33,1.68,3.75,2.51,7.24,2.51h2.22V737.24h-1.4A4,4,0,0,1,555.24,735.25Z"/><path class="cls-1" d="M580.67,732.15a34,34,0,0,0-1.56-8q-1.77-6.42-3.47-6.42a1.13,1.13,0,0,0-.81.37c-.59.84-1.13,1.58-1.63,2.21l-2.8,4.51a5.12,5.12,0,0,0-.51,1.1c0,.25.21.6.66,1q5.76,5.84,5.76,7.53,0,2.73-10.41,2.73h-1.85v11.15h1.85Q580.66,748.39,580.67,732.15Z"/><polygon class="cls-1" points="568.48 759.99 573.43 765.23 578.6 759.99 573.43 754.82 568.48 759.99"/><polygon class="cls-1" points="500.31 77.65 438.19 16.21 376.8 77.65 438.19 139.75 500.31 77.65"/><path class="cls-1" d="M513.66,228.91s-27-37.09-82.6-32.87V350.29h32.87s72.49-2.52,79.24,52.27l1.68,19.38s0,.1,0,.27h13.67L560.87,379S560.87,269.37,513.66,228.91Z"/><path class="cls-1" d="M344.24,352c-.29,1.43-.62,2.83-1,4.23h28.18l4.81-158.49S366.15,104.16,340.86,81.4L300.4,139.56s41.31,43,44.68,53.95c0,0-64.67-6.77-132.21,9.46V359.69C281.43,349.6,344.24,352,344.24,352Z"/><path class="cls-1" d="M68.6,413.51c31.67-28.86,85-44.34,136.27-52.59V205c-41.62,11.13-83.41,31.4-111,67.74,0,0-60.8,71.74-59.45,163.47H55.6C58,423.22,68.6,413.51,68.6,413.51Z"/><path class="cls-1" d="M149.52,636.89s6.57,1.61,17.35,1.27V482.5c-57,2.77-98.27-16.72-98.27-16.72-8.89-7.16-12.57-14.62-13.33-21.57H34.7c.06,1,.11,2,.18,3l3.37,51.42S52.58,624.25,149.52,636.89Z"/><path class="cls-1" d="M369.52,420.26l1.7-56.05H341.05c-18.83,59-80.26,92.29-80.26,92.29A220.44,220.44,0,0,1,174.87,482V637.58c30.9-3.49,83.93-23.7,123.85-113.64,0,0,50.59-93.87,56-153l-2.93,80.52a350.47,350.47,0,0,0,1.73,58.42l39.81-39.81C381.83,462.18,371.56,447.46,369.52,420.26Z"/><path class="cls-1" d="M496,475.89l-65.75,2.53a56.82,56.82,0,0,1-29.6-4.3L354.83,519.9c7.11,49.1,27.77,107.73,85.5,114.46h19s79.66,2.53,95.63-145l3.16-59.17h-13C544.39,444.06,537.52,470.93,496,475.89Z"/><rect class="cls-1" x="74.05" y="814.51" width="160.85" height="11.17"/></svg>