<svg id="Layer_1" data-name="Layer 1" xmlns="http://www.w3.org/2000/svg" viewBox="0 0 595.28 841.89"><defs><style>.cls-1{fill:#231f20;}</style></defs><rect class="cls-1" x="214.64" y="607.56" width="130.34" height="11.55"/><path class="cls-1" d="M211.94,588.15H370.81l134-131.83V286.84H373.26v167.5H214.88c27.28-27.86,52.88-54,78.72-80.39l-91.9-92.48-132,132.14,90.85,93.15,51.38-49.07Z"/><path class="cls-1" d="M365.31,98.86V259.49l79.45-80.19Z"/><path class="cls-1" d="M210.35,726l.11,3.5Q210.9,743,213.2,743q1.89,0,3.26-6.53a68,68,0,0,0,1.16-13.36l-.17-4.2C215.09,721.27,212.74,723.63,210.35,726Z"/><path class="cls-1" d="M225.3,663.64q-3.8,5.1-3.79,8.06a13,13,0,0,0,1.9,6h-1.47q-6.31,0-9.48,4.52-3.36,4.85-3.26,9.15l1.06,31.89c2.37-2.33,4.71-4.69,7.08-7l0-1q-.3-12-.31-12.94.1-7.78.94-9.31t4.84-1.53c.49,0,3.58.29,9.26.84,1.17.12,2.26.23,3.28.31V678.91l-7.91-.7a24.54,24.54,0,0,1-1.26-5.78c0-1.34,1.26-2,3.79-2a26.63,26.63,0,0,1,5.88.64V659.28a8.75,8.75,0,0,0-3.15-.84Q229.09,658.55,225.3,663.64Z"/><path class="cls-1" d="M244.55,663.6c-2.68-1.46-4.92-2.61-6.74-3.45V671.6a23.32,23.32,0,0,1,5.37,2.46c.84.52,1.57,1,2.22,1.46h.41a1,1,0,0,1,1,1c1.46,1.13,2.2,2,2.2,2.54a1.09,1.09,0,0,1-1.16.94l-10.51-.92v13.7c1.67.11,3.1.16,4.3.16,2.8,0,4.87-.5,6.21-1.52s2.77-3.52,4.31-7.52a26.91,26.91,0,0,0,2.1-8.74Q254.23,668.86,244.55,663.6Z"/><path class="cls-1" d="M281.7,628.45q-1.59,0-15.15,10.84l4.2,38c1.48,13,2.46,19.91,2.95,20.84a1.55,1.55,0,0,0,1.48,1.26,1.1,1.1,0,0,0,1-.53,75,75,0,0,0,1.69-10.53l3.15-42.82,1.27-16C282.39,628.81,282.18,628.45,281.7,628.45Z"/><path class="cls-1" d="M335.24,665l-4.63-14.61c-.91-2.89-1.54-4.32-1.89-4.32s-1.09.88-2.42,2.63c-1.13,1.4-1.89,2.42-2.32,3.05-1.47,1.61-2.21,2.74-2.21,3.36,0-.06.28.78.85,2.53L330,677.37a31.77,31.77,0,0,1-9,6.07c1.85,1.85,3.69,3.7,5.51,5.58a50.67,50.67,0,0,0,4.92-7.34q3.57,9.48,7.06,14.05a10.62,10.62,0,0,0,8.83,4.58h2.42V684.42h-2.52Q341.35,684.42,335.24,665Z"/><path class="cls-1" d="M309.15,685.79a17,17,0,0,1-7.26-1.47c-2.67-1.34-4-3.22-4-5.68,0,.06.11-.71.32-2.32.06-.77.1-1.53.1-2.31s-.31-1.37-.94-1.37c-1.26,0-2.36,2.42-3.27,7.26a51.16,51.16,0,0,0-1.05,9.05q0,11.25,11.68,11.26,11.83,0,20.5-9.67-3.09-3.16-6.23-6.3A27.9,27.9,0,0,1,309.15,685.79Z"/><path class="cls-1" d="M386.38,656.54a12.84,12.84,0,0,0-7.58-2.21,16.69,16.69,0,0,0-9.78,3.16,27,27,0,0,0-8.32,10.2c-.41.83-.78,1.59-1.13,2.33h4.5a5.51,5.51,0,0,1,1.27-1.28q3.15-2.09,11.25-2.09,4.43,0,14.52,2.09c1.76.36,2.84.6,3.26.74a1,1,0,0,0,.95-1.05q0-.84-2.74-5.36Q389.54,658.12,386.38,656.54Z"/><path class="cls-1" d="M397.42,683.16a7.08,7.08,0,0,0-.79.1,5.88,5.88,0,0,1-1.2.12c-2.95.28-6,.41-9.05.41q-12.63,0-18.05-3.2t-5.41-7.54a8.16,8.16,0,0,1,.2-1h-4.44a17,17,0,0,0-1.66,5.87,8.11,8.11,0,0,0,3.47,6.53h-7.78v15.89q13.57,0,19.67-4.63a42,42,0,0,0,15.79,2.52,8.63,8.63,0,0,0,3.47-.53,17.82,17.82,0,0,0,2.53-4l2.1-3.89c1.46-2.81,2.21-4.74,2.21-5.79C398.48,683.44,398.12,683.16,397.42,683.16Z"/><path class="cls-1" d="M426.77,628.45q-1.57,0-15.14,10.84l4.2,38c1.48,13,2.46,19.91,2.94,20.84.29.83.78,1.26,1.48,1.26a1.13,1.13,0,0,0,1.05-.53A74.82,74.82,0,0,0,423,688.31l3.16-42.82,1.26-16C427.47,628.81,427.26,628.45,426.77,628.45Z"/><path class="cls-1" d="M474.81,669.76c1.05-.61,2.14-1.23,3.3-1.85a49.9,49.9,0,0,0,.86,6.73q4.44-4.5,8.92-8.95L486,652q-.84-6.4-1.69-6.41c-.49,0-1.87,1.52-4.15,4.58s-3.42,5-3.42,5.83a50.23,50.23,0,0,0,.53,5.89l-2.46,1.5Z"/><path class="cls-1" d="M491.47,681.59q-1.79-3.35-3.23-13.42-4.44,4.41-8.83,8.88c.21,1.13.44,2.36.7,3.69-1.36-.24-2.63-.49-3.84-.75a.94.94,0,0,1-.71-.15q-6.78-1.53-10.07-3.62a56.53,56.53,0,0,1,7.32-5.26v-6.33q-9.39,5.83-10.7,7.42a21.33,21.33,0,0,0-3.89,10.9,5.65,5.65,0,0,0,1,2.73c.53.71,3.21,1.83,8.06,3.36,4.62,1.48,7.36,2.23,8.2,2.23.63,0,1.65-1.13,3-3.37l2.21-3.58c1,5.53,2.56,9.68,4.73,12.41q2.83,3.59,10.31,3.58h3.16V684.42h-2C494.34,684.42,492.53,683.47,491.47,681.59Z"/><polygon class="cls-1" points="508.2 716.83 515.25 724.3 522.61 716.83 515.25 709.46 508.2 716.83"/><path class="cls-1" d="M523.35,665.8q-2.54-9.15-5-9.15a1.57,1.57,0,0,0-1.15.52c-.84,1.19-1.62,2.24-2.32,3.16l-4,6.41a7.89,7.89,0,0,0-.74,1.58c0,.36.31.85.94,1.47,3.82,3.87,6.3,6.77,7.46,8.73h6.92c0-.45,0-.89,0-1.36Q525.56,673.68,523.35,665.8Z"/><path class="cls-1" d="M519.36,680.53q0,3.9-14.84,3.89h-2.64v15.89h2.64q19.44,0,20.91-19.79h-6.07Z"/></svg>