<svg id="Layer_1" data-name="Layer 1" xmlns="http://www.w3.org/2000/svg" viewBox="0 0 595.28 841.89"><defs><style>.cls-1{fill:#231f20;}</style></defs><circle class="cls-1" cx="330.09" cy="660.51" r="51.16" transform="translate(-370.37 426.87) rotate(-45)"/><path class="cls-1" d="M167.57,458.37a16.24,16.24,0,0,1,1.82,3h90.3a101.61,101.61,0,0,0-20.89-57.15c-16.67-21.93-41.28-37.15-69.31-42.86L151.61,449C158.27,450.39,164.09,453.79,167.57,458.37Z"/><path class="cls-1" d="M136.72,466.8C116,487.89,99.9,512.93,81.59,536.1c15.23,11.77,35.44,20.44,56.61,24a127.05,127.05,0,0,0,20.9,1.78c24.07,0,45.59-7.4,62.11-21.59a97.45,97.45,0,0,0,35.09-56.63,93.24,93.24,0,0,0,1.81-14.85H168.25a11.93,11.93,0,0,1-2.33,2.33l-1.26,1-.66.59c-1.66.59-6.55,1.15-13.48-.37A42.81,42.81,0,0,1,136.72,466.8Z"/><path class="cls-1" d="M75.16,532.31c18.65-23.52,35-49,56-70.46A73.91,73.91,0,0,1,121,448a61.38,61.38,0,0,1-7.22-20H23.71A148.79,148.79,0,0,0,43.13,492.1a163.83,163.83,0,0,0,28,36.29C72.4,529.73,73.76,531,75.16,532.31Z"/><path class="cls-1" d="M229.41,174.36c21.93-18.69,52.68-36.55,90.18-52.29L285,39.56C236.92,59.73,197.78,83,168.25,109a201.88,201.88,0,0,1,18-34.14l-.1.14L112.73,23.78c-1.62,2.31-16.15,23.53-28.81,54.93-13.44,33.34-19.84,65.38-19.16,95.65Z"/><path class="cls-1" d="M31.29,372.75a141.45,141.45,0,0,0-7.86,47.18H113A51.73,51.73,0,0,1,115.83,402c5.59-16.12,18.73-29.12,37-36.59,20.18-8.25,41.66-9.94,60.69-5,2.79.95,5.6,1.86,8.47,2.71l1.54.58c.73.29,1.45.59,2.16.91l0-.08c32.08,12.13,55.56,23.58,71.6,34.94,2.63,1.86,5.44,4,8.15,6.32l63.34-63.34a189.1,189.1,0,0,0-19.8-16c-23.12-16.36-53.17-31.22-94.39-46.64-1.1-.42-2.2-.83-3.3-1.22l-1.31-.49-.16-.05q-5-1.72-10-3.16C212.18,265.05,194.76,249,193.76,232c-.74-12.76,7-28.53,21.77-44.4,1.59-1.71,3.27-3.41,5-5.11H65.11a181,181,0,0,0,2.83,22.32c.66,3.46,1.44,6.89,2.3,10.27a227.11,227.11,0,0,0-55.53-5.35l2.48,89.44a142,142,0,0,1,57.2,10.77A146.9,146.9,0,0,0,31.29,372.75Z"/><path class="cls-1" d="M266.5,717.23c-2-47.57-2.95-70.76,7.15-90.59q-32.23-32.24-64.72-64.2C172.51,611,174.44,657.24,177.11,721c.09,2.38.2,4.82.3,7.3H61.17v89.48H179.48v.36H317.27V728.27H267C266.81,724.48,266.65,720.8,266.5,717.23Z"/><path class="cls-1" d="M319.31,424.92c1.31,7.42-.31,36.67-76.44,101.42l-.79.69a258.39,258.39,0,0,0-27.9,28.71l.18.18a4,4,0,0,1,1,1.47q31.48,30.83,62.56,62.06c5.41-8.06,12.95-16,23.37-25.31,51.94-44.23,119.16-111.38,106.16-184.82-4-22.32-15-42.82-32.82-61.21Q343,379.73,311.35,411.36C315.38,415.68,318.5,420.33,319.31,424.92Z"/><polygon class="cls-1" points="400.7 628.42 400.7 728.63 351.41 728.63 351.41 728.27 325.36 728.27 325.36 818.11 490.18 818.11 490.18 628.42 400.7 628.42"/><path class="cls-1" d="M246.21,221.9a20.22,20.22,0,0,0-5.7,4.16c-1.93,2.1-2.88,4.17-2.84,6.23a3.31,3.31,0,0,0,1.6,3.09,13.46,13.46,0,0,0,5.58.89h9a9.32,9.32,0,0,1,1.78.13c1.38-.15,2.76-.34,4.13-.51a2.46,2.46,0,0,0,0-.28,3.1,3.1,0,0,0-1.54-3.08,12.5,12.5,0,0,0-5.4-.89l-7.48-.06q-4.51-.06-4.45-1.48.06-2.32,6.23-2.14l14.54.47v-9h-3.15A27.56,27.56,0,0,0,246.21,221.9Z"/><path class="cls-1" d="M219.1,229a13.76,13.76,0,0,1,.65-3.74,7.68,7.68,0,0,0,.41-1.9c0-.59-.31-.89-.95-.89s-1.54,1.62-2.37,4.86a34.85,34.85,0,0,0-1.31,8.37,9.89,9.89,0,0,0,2.52,7q2.8-2.81,5.62-5.58A8.83,8.83,0,0,1,219.1,229Z"/><path class="cls-1" d="M249.42,239.7a76.57,76.57,0,0,1-8.55.48q-9.92,0-15.11-2-3,3-6,6c.12.09.23.18.37.27q4.56,2.87,14.53,2.87,12,0,18.61-2.52c3.48-1.34,5.55-3.57,6.26-6.66-1.67.21-3.34.44-5,.6A25.75,25.75,0,0,1,249.42,239.7Z"/><polygon class="cls-1" points="278.44 194.61 274.46 190.52 270.36 194.55 274.46 198.82 278.44 194.61"/><path class="cls-1" d="M275.29,212.59c-.2-1.22-.47-1.84-.83-1.84s-.63.62-.83,1.84q-1.36,6.89-6.94,6.88H265.5v9a9,9,0,0,0,5.91-1.72,10.55,10.55,0,0,0,3-5.4,11.67,11.67,0,0,0,2.26,4.9c1.14,1.48,3.38,2.22,6.7,2.22v-9h-1.55Q276.48,219.47,275.29,212.59Z"/><path class="cls-1" d="M296.47,215.88h4.08c0-.17,0-.33,0-.5a27.25,27.25,0,0,0-1.24-6.41q-1.43-5.16-2.79-5.16a1,1,0,0,0-.66.29c-.47.68-.9,1.27-1.3,1.78l-2.25,3.62a4.18,4.18,0,0,0-.42.89c0,.2.18.48.53.83A34.25,34.25,0,0,1,296.47,215.88Z"/><path class="cls-1" d="M300.41,218.07h-3.7q-1.35,1.4-8,1.4h-1.49v9h1.49Q299.26,228.43,300.41,218.07Z"/><polygon class="cls-1" points="296.17 235.85 292.55 232.05 288.87 236.15 292.73 240.18 296.17 236.44 299.61 240.18 303.53 236.15 299.61 232.05 296.17 235.85"/><path class="cls-1" d="M315.63,212.53a1.41,1.41,0,0,0,.72-.27,1.57,1.57,0,0,1,.89-.26q1.89,0,7.24,4.18a27.66,27.66,0,0,1,4.53,4.18h3.36a16.63,16.63,0,0,0-1.84-6.7,32,32,0,0,0-5.4-6.53c-3.08-3.08-5.28-4.63-6.59-4.63-.35.08-1.06,1.49-2.1,4.21a22.87,22.87,0,0,0-1.58,5C314.86,212.25,315.12,212.53,315.63,212.53Z"/><path class="cls-1" d="M326.79,224a34.58,34.58,0,0,1-7.42.78q-6.71,0-7.77-1.67a3.63,3.63,0,0,1-.53-2c-.2-1.14-.54-1.72-1-1.72-.64,0-1.15,1.13-1.54,3.39a24.92,24.92,0,0,0-.42,4.15q0,7,10.26,7,7.89,0,11-2.91c1.86-1.73,2.87-4.59,3-8.54h-2.78A5.87,5.87,0,0,1,326.79,224Z"/><polygon class="cls-1" points="364.39 197.69 368.3 201.49 372.51 197.28 368.3 193.18 364.44 196.98 360.59 193.18 356.49 197.28 360.53 201.49 364.39 197.69"/><path class="cls-1" d="M392.09,218.76c-1.15-.55-1.71-1.16-1.71-1.84.11-.4.25-.81.41-1.25a5.67,5.67,0,0,0,.59-1.72.79.79,0,0,0-.83-.77c-.32,0-1.17.71-2.55,2.14a26.44,26.44,0,0,1-8.4,5.68l4.55,4.55a19.35,19.35,0,0,0,3.67-4.3q1.6,7.19,8.13,7.18h1.19v-9h-2A6.75,6.75,0,0,1,392.09,218.76Z"/><path class="cls-1" d="M344.74,216.09c.08-.87.14-1.58.18-2.14v-.77c0-.87-.21-1.3-.65-1.3-.6,0-1.17,1.06-1.72,3.08a22.55,22.55,0,0,0-.95,5.94q.06,6.76,4.33,9.67c2.45,1.72,6.06,2.69,10.81,3v-8.86Q344.74,223.66,344.74,216.09Z"/><path class="cls-1" d="M375.9,222.44a48.39,48.39,0,0,1-15.43,2.38l-1.54,0v8.8l.71,0a44.39,44.39,0,0,0,16.7-3.3,29.14,29.14,0,0,0,6.09-3.36l-5-5C376.9,222.08,376.41,222.27,375.9,222.44Z"/><path class="cls-1" d="M412.15,219.59c-1.32-2.73-2-4.85-2-6.35,0-2.13.87-3.18,2.62-3.14s3.14,1.26,4.32,3.65a.2.2,0,0,1,0,.08l2.06-2.05a12.66,12.66,0,0,0-1.27-2q-2.25-3-5.15-3a6.56,6.56,0,0,0-5.08,2.1,7.56,7.56,0,0,0-1.93,5.31q0,1.37.06,2.25a3,3,0,0,1,.06.37q0,2.66-6.05,2.66v9h.41a5.57,5.57,0,0,0,4.28-1.87,11.84,11.84,0,0,0,2.55-5.25,27.42,27.42,0,0,0,2.51,4.59q2-2,4-4A12.46,12.46,0,0,1,412.15,219.59Z"/><path class="cls-1" d="M420.66,215.44c-.15-.53-.31-1-.49-1.53L418,216a14,14,0,0,1,.84,4.62c0,2-.75,3-2.25,3a3,3,0,0,1-1.39-.35q-2.12,2.14-4.25,4.28a6,6,0,0,0,4.34,2.13,5.52,5.52,0,0,0,4.86-2.56,9,9,0,0,0,1.6-5.45A23.73,23.73,0,0,0,420.66,215.44Z"/><path class="cls-1" d="M434.19,214.19a5.36,5.36,0,0,1,3.2,1.11.89.89,0,0,1,.3-.06h6.39q-2.32-8.94-8.05-8.94c-2.1,0-3.92,1.44-5.49,4.27l3.63,3.62Z"/><path class="cls-1" d="M444.58,217.43h-5.12a16.68,16.68,0,0,1,1.26,2h-3.14c-4.64,0-6.95-.71-6.95-2.13a2.9,2.9,0,0,1,1.13-2,2.85,2.85,0,0,1,.23-.26l-2.46-2.46c-1.71,4.06-2.58,7.42-2.58,10.08a4.38,4.38,0,0,0,2.91,4.36q2.91,1.22,12.16,1.22a7.25,7.25,0,0,1-.65,2.65h2.84c.15-.84.28-1.69.37-2.54h7.24v-9h-6.89C444.83,218.76,444.71,218.09,444.58,217.43Z"/><path class="cls-1" d="M436.21,237.1a42.47,42.47,0,0,1-9.61,5.63q-4.82,2-4.81,2.73c.08.6,2,1.07,5.87,1.43q4.09.41,7,.41,1.95,0,4.63-3.91a29.87,29.87,0,0,0,3.26-6.53,34.88,34.88,0,0,0,1.16-3.69H440.1A21.37,21.37,0,0,1,436.21,237.1Z"/><path class="cls-1" d="M474.66,218.61a13.88,13.88,0,0,1-4.12-3.76,38,38,0,0,1-3.8-5.76l-.95-1.68-4.18,4.21,1.8,3.11a7.14,7.14,0,0,1,1.19,2.79c0,.51-.56,1-1.66,1.36a11.39,11.39,0,0,1-3.86.59h-4.63v9h2.79a9.45,9.45,0,0,0,6.35-2,13.29,13.29,0,0,0,3.68-5.69q3.51,4.68,6.62,6.2c2.07,1,5.09,1.51,9,1.51h4.16v-9h-5.22Q476.41,219.47,474.66,218.61Z"/><path class="cls-1" d="M459.85,197.52a1.87,1.87,0,0,0-1.06,1.36l-.77,2.26a9.89,9.89,0,0,0-.78,3c1.15,2.14,2.21,4,3.21,5.46v0l4.22-4.23-1.68-3c1.5-.67,19.71-7,24.27-8.54v-5.82q-13.25,4.33-17.92,6Z"/><path class="cls-1" d="M503.79,218.4a65.4,65.4,0,0,1-12.91,1.07v9h2.26a33.84,33.84,0,0,0,11.1-1.72,51,51,0,0,0,10.08-5.16l.2-.12q-2.35-2.35-4.72-4.7A46.2,46.2,0,0,1,503.79,218.4Z"/><path class="cls-1" d="M528.27,210.45a75.5,75.5,0,0,1-19.7-5.28c-3.05-1.18-5.1-1.78-6.18-1.78q-3.43,0-6,4.1t-2.52,5.45c0,.48.2.72.59.72s.72-.36,1.31-1.07c1.22-1.62,2.51-2.44,3.86-2.44a18,18,0,0,1,5.22,1.49q4.28,1.73,9.49,3.26c-.77.36-1.55.68-2.32,1l4.41,4.37a23.83,23.83,0,0,1,4.5-2.21,15,15,0,0,1,4-.71,4.58,4.58,0,0,0,.89,0,4.2,4.2,0,0,0,.83.06c.4-.07.79-.47,1.19-1.18L530.1,212a2.53,2.53,0,0,0,.42-.71Q530.52,210.75,528.27,210.45Z"/><path class="cls-1" d="M543.08,214.85a27,27,0,0,1,2.81-2.12v-3.59a28.35,28.35,0,0,0-4.72,3.36,10.14,10.14,0,0,0-1.54,3,10,10,0,0,0-.65,3.17,3.2,3.2,0,0,0,.56,1.54,3.07,3.07,0,0,0,1.05.64l4.86-4.87A12,12,0,0,1,543.08,214.85Z"/><path class="cls-1" d="M557.73,217.87q-1-1.91-1.84-7.65l-1.24-9c-.32-2.42-.64-3.62-1-3.62s-1.05.86-2.34,2.58-1.93,2.82-1.93,3.29a28.29,28.29,0,0,0,.3,3.33c-.58.35-1.12.67-1.63,1v3.58c.66-.4,1.36-.79,2.1-1.2a52.6,52.6,0,0,0,1.14,7.24q-1.94-.33-3.48-.72l-5,5,1.25.42a27.83,27.83,0,0,0,4.62,1.24c.36,0,.93-.63,1.72-1.9l1.25-2a15.56,15.56,0,0,0,2.67,7c1.07,1.35,3,2,5.81,2h1.78v-9h-1.12A3.23,3.23,0,0,1,557.73,217.87Z"/><path class="cls-1" d="M577.84,209q-1.43-5.16-2.78-5.16a1,1,0,0,0-.66.29c-.47.68-.91,1.27-1.3,1.78l-2.26,3.62a4.45,4.45,0,0,0-.41.89c0,.2.17.48.53.83a34.8,34.8,0,0,1,4,4.57h4.14c0-.14,0-.27,0-.41A26.89,26.89,0,0,0,577.84,209Z"/><path class="cls-1" d="M567.23,219.47h-1.49v9h1.49q10.6,0,11.72-10.45h-3.62C574.51,219,571.82,219.47,567.23,219.47Z"/><polygon class="cls-1" points="569.3 237.75 573.28 241.96 577.43 237.75 573.28 233.6 569.3 237.75"/><rect class="cls-1" x="409.97" y="267.73" width="170.6" height="11.55"/></svg>