<svg id="Layer_1" data-name="Layer 1" xmlns="http://www.w3.org/2000/svg" viewBox="0 0 595.28 841.89"><defs><style>.cls-1{fill:#231f20;}</style></defs><path class="cls-1" d="M498.05,582.33a17.44,17.44,0,0,1-4.65-.81A9.57,9.57,0,0,0,491,581c-.74,0-1.11.4-1.11,1.18,0,.94,2,1.92,6.05,3a43.35,43.35,0,0,0,10.41,1.62q7.25,0,10.82-5.69,3.09-4.87,3.51-14.74h-9.44a30.06,30.06,0,0,1-2.67,9.57A11.09,11.09,0,0,1,498.05,582.33Z"/><path class="cls-1" d="M502.41,533.59a15.64,15.64,0,0,0-1.11,6.72l-.08,9.31c0,2.63-.35,4.3-.94,5V559a8.12,8.12,0,0,0,1.83.18,4.1,4.1,0,0,0,3.84-2,16.59,16.59,0,0,0,1.11-6.94V539.06a8,8,0,0,1,.35-2.84v-4.5c-.38,0-.77-.05-1.16-.05C504.32,531.67,503.05,532.31,502.41,533.59Z"/><path class="cls-1" d="M489.19,548.58a24.94,24.94,0,0,0,5.17,7.1,15.29,15.29,0,0,0,3.77,2.63v-3.68q-1.58-1.49-1.41-7.23l.59-18.09H486.16v3.92Q486.16,542.53,489.19,548.58Z"/><path class="cls-1" d="M511.34,544.6a97,97,0,0,1,.59,10.63q0,4.29-.3,7.87h9.17V563q0-15-3.14-23.15-2.48-6.41-8.1-7.77v4.85Q510.7,539,511.34,544.6Z"/><path class="cls-1" d="M480.81,497.78a20.79,20.79,0,0,0,1.77,2.9,17.47,17.47,0,0,1,5.06-.79q3.76,0,3.77,2.8,0,3.1-5.1,5.58c-3.4,1.65-6,2.47-7.91,2.47-2.65,0-4-1.08-3.91-3.25s1.57-3.91,4.54-5.39l.46-.21a29.36,29.36,0,0,1-1.68-3,17.47,17.47,0,0,0-3.68,2.19q-3.76,2.81-3.77,6.42a8.16,8.16,0,0,0,2.62,6.32,9.42,9.42,0,0,0,6.61,2.4c1.13,0,2.07,0,2.81-.08a3,3,0,0,1,.44-.07q3.32,0,3.32,7.53h11.15v-.51a6.9,6.9,0,0,0-2.33-5.32,14.58,14.58,0,0,0-6.53-3.18q10.49-4.65,10.49-10.26a6.89,6.89,0,0,0-3.18-6.06,11.2,11.2,0,0,0-6.79-2,29.81,29.81,0,0,0-7.83,1.41Z"/><path class="cls-1" d="M461.05,487.33q9.46-13.65,19.22-16.28c-.9-.88-1.79-1.77-2.68-2.66A38.67,38.67,0,0,0,458,477.88c-.49-2.66-1.07-4-1.77-4q-.74.15-1.47,2.52a13.56,13.56,0,0,0-.82,2l-1.47,3a22.59,22.59,0,0,1-2.95,4.36,4.69,4.69,0,0,0-1,1.41c0,.39.71.73,2.14,1l6.06,1.18a14.38,14.38,0,0,0,2.29.29C459.31,489.62,460,488.86,461.05,487.33Z"/><path class="cls-1" d="M482.24,467.69c-.69.07-1.35.18-2,.27l2.6,2.59c.53-.07,1.05-.11,1.58-.13a106.49,106.49,0,0,1,9.23,17.14c1.09,2.41,1.8,3.61,2.14,3.61,1,0,1.53-3.24,1.48-9.75-.05-4.37-.52-7.38-1.4-9q-1.63-2.88-12.56-8.79c-1.36-.72-2.69-1.41-4-2.08l-2.34,2.34A52.41,52.41,0,0,1,482.24,467.69Z"/><path class="cls-1" d="M484.13,451.33q-2,1.16-7.72,1.15l-19.12-.59c-1.58-.05-3.2-.07-4.88-.07-2.5,0-3.76.39-3.76,1.18,0,.44.32.8,1,1.07a17.81,17.81,0,0,0,4,.77,51.71,51.71,0,0,1,15.14,4.66c2.24,1,4.33,2.11,6.29,3.25.74-.74,1.47-1.48,2.21-2.21-2.86-1.41-5.65-2.73-8.35-3.92q7.68.66,15.29.66,13.14,0,13.14-10.34v-.66H486.16a.65.65,0,0,1,.15.58C486.16,449.09,485.44,450.57,484.13,451.33Z"/><path class="cls-1" d="M482,405.14v-3.66c-1.42.06-3.05.23-4.92.5-4.18.64-6.28,1.58-6.28,2.81,0,.1.2.27.59.52l3.7,2.51c.84.34,1.2.52,1.1.52a11.66,11.66,0,0,0,1.18-.67A17.45,17.45,0,0,1,482,405.14Z"/><path class="cls-1" d="M480.55,429.83c-1.18.19-1.78.54-1.78,1s.84,1,2.22,1.1a7.39,7.39,0,0,1,4,1.85c.77.83,1.15,2.39,1.15,4.66v3.1h11.15V439.5q0-5.25-4.87-8.42,4.21-2.4,4.72-6.05H486C485.68,427.72,483.89,429.33,480.55,429.83Z"/><path class="cls-1" d="M486,410q-.06,6.19-5.61,6.86c-1.13.2-1.7.57-1.7,1.11s.79.84,2.37,1.19a8.18,8.18,0,0,1,3.84,1.77,3.88,3.88,0,0,1,1,2h11.24c-.42-2-2-3.87-4.67-5.61q4.72-2.88,4.72-6.79a7.19,7.19,0,0,0-3.54-6.21,17.73,17.73,0,0,0-8.71-2.73c-.24,0-.5-.05-.76-.06v3.84C485.42,405.93,486.05,407.47,486,410Z"/><path class="cls-1" d="M446.88,380.8q0,1.11,7.6,10.63l26.66-2.95q13.67-1.56,14.62-2.07c.59-.2.89-.54.89-1a.79.79,0,0,0-.37-.73,52.5,52.5,0,0,0-7.38-1.19l-30.06-2.21-11.23-.89C447.12,380.31,446.88,380.45,446.88,380.8Z"/><path class="cls-1" d="M488.3,354.87a28.61,28.61,0,0,1-7.23-1.19,10.73,10.73,0,0,0-2.67-.51c-.73,0-1.1.31-1.1,1q.07,1.55,6.39,3.54a39.45,39.45,0,0,0,11.85,2q8.56,0,12.7-5.7c2.61-3.57,4-9.17,4.11-16.73H501.82a35,35,0,0,1-1.7,8.76Q496.94,354.87,488.3,354.87Z"/><path class="cls-1" d="M483.5,308.56a56.65,56.65,0,0,0-1.33,8.86c-.44,4-1,6.77-1.7,8.2-.29,1.13-.71,1.7-1.25,1.7a5.6,5.6,0,0,1-2.57-.83l-2.23,2.23a25,25,0,0,0,11.08,2.73c2.85,0,4.8-1.89,5.83-5.68a61.6,61.6,0,0,0,1.11-9.09,53.61,53.61,0,0,1,1.33-8.71,2.47,2.47,0,0,1,1.13-1.34v-2.94a32.11,32.11,0,0,0-3.79-.22,8.7,8.7,0,0,0-5.1,1.22A7.12,7.12,0,0,0,483.5,308.56Z"/><path class="cls-1" d="M471.91,301.84a9.66,9.66,0,0,0-7.31,3.33,10.65,10.65,0,0,0-3.11,7.45q0,7.61,8.5,13.52c.81.55,1.63,1.05,2.44,1.52l2.38-2.38c-.43-.32-.88-.66-1.35-1.06q-3.31-3.25-3.25-9.45.07-7.45,1.92-11.9a6.09,6.09,0,0,0,.37-.88A1.32,1.32,0,0,0,471.91,301.84Z"/><path class="cls-1" d="M502.11,329.83c0,1.47,0,2.85-.09,4.18h10.33c-.14-6.86-1-12.48-2.63-16.81q-2.66-7.38-6.8-10.56a14.83,14.83,0,0,0-5.87-2.57v2.81Q502.11,309.48,502.11,329.83Z"/><path class="cls-1" d="M482.91,278.8q-4,2.37-4,3.4c0,.34,1.37,1.33,4.13,2.95a30.11,30.11,0,0,0,4.8,2.51,2.38,2.38,0,0,0,.59-.74q6.54-8.1,10.31-8.72v-3.37q-1.27-.09-2.55-.09a23.54,23.54,0,0,0-8.35,1.47A33.85,33.85,0,0,0,482.91,278.8Z"/><path class="cls-1" d="M505.84,282.34q4.32,4.21,9.56,15.29,2.29,4.8,2.89,4.8c.78,0,1.35-1.94,1.69-5.84.39-4.08.59-7.31.59-9.67a4.63,4.63,0,0,0-1.1-3.17,23.62,23.62,0,0,0-5.1-3.91,34,34,0,0,0-13.46-4.79v3.5A19.85,19.85,0,0,1,505.84,282.34Z"/><path class="cls-1" d="M479.59,258.49a6.3,6.3,0,0,1,.66-2.77q-3.22-3.28-6.47-6.55a8.26,8.26,0,0,0-4,7q0,4.74,7.72,8c.9.38,1.77.72,2.62,1a38.37,38.37,0,0,0,.87-3.82A3.45,3.45,0,0,1,479.59,258.49Z"/><path class="cls-1" d="M508.09,256a52.73,52.73,0,0,1,7,12c1.67,4,2.81,6,3.39,6q1.11-.15,1.78-7.31c.34-3.4.52-6.3.52-8.72q0-2.43-4.88-5.76a37,37,0,0,0-8.12-4.06,41.53,41.53,0,0,0-7-2v3.6A21.63,21.63,0,0,1,508.09,256Z"/><path class="cls-1" d="M476.75,247.58q2.73,2.74,5.45,5.52a17.89,17.89,0,0,1,4-2.73v3.91c0,5.2-.72,8-2.16,8.55-.23,1.17-.5,2.32-.83,3.46a25.1,25.1,0,0,0,7.05,1.21,5.44,5.44,0,0,0,5.43-3.61q1.52-3.63,1.51-15.14a8.81,8.81,0,0,1,1.51.2v-3.2c-.46-.06-.91-.14-1.36-.18v-9H486.16v8.56A38.3,38.3,0,0,0,476.75,247.58Z"/><path class="cls-1" d="M474.57,207.34a6.19,6.19,0,0,0-4.21,1.55,4.42,4.42,0,0,0-1.55,3.54q0,4.29,4.58,9.46c.37.42.77.84,1.18,1.23q1.68-1.67,3.33-3.36a4.61,4.61,0,0,1-.38-1.93c0-2,.91-3,2.74-3q2.5,0,5.9,3.92v7.31a14.37,14.37,0,0,1-6.28-3.54l-.09-.11-2.72,2.74a30.53,30.53,0,0,0,9.09,4.31v4.65h11.15v-4.44c5.47-1,9.53-3,12.18-6.05a16.45,16.45,0,0,0,3.28-5.45h-7a13.92,13.92,0,0,1-1.74,3.72,11.38,11.38,0,0,1-6.76,4.68V220a56.55,56.55,0,0,1,3.1-4.8c1.83-2.51,3.15-3.77,4-3.77.35,0,.75.27,1.22.82a3.76,3.76,0,0,1,.7,2.51c0,.08,0,.17,0,.25h7.13c0-.28,0-.56,0-.85a7.67,7.67,0,0,0-.82-3.76,6.6,6.6,0,0,0-6.28-3.55q-4.58,0-9.08,7v-10H486.16v10.42Q480.63,207.35,474.57,207.34Z"/><path class="cls-1" d="M468.81,182.44a10.32,10.32,0,0,0,1.69,5.24,8.8,8.8,0,0,0,4.07,3,15.56,15.56,0,0,0,5.46,1.11,14.35,14.35,0,0,1,3.7.7,3.31,3.31,0,0,1,1.84,2.29,18.8,18.8,0,0,1,.59,5.5h11.15a11.78,11.78,0,0,0-1.4-5.61c-.89-1.38-3-3-6.35-4.95q7.56-4,8.38-9.19H488l0,0a12.43,12.43,0,0,1-4.62,3.47,12.28,12.28,0,0,1-5.58,1.56,7.18,7.18,0,0,1-2.81-1,4,4,0,0,1-.88-2.66,4.59,4.59,0,0,1,1.66-3.17,9,9,0,0,1,.78-.66c-1-1-1.93-1.93-2.9-2.89Q468.72,179,468.81,182.44Z"/><path class="cls-1" d="M483.36,169.22q-3,2-4.73,2.88c-.82.44-1.59.89-2.31,1.33l3,3q.81-.39,1.74-.78a16.18,16.18,0,0,1,5.83-1.56c1.77,0,2.66.84,2.66,2.52a3.83,3.83,0,0,1-.09.73h8.32a4.2,4.2,0,0,0-1.21-2.13,17.47,17.47,0,0,0-5.4-3.85q6.13-2.73,6.13-7.68v-2.36H486.16a12.47,12.47,0,0,1-.74,4.72A10.42,10.42,0,0,1,483.36,169.22Z"/><polygon class="cls-1" points="513.86 136.63 518.95 131.54 513.86 126.44 508.69 131.61 513.86 136.63"/><path class="cls-1" d="M478.93,153.25c0-.35-.45-.89-1.33-1.62-2-1.53-3-3.13-3-4.81,0-1.18.61-3.34,1.84-6.5.08-.18.15-.38.22-.56l-7.09-7.06c-.37,1-.76,2-1.18,3.05-1.47,3.79-2.21,6.34-2.21,7.68q0,4.29,5.1,7.42T478,154C478.63,154,478.93,153.74,478.93,153.25Z"/><path class="cls-1" d="M474.93,111.23a85.69,85.69,0,0,1-4.19,18.11l7.14,7.11c.9-2.49,1.76-5.12,2.59-7.94a60.75,60.75,0,0,1,4.36,13.18,81.9,81.9,0,0,1,1.33,16.06h11.15V155a42,42,0,0,0-2.14-13.81,62.93,62.93,0,0,0-6.43-12.56q-3.69-6-4.35-8.27a18.48,18.48,0,0,1-.89-4.94,5.5,5.5,0,0,0,.07-1.11,5.32,5.32,0,0,0,.08-1c-.1-.5-.59-1-1.48-1.48l-5.31-2.81a2.87,2.87,0,0,0-.89-.51C475.53,108.43,475.18,109.36,474.93,111.23Z"/><path class="cls-1" d="M480.4,93.91a34.23,34.23,0,0,1-2.28-3c-.9.9-1.79,1.82-2.7,2.72a15.12,15.12,0,0,0,2.07,2.62A14.72,14.72,0,0,0,485.13,99a4,4,0,0,0,1.91-.7,3.41,3.41,0,0,0,.74-1.19l-6-6A14.73,14.73,0,0,1,480.4,93.91Z"/><path class="cls-1" d="M484.17,75.68q-2.35,1.26-9.53,2.28l-11.22,1.56c-3,.39-4.51.78-4.51,1.18S460,82,462.12,83.61s3.51,2.4,4.1,2.4a34.48,34.48,0,0,0,4.14-.37c1.24,2,2.32,3.8,3.25,5.27.92-.91,1.82-1.84,2.72-2.76-.58-1-1.17-2-1.76-3.09a66.2,66.2,0,0,0,9-1.41c-.24,1.43-.51,2.71-.8,3.9L489,93.81c.12-.36.24-.75.37-1.15A34.19,34.19,0,0,0,491,86.9c0-.44-.78-1.16-2.36-2.14l-2.51-1.56q5.84-1,8.71-3.31c1.68-1.33,2.51-3.75,2.51-7.24V70.43H486.16v1.4A4,4,0,0,1,484.17,75.68Z"/><path class="cls-1" d="M481.07,50.25a33.88,33.88,0,0,0-8,1.56c-4.28,1.18-6.43,2.34-6.43,3.47a1.15,1.15,0,0,0,.37.81c.84.59,1.58,1.13,2.22,1.63l4.51,2.8a5.12,5.12,0,0,0,1.1.51c.25,0,.6-.21,1-.66q5.84-5.76,7.53-5.76,2.73,0,2.73,10.41v1.85h11.15V65Q497.31,50.26,481.07,50.25Z"/><polygon class="cls-1" points="508.9 62.44 514.15 57.49 508.9 52.32 503.74 57.49 508.9 62.44"/><circle class="cls-1" cx="233.36" cy="106.89" r="63.39"/><rect class="cls-1" x="322.76" y="25" width="100" height="464.9"/><path class="cls-1" d="M172.86,463.89a29.5,29.5,0,0,1,29.46,28h87V347.08c-.61-37.9-10.22-71.3-28.56-99.25-15-22.84-35.39-41.44-60.64-55.28-40-21.91-79-24.39-83.35-24.6l-4.88,99.88-.47,0c.22,0,22.37,1.66,42.87,13.71,23.3,13.69,34.44,34.92,35,66.81v8.94a138,138,0,0,0-128,134.63h82A29.5,29.5,0,0,1,172.86,463.89Z"/><path class="cls-1" d="M322.76,670.56h-.07a16.33,16.33,0,1,1-32.66,0h-.67V499.89H201.63a29.49,29.49,0,0,1-57.54,0H61.46A138,138,0,0,0,189.36,632.6v39.87h.69a116.53,116.53,0,0,0,92.29,111.92,21.55,21.55,0,0,1,17,21.14v5.14a6.15,6.15,0,0,0,5.19,6.17,6,6,0,0,0,6.81-6v-4.95a21.56,21.56,0,0,1,17.34-21.21,116.54,116.54,0,0,0,94-112.26h.09V497.89h-100Z"/><rect class="cls-1" x="437.5" y="624.24" width="96.38" height="11.55"/></svg>