<svg id="Layer_1" data-name="Layer 1" xmlns="http://www.w3.org/2000/svg" viewBox="0 0 595.28 841.89"><defs><style>.cls-1{fill:#231f20;}</style></defs><path class="cls-1" d="M575.81,256.19c8.09-132.61-83.28-188.4-83.28-188.4-23.45-7.28-79.24,102.69-79.24,102.69l-15.37,29.11c-15.36,29.1,11.32,25.87,11.32,25.87,32.35-3.23,31.54,24.26,31.54,24.26,8.89,55-54,53.65-54,53.65V484.64C600.48,460.82,575.81,256.19,575.81,256.19Z"/><circle class="cls-1" cx="356.28" cy="105.41" r="48.8" transform="translate(29.81 282.8) rotate(-45)"/><path class="cls-1" d="M69,471.45s42.66,24.77,88.67,15.42V304.34c-4.31-.78-9-3.36-13.49-10.68-2.73-6.35-3.78-21.75,6.15-27a354.24,354.24,0,0,0,33.74-23.42l-8.79-8.79A128.7,128.7,0,0,1,154.12,244c-39,11.38-113.95,29.79-131,96C23.15,340-2.39,428.89,69,471.45Z"/><path class="cls-1" d="M324.34,268.6s-.06-.71-.21-2H199c-6.58,17.8-17.08,35.14-33.36,37.72V484.89c26.67-7.78,53.7-28,73.55-72.08,0,0,22.22,90.31,135.23,73.29v-182h-9S337.11,306.9,324.34,268.6Z"/><path class="cls-1" d="M163.58,140.46s32.15-5.67,46.34,26.48c0,0,11,36.62-27.67,63.21l8,8c6.94-6.15,12.46-12.29,14-17.28,0,0,5.2-7.09,4.73,4.26a205.65,205.65,0,0,1-7.23,33.46H323c-5.34-33.23-30.22-137.23-132-130.86,0,0-17.5-.11-39,8.21l6.28,6.26C159.91,141.59,161.67,141,163.58,140.46Z"/><path class="cls-1" d="M76.65,715.19q.15-1.86.15-3.87,0-11.66-3.81-19.21t-5.17-7.54a91,91,0,0,0-5,8.3,36.73,36.73,0,0,0-1.52,3.35c.07.13.44.74,1.14,1.82q10.71,10.71,10.61,16.05a6.73,6.73,0,0,1-.12,1.1Z"/><polygon class="cls-1" points="42.1 681.99 48.79 688.38 55.3 681.89 48.79 675.2 42.1 681.99"/><path class="cls-1" d="M23.76,711.61a55.94,55.94,0,0,1,1.44-7.55c.51-2.17.77-3.37.77-3.63,0-.76-.36-1.15-1.06-1.15q-1.9.09-4.11,6.69a41.1,41.1,0,0,0-2.2,13.09,24.06,24.06,0,0,0,1.51,8.83l7.16-7.16A12.24,12.24,0,0,1,23.76,711.61Z"/><path class="cls-1" d="M76.45,717.19H72.16q-1.74,2.94-6.82,5.27-7.65,3.48-19.51,3.49c-7.69,0-13.35-1.32-17-3.93l-7.8,7.8a16.36,16.36,0,0,0,5,5.58q7.34,5.26,20.15,5.26Q73.55,740.66,76.45,717.19Z"/><path class="cls-1" d="M102.23,721.16h3.23V706.93l-2.67-.2q-4-.29-5.51-4.64l-8.34,8.34Q92.09,721.16,102.23,721.16Z"/><path class="cls-1" d="M87.6,691.73c-.06,4.53-.09,6.93-.1,7.22a47.21,47.21,0,0,0,.87,9.22l8.32-8.32a27.06,27.06,0,0,1-.4-5c0-2.61.07-5.36.19-8.23l.77-15.09.29-9.18a31.26,31.26,0,0,0-.1-4.58c-.19-.77-.57-1.15-1.15-1.15q-1.62,0-9,7.74c.32,5.22.48,10.58.48,16.05,0,.71,0,2.2-.09,4.49Q87.6,688.87,87.6,691.73Z"/><polygon class="cls-1" points="118.4 726.71 112.48 733.59 118.5 740.09 124.23 733.88 130.36 740.09 136.09 733.59 130.36 726.99 124.23 733.01 118.4 726.71"/><path class="cls-1" d="M138.38,706.73h-2.5q-8.67,0-10.6-11.08c-.31-2-.76-3-1.34-3s-1,1-1.33,3q-2.2,11.08-11.18,11.08h-1.91v14.43c4.14,0,7.3-.92,9.51-2.77s3.83-4.74,4.91-8.7a18.8,18.8,0,0,0,3.65,7.89q2.76,3.58,10.79,3.58Z"/><polygon class="cls-1" points="163.35 666.79 156.66 660.2 150.26 666.7 156.85 673.48 163.35 666.79"/><path class="cls-1" d="M144.82,706.73h-2.4v14.43h2.4q17,0,18.87-16.74h-5.9C156.4,706,152.09,706.73,144.82,706.73Z"/><path class="cls-1" d="M163.93,700.14c0-2.1-.67-5.55-2-10.32-1.52-5.54-3-8.31-4.48-8.31a1.48,1.48,0,0,0-1.06.47c-.76,1.09-1.46,2-2.11,2.87l-3.62,5.83a6.62,6.62,0,0,0-.67,1.43c0,.32.29.76.85,1.34,4.24,4.28,6.66,7.27,7.29,9h5.75C163.9,701.68,163.93,700.92,163.93,700.14Z"/><path class="cls-1" d="M179.9,719.15c.25.77.7,1.15,1.33,1.15a1,1,0,0,0,1-.47,70.17,70.17,0,0,0,1.52-9.56l2.88-38.89,1.14-14.53c.06-.63-.13-1-.58-1q-1.44,0-13.75,9.85l3.81,34.5Q179.24,717.91,179.9,719.15Z"/><path class="cls-1" d="M207.1,708a15.42,15.42,0,0,1-6.59-1.33c-2.43-1.21-3.63-2.93-3.63-5.16,0,.06.09-.64.28-2.1.07-.71.1-1.41.1-2.11S197,696,196.4,696q-1.71,0-3,6.6a45.83,45.83,0,0,0-.94,8.22c0,6.82,3.52,10.22,10.6,10.22s13.41-3,18.66-8.83l-5.68-5.68A25.33,25.33,0,0,1,207.1,708Z"/><path class="cls-1" d="M230.79,689.06l-4.19-13.29c-.84-2.6-1.4-3.91-1.73-3.91s-1,.79-2.19,2.38c-1,1.28-1.72,2.2-2.1,2.77-1.34,1.47-2,2.49-2,3.07,0-.07.26.7.77,2.29l6.69,18a28.9,28.9,0,0,1-7.93,5.41l5,5a45.87,45.87,0,0,0,4.3-6.46q3.27,8.6,6.42,12.76a9.64,9.64,0,0,0,8,4.15H244V706.73h-2.29Q236.35,706.73,230.79,689.06Z"/><polygon class="cls-1" points="268.97 666.79 262.28 660.2 255.86 666.7 262.47 673.48 268.97 666.79"/><path class="cls-1" d="M269.44,702.89h-5.57a1.71,1.71,0,0,1,0,.31q0,3.52-13.48,3.53H248v14.43h2.39Q268.24,721.16,269.44,702.89Z"/><path class="cls-1" d="M256.44,693.45a55.63,55.63,0,0,1,6.47,7.44h6.6c0-.26,0-.49,0-.75,0-2.1-.66-5.55-2-10.32-1.54-5.54-3-8.31-4.5-8.31a1.45,1.45,0,0,0-1,.47c-.77,1.09-1.47,2-2.11,2.87l-3.62,5.83a6.62,6.62,0,0,0-.67,1.43C255.59,692.43,255.86,692.87,256.44,693.45Z"/><polygon class="cls-1" points="296.21 676.06 289.63 669.47 282.94 675.96 289.63 682.65 296.21 676.06"/><path class="cls-1" d="M287.52,732.77q-6.39,5.33-18.82,11.33c-4.14,2-6.21,3.28-6.21,3.92q0,1.34,8.51,2.2,6.39.57,11.56.57a7.1,7.1,0,0,0,4.11-1.34,42.86,42.86,0,0,0,5.06-6.59,46.53,46.53,0,0,0,4.83-11.52,51.35,51.35,0,0,0,1.23-5.46h-4.46C292.44,728,290.52,730.29,287.52,732.77Z"/><path class="cls-1" d="M288.67,697c-.45,0-1.73,1.8-3.87,5.4s-3.2,5.65-3.2,6.16a10.79,10.79,0,0,0,1,.86q11.37,8.9,11.36,13.86c0,.2,0,.4-.05.61h4.2a33.66,33.66,0,0,0,.25-4.62,29.86,29.86,0,0,0-4.3-15.67Q289.93,697,288.67,697Z"/><path class="cls-1" d="M27.28,576c0-.95-.41-1.43-1.23-1.43-1.34.06-2.88,2.81-4.59,8.26a51.08,51.08,0,0,0-2.58,15.34,27.8,27.8,0,0,0,.41,4.87c2.42-2.39,4.85-4.79,7.25-7.2a16.4,16.4,0,0,1-1.45-7,37.53,37.53,0,0,1,1.52-9.36A13.43,13.43,0,0,0,27.28,576Z"/><path class="cls-1" d="M55.39,585.21q0,5.53,7.36,7.54,2.18.68,11.75,1.44a68,68,0,0,1,11.28,1.72c1.26.57,1.9,1.31,1.9,2.2A5.22,5.22,0,0,1,85,602.49l3.62,3.63q3-5.14,3-13.65c0-2.94-.51-5.13-1.57-6.6a9.21,9.21,0,0,0-5-3.25,73,73,0,0,0-11.47-1.72q-7.85-.85-10.6-2.2c-1.48-.38-2.21-.92-2.21-1.62a4.56,4.56,0,0,1,.18-1.16h-4A30.38,30.38,0,0,0,55.39,585.21Z"/><path class="cls-1" d="M64.75,569.63Q69,565.33,77,565.42q9.66.11,15.38,2.49a9.36,9.36,0,0,0,1.15.48,1.59,1.59,0,0,0,.19-.77,12.48,12.48,0,0,0-4.3-9.46,13.85,13.85,0,0,0-9.65-4c-6.57,0-12.38,3.67-17.48,11a42.6,42.6,0,0,0-4.68,8.78h4.13A26.25,26.25,0,0,1,64.75,569.63Z"/><path class="cls-1" d="M87.44,607.81l-4.33-4.32q-7.17,3.21-25.63,3.21c-9.24,0-16.2-.85-20.93-2.58-4.1-1.47-7.08-3.62-9-6.44-2.57,2.57-5.16,5.12-7.75,7.68a16.84,16.84,0,0,0,6.42,9.27Q33.6,620,49.64,620q15,0,24.19-3.44Q83.32,613.13,87.44,607.81Z"/><path class="cls-1" d="M106.67,574.84l-.07.1h8.05q2.88-1.91,6.55-3.88a37.48,37.48,0,0,0,.63,5.16h9.4c-.29-1.5-.57-3.17-.85-5.06l-2-14.53q-.75-5.83-1.53-5.83c-.44,0-1.71,1.39-3.78,4.16s-3.09,4.54-3.09,5.3a45,45,0,0,0,.47,5.36Q108.1,573.08,106.67,574.84Z"/><path class="cls-1" d="M140.12,586.06h-1.81c-2.36,0-4-.85-5-2.57a22.86,22.86,0,0,1-1.7-5.27h-9.46c.24,1.34.52,2.83.85,4.5-1.84-.32-3.49-.66-5-1v10.47a4.59,4.59,0,0,0,.8.11c.56,0,1.49-1,2.77-3l2-3.25q1.34,7.54,4.3,11.27,2.58,3.25,9.37,3.25h2.86Z"/><path class="cls-1" d="M116,591.67v-10.5a24.57,24.57,0,0,1-6.29-2.56c.64-.55,1.34-1.11,2.08-1.67h-6.48a21,21,0,0,0-1.14,2.67,16,16,0,0,0-1,5.12,5,5,0,0,0,.9,2.48c.48.64,2.91,1.66,7.31,3.06C113.28,590.88,114.81,591.34,116,591.67Z"/><path class="cls-1" d="M152.72,573.45a9.63,9.63,0,0,1,5.05-3.62l-4.58-4.58a29.13,29.13,0,0,0-2,3.71c-1.19,2.61-1.81,4.33-1.81,5.16s.38,1.24,1.15,1.24C151,575.36,151.77,574.73,152.72,573.45Z"/><path class="cls-1" d="M169.15,582.55a44.72,44.72,0,0,1-5,1.79,58.19,58.19,0,0,1-15,1.72h-4v14.43a80.3,80.3,0,0,0,12.63-1,37.66,37.66,0,0,0,11.36-3.89Z"/><path class="cls-1" d="M195.24,577.84c.07,0,.36,0,.86.1a12.45,12.45,0,0,0,1.43.1,32.37,32.37,0,0,0,4.21.38,8.15,8.15,0,0,0,1.82-.34c.18-.09.37-.39.58-.91l.37-.48,3.44-7.06a3.4,3.4,0,0,0,.48-1.72c0-.39-.1-.57-.29-.57-.75-.07-1.44-.13-2-.2a129.08,129.08,0,0,1-32.59-6.4q-6.5-2.1-9.74-2.1-5.52,0-9.44,5l6.12,6.13a44.25,44.25,0,0,1,5.22,1.14l17.59,4.78c-4.74,2.55-8.78,4.55-12.15,6v12.85a55.6,55.6,0,0,0,6.23-4.18l11.46-8.79a27.76,27.76,0,0,0-.29,3.64,19.42,19.42,0,0,0,1.63,8.31q2.2,4.77,9.83,6.21a76,76,0,0,0,12.24.76V586.06a108.71,108.71,0,0,1-11.36-.48q-8.61-1.14-8.61-5.06C192.28,578.74,193.27,577.84,195.24,577.84Z"/><polygon class="cls-1" points="179.38 615.21 172.98 621.9 179.38 628.49 185.97 621.8 179.38 615.21"/><path class="cls-1" d="M234.06,575c-.3-2-.75-3-1.33-3s-1,1-1.34,3c-1.47,7.39-5.18,11.08-11.17,11.08h-1.91v14.43c4.14,0,7.3-.92,9.51-2.77s3.83-4.75,4.91-8.7a18.9,18.9,0,0,0,3.64,7.89c1.85,2.39,5.44,3.58,10.8,3.58V586.06h-2.5Q236,586.06,234.06,575Z"/><polygon class="cls-1" points="239.15 546.03 232.73 539.43 226.14 545.92 232.73 552.81 239.15 546.03"/><path class="cls-1" d="M283.74,584.68c-1.89-.93-4.09-2.95-6.64-6.07a47,47,0,0,1-3.74-5.24H262.7l2.93,5c1.27,2.17,1.92,3.66,1.92,4.49s-.91,1.56-2.69,2.19a18.09,18.09,0,0,1-6.21,1h-7.46v14.43h4.5c4.26,0,7.69-1.08,10.23-3.25,2.3-1.85,4.26-4.9,5.92-9.17,3.77,5,7.31,8.36,10.66,10s8.2,2.43,14.56,2.43h6.69V586.06h-8.4C289.48,586.06,285.62,585.6,283.74,584.68Z"/><path class="cls-1" d="M259.9,550.71a3,3,0,0,0-1.73,2.19l-1.23,3.63a15.88,15.88,0,0,0-1.25,4.88c1.85,3.44,3.56,6.37,5.17,8.79l.68,1.17h10.61c-.38-.66-.77-1.33-1.16-2l-6-10.7q7.92-3.54,39.07-13.76v-9.37q-21.3,7-28.86,9.65Z"/><path class="cls-1" d="M356.39,566.19c-.12,0-.34.25-.66.76l-3.26,4.78c-.44,1.08-.66,1.56-.66,1.43a12.81,12.81,0,0,0,.87,1.53c2.23,3.22,3.36,5.52,3.42,6.95h4.6a55.36,55.36,0,0,0-.66-7.33C359.2,568.89,358,566.19,356.39,566.19Z"/><polygon class="cls-1" points="346.93 543.63 340.63 536.85 333.94 543.63 340.53 550.23 346.93 543.63"/><polygon class="cls-1" points="334.61 563.61 340.63 557.39 346.66 563.61 353.16 556.82 346.66 550.23 340.63 556.34 334.51 550.23 327.82 557.01 334.61 563.61"/><path class="cls-1" d="M349.7,585.87c-5.34-.06-8.3-2.49-8.88-7.26-.25-1.46-.73-2.2-1.43-2.2s-1.08,1-1.53,3.06a10.6,10.6,0,0,1-2.29,5,6,6,0,0,1-4.4,1.43q-6.1,0-7.17-7.07c-.25-1.53-.7-2.29-1.33-2.29s-1.25,1.08-1.44,2.86c-.51,2.49-1.3,4.23-2.39,5.21s-3.08,1.48-6,1.48h-4v14.43h2.67c4.54,0,8.16-2.1,10.9-6.3q3.54,6.21,9.17,6.21c3.13,0,6-2.07,8.71-6.21,2.48,4.07,5.4,6.12,8.78,6.12s6-1.54,8-4.6a22.86,22.86,0,0,0,3.52-11.27c0-.26,0-.53.06-.8h-5C354.8,585.17,352.82,585.92,349.7,585.87Z"/><path class="cls-1" d="M406,584.21a17.45,17.45,0,0,1-1.29-3.59h-9.57c.17.89.35,1.81.54,2.82q-9.36-1.62-13.29-4.11a45.1,45.1,0,0,1,3.68-2.83L382.57,573a17.91,17.91,0,0,0-3.22,2.55,16.29,16.29,0,0,0-2.48,4.77,16,16,0,0,0-1.05,5.12,5,5,0,0,0,.91,2.48c.48.64,2.91,1.66,7.31,3.06,4.21,1.34,6.69,2,7.46,2,.56,0,1.48-1,2.77-3l2-3.25c.89,5,2.33,8.79,4.29,11.27q2.6,3.25,9.38,3.25h2.86V586.78H411C408.62,586.78,407,585.93,406,584.21Z"/><path class="cls-1" d="M387.78,575.37c1.82-1.18,3.84-2.37,6.09-3.59a50,50,0,0,0,.93,6.84h9.45c-.41-1.88-.81-4.11-1.19-6.74l-2-14.53c-.49-3.89-1-5.83-1.52-5.83s-1.71,1.39-3.78,4.16-3.1,4.54-3.1,5.3a45.5,45.5,0,0,0,.48,5.36c-3.69,2.22-6.63,4.07-8.86,5.53Q386,573.61,387.78,575.37Z"/><path class="cls-1" d="M431.86,561.55a1.51,1.51,0,0,0-1.06.48c-.75,1.09-1.45,2-2.1,2.87l-3.63,5.82a6.36,6.36,0,0,0-.67,1.44c0,.32.29.76.86,1.34q7.47,7.56,7.46,9.75a1.81,1.81,0,0,1-.61,1.32l5,5a31.32,31.32,0,0,0,1.26-9.38c0-2.1-.67-5.55-2-10.32C434.82,564.33,433.31,561.55,431.86,561.55Z"/><polygon class="cls-1" points="422.59 616.22 428.99 623 435.68 616.22 428.99 609.53 422.59 616.22"/><path class="cls-1" d="M419.25,586.78h-2.39v14.43h2.39q12.88,0,17.08-9.59l-6-6Q427,586.79,419.25,586.78Z"/><rect class="cls-1" x="27.18" y="773.72" width="170.6" height="11.55"/><rect class="cls-1" x="21.3" y="514.11" width="170.6" height="11.55"/></svg>