<svg id="Layer_1" data-name="Layer 1" xmlns="http://www.w3.org/2000/svg" viewBox="0 0 595.28 841.89"><defs><style>.cls-1{fill:#231f20;}</style></defs><path class="cls-1" d="M357.28,217.9a41.27,41.27,0,0,0,38.64-26.78h.24v-29h-.24a41.27,41.27,0,1,0-38.64,55.76Z"/><polygon class="cls-1" points="402.3 222.89 402.3 428.54 326.11 428.54 326.11 572.59 570.04 572.59 570.04 222.89 402.3 222.89"/><path class="cls-1" d="M172,397.74a27.64,27.64,0,0,1,27.27,23.13H315.44V276.28H162v.5A148.57,148.57,0,0,0,25.23,422.21H144.55A27.65,27.65,0,0,1,172,397.74Z"/><path class="cls-1" d="M315.44,572.59V428.87h-116a27.64,27.64,0,0,1-54.64,1.34H25.31A148.52,148.52,0,0,0,158.82,572.59Z"/><rect class="cls-1" x="483.97" y="593.37" width="85.3" height="11.55"/><rect class="cls-1" x="42.23" y="694.68" width="118.15" height="11.55"/><path class="cls-1" d="M544.56,639.9q-1.41-2.62-2.54-10.57l-1.73-12.46q-.64-5-1.31-5t-3.23,3.57c-1.78,2.37-2.67,3.89-2.67,4.54a38.32,38.32,0,0,0,.42,4.6c-2.5,1.5-4.59,2.8-6.3,3.9,1,1,2,2,3,3,1.22-.74,2.53-1.5,3.95-2.26a74,74,0,0,0,1.56,10c-1.6-.28-3-.58-4.36-.9q-3.51,3.45-7,6.94l1.34.43a37.68,37.68,0,0,0,6.39,1.73c.49,0,1.28-.87,2.38-2.63L536.2,642q1.14,6.5,3.68,9.67c1.48,1.87,4.16,2.79,8,2.79h2.45V642.11h-1.55A4.46,4.46,0,0,1,544.56,639.9Z"/><path class="cls-1" d="M102.39,639.16a61.59,61.59,0,0,0-9.84-1.48c-4.48-.49-7.51-1.11-9.09-1.88q-1.68-.43-1.86-1.2H77.91a25.85,25.85,0,0,0-.92,6.77c0,3.17,2.09,5.33,6.3,6.47,1.26.39,4.62.79,10.08,1.23a59.69,59.69,0,0,1,9.67,1.48c1.09.49,1.64,1.12,1.64,1.88a3.8,3.8,0,0,1-.06.5h3a32.6,32.6,0,0,0,.41-5.33,9.75,9.75,0,0,0-1.34-5.66A8,8,0,0,0,102.39,639.16Z"/><path class="cls-1" d="M78.78,659.81q-11.88,0-17.94-2.21c-6.56-2.36-9.83-6.72-9.83-13.12a32,32,0,0,1,1.31-8,11.85,11.85,0,0,0,.57-3c0-.81-.35-1.22-1.06-1.22q-1.72.08-3.93,7.08a43.67,43.67,0,0,0-2.22,13.15q0,9.51,6.32,14.1t20.06,4.59q12.87,0,20.74-3,8.19-3,11.71-7.54a16,16,0,0,0,2.69-5.78h-3.43Q99.83,659.81,78.78,659.81Z"/><path class="cls-1" d="M109.84,626.29a10.7,10.7,0,0,0-3.69-8.1,11.82,11.82,0,0,0-8.27-3.45q-8.44,0-15,9.42a36.72,36.72,0,0,0-4.36,8.44H82A18.63,18.63,0,0,1,85,628q3.61-3.69,10.49-3.61,8.28.09,13.19,2.13a8.29,8.29,0,0,0,1,.41A1.46,1.46,0,0,0,109.84,626.29Z"/><path class="cls-1" d="M135.41,638.5c-1.75-2.94-3-4.42-3.77-4.42-.38,0-1.48,1.53-3.28,4.59-1.86,3.22-2.79,5-2.79,5.32a2.79,2.79,0,0,0,.82.66q8.65,7,9.62,11.12h3.82c0-.83.08-1.67.08-2.52a26.11,26.11,0,0,0-1.63-9.26A37.91,37.91,0,0,0,135.41,638.5Z"/><path class="cls-1" d="M131.48,663.94q-4.68,4.8-17,10.62-5.33,2.54-5.32,3.19c0,.88,2.15,1.51,6.47,1.89q6.81.65,10.73.65a5.13,5.13,0,0,0,3.52-1.22,26.18,26.18,0,0,0,4.35-5.66,37.78,37.78,0,0,0,5.38-15.64H136C135.48,659.3,134,661.35,131.48,663.94Z"/><path class="cls-1" d="M157.53,632q0-3.36.16-7l.66-12.95.24-7.87a27.19,27.19,0,0,0-.08-3.93c-.16-.66-.49-1-1-1q-1.4,0-7.7,6.64.4,6.72.41,13.76c0,.6,0,1.89-.08,3.85-.06,2.25-.09,4.18-.09,5.83q-.06,5.81-.08,6.19a40.06,40.06,0,0,0,.83,8.28l7.13-7.14A23.08,23.08,0,0,1,157.53,632Z"/><path class="cls-1" d="M158.62,638.74l-7.18,7.19c1.88,5.69,5.59,8.55,11.17,8.55h2.78V642.27l-2.28-.16A5.11,5.11,0,0,1,158.62,638.74Z"/><path class="cls-1" d="M181.17,632.61q-.4-2.55-1.14-2.55c-.5,0-.88.85-1.15,2.55q-1.89,9.5-9.59,9.5h-1.64v12.37q5.32,0,8.16-2.38c1.88-1.58,3.28-4.06,4.22-7.45a16.11,16.11,0,0,0,3.11,6.76q2.38,3.08,9.26,3.07V642.11h-2.13Q182.82,642.11,181.17,632.61Z"/><polygon class="cls-1" points="174.45 672.75 180.11 678.41 185.68 672.59 180.19 666.93 174.45 672.75"/><path class="cls-1" d="M198.84,633.1c0,.65.27,1,.82,1q.57,0,1.8-1.47c1.69-2.25,3.47-3.36,5.33-3.36a6.22,6.22,0,0,1,.89.08v-8.84a11.87,11.87,0,0,0-5.36,5.07Q198.84,631.22,198.84,633.1Z"/><path class="cls-1" d="M217.93,639.26c-1.82.55-3.64,1-5.45,1.37a91.34,91.34,0,0,1-17.82,1.48v12.37h3.11a46.61,46.61,0,0,0,15.33-2.38,63.55,63.55,0,0,0,11.83-5.83Z"/><path class="cls-1" d="M226.68,645.19,227,645q6.63-4.1,9.17-4.83a20.68,20.68,0,0,1,5.49-1,5.7,5.7,0,0,0,1.23.08,6.47,6.47,0,0,0,1.15.09c.55-.11,1.09-.66,1.64-1.65l3.11-5.89a3.15,3.15,0,0,0,.57-1c0-.49-1-.87-3.11-1.15a104.21,104.21,0,0,1-27.2-7.29q-6.32-2.46-8.53-2.46a8.5,8.5,0,0,0-.87.07v9.82q1.77.51,4.32,1.5,5.9,2.38,13.11,4.51a72.82,72.82,0,0,1-7,2.78Z"/><polygon class="cls-1" points="218.09 672.84 223.75 678.49 229.4 672.84 223.67 667.1 218.09 672.84"/><path class="cls-1" d="M256.07,607l3.27,29.58q1.73,15.16,2.29,16.22c.23.66.61,1,1.16,1a.87.87,0,0,0,.81-.41,58.7,58.7,0,0,0,1.31-8.2l2.46-33.35,1-12.45c.06-.55-.11-.82-.49-.82Q266.63,598.52,256.07,607Z"/><path class="cls-1" d="M358.77,634.49q0-6.88-3.24-11.15c-2.16-2.84-3.45-4.26-3.89-4.26s-.88.82-1.64,2.47c-.33.81-.55,1.33-.66,1.55l-2.29,4.67c-.11.22-.2.38-.25.49l-.57,1.64a7.27,7.27,0,0,0,1.89,1.89c2.63,2.47,4.29,4.47,5,6h5.41A25.19,25.19,0,0,0,358.77,634.49Z"/><polygon class="cls-1" points="327.79 678.41 333.53 672.59 327.79 667.01 322.22 672.59 327.79 678.41"/><path class="cls-1" d="M358.18,639.77h-4.76c-.51,1.37-3,2.58-7.56,3.65q-7.67,1.8-21.67,1.8a82.53,82.53,0,0,1-15-1.1v12.64a78.87,78.87,0,0,0,13.12.92q23.44,0,29.95-6.93A23,23,0,0,0,358.18,639.77Z"/><path class="cls-1" d="M298,630.72a12.88,12.88,0,0,0,.17-2c0-.94-.31-1.4-.91-1.4-.82,0-1.62,1.31-2.42,3.93a30.67,30.67,0,0,0-1.19,8.85q0,11.07,9.51,15a24.4,24.4,0,0,0,4.05,1.23v-12.7a17.89,17.89,0,0,1-3.81-1.4,9.65,9.65,0,0,1-5.56-9.09c0-.17,0-.54.08-1.11S298,631,298,630.72Z"/><path class="cls-1" d="M367.44,629.25q-.06,5.81-.07,6.19a34.57,34.57,0,0,0,1.39,10.34l7.17-7.18a17.73,17.73,0,0,1-1-6.65c0-2.24.06-4.59.16-7l.67-12.95.24-7.87a27.19,27.19,0,0,0-.08-3.93c-.16-.66-.5-1-1-1q-1.39,0-7.7,6.64.41,6.72.41,13.76c0,.6,0,1.89-.08,3.85C367.47,625.67,367.44,627.6,367.44,629.25Z"/><path class="cls-1" d="M380,654.48h2.78V642.27l-2.29-.16a4.83,4.83,0,0,1-3.49-1.74l-7.44,7.44A10.65,10.65,0,0,0,380,654.48Z"/><path class="cls-1" d="M385,642.11v12.37a69.77,69.77,0,0,0,10.82-.81q8.28-1.32,16.8-7.87l2.75-2.11q-3.06-3.13-6.19-6.2a54.67,54.67,0,0,1-7.87,3.14,50.05,50.05,0,0,1-12.87,1.48Z"/><path class="cls-1" d="M425.43,637.36c0-1.53.85-2.3,2.54-2.3l.73.08a9.16,9.16,0,0,0,1.24.09,26.64,26.64,0,0,0,3.6.33,7.47,7.47,0,0,0,1.56-.29,1.53,1.53,0,0,0,.49-.78l.32-.41,3-6.06a3.08,3.08,0,0,0,.4-1.48c0-.33-.08-.49-.24-.49-.65,0-1.23-.11-1.72-.16a110.89,110.89,0,0,1-27.94-5.5,34.53,34.53,0,0,0-7.69-1.77v10.21l1,.25,15.07,4.1c-2.41,1.29-4.59,2.41-6.59,3.39q3,2.91,5.86,5.89l5.49-4.21a24.53,24.53,0,0,0-.25,3.12c0,.62,0,1.21.08,1.79a33.26,33.26,0,0,1,3.59-4.27A2.68,2.68,0,0,1,425.43,637.36Z"/><path class="cls-1" d="M391.51,631.29c1.74-2.18,3.63-3.27,5.65-3.27a13.8,13.8,0,0,1,2.52.35v-9.68q-5.88.79-9.48,8.75a14.3,14.3,0,0,0-1.56,4.43c0,.71.32,1.06,1,1.06C390.06,632.93,390.69,632.39,391.51,631.29Z"/><polygon class="cls-1" points="408.88 672.84 414.36 678.49 420.02 672.75 414.36 667.1 408.88 672.84"/><path class="cls-1" d="M427.42,640.2a34.35,34.35,0,0,0-4.64,5.83,13.29,13.29,0,0,0,.85,2.47q1.88,4.1,8.43,5.33a65.66,65.66,0,0,0,10.49.65V642.11c-5-.06-8.22-.2-9.75-.41A15.83,15.83,0,0,1,427.42,640.2Z"/><path class="cls-1" d="M462.63,640.63a91.34,91.34,0,0,1-17.82,1.48v12.37h3.12a46.59,46.59,0,0,0,15.32-2.38,67.34,67.34,0,0,0,13.31-6.75l-6.69-6.65A63.07,63.07,0,0,1,462.63,640.63Z"/><path class="cls-1" d="M452.48,625.56q-3.5,5.66-3.49,7.54c0,.65.27,1,.82,1,.38,0,1-.49,1.8-1.47,1.69-2.25,3.47-3.36,5.33-3.36,1.25,0,3.53.63,6.79,1.88l7.86-7.86c-.78-.3-1.57-.59-2.36-.91q-6.3-2.46-8.52-2.46Q456,619.9,452.48,625.56Z"/><path class="cls-1" d="M496.43,629.65A98.59,98.59,0,0,1,473.65,624l-7.88,7.88c3.51,1.35,7.33,2.65,11.49,3.88-1.77.8-3.53,1.53-5.29,2.17l6.35,6.31a42,42,0,0,1,8-4.14,20.62,20.62,0,0,1,5.48-1,5.7,5.7,0,0,0,1.23.08,6.55,6.55,0,0,0,1.15.09c.55-.11,1.09-.66,1.64-1.65l3.11-5.89a3.15,3.15,0,0,0,.57-1C499.54,630.31,498.51,629.93,496.43,629.65Z"/><path class="cls-1" d="M524.32,635.72a40.71,40.71,0,0,1,4.15-3.11c-1-1-2-2-3-3a22.05,22.05,0,0,0-3.8,2.88,13.85,13.85,0,0,0-2.12,4.1,13.51,13.51,0,0,0-.91,4.38,4.39,4.39,0,0,0,.78,2.13,7.94,7.94,0,0,0,2.84,1.44q3.39-3.4,6.83-6.79A19.88,19.88,0,0,1,524.32,635.72Z"/><path class="cls-1" d="M554.68,642.11h-2v12.37h2q14.55,0,16.17-14.21h-5.19C564.33,641.49,560.68,642.11,554.68,642.11Z"/><path class="cls-1" d="M565.5,620.47a1.27,1.27,0,0,0-.91.42c-.65.93-1.25,1.75-1.8,2.45l-3.11,5a5.69,5.69,0,0,0-.57,1.22c0,.28.24.66.73,1.15,3.52,3.57,5.57,6.07,6.18,7.55h5c0-.59.05-1.19.05-1.81a37.7,37.7,0,0,0-1.72-8.86Q567.37,620.48,565.5,620.47Z"/><polygon class="cls-1" points="557.55 667.35 563.04 673.16 568.77 667.35 563.04 661.61 557.55 667.35"/></svg>