<svg id="Layer_1" data-name="Layer 1" xmlns="http://www.w3.org/2000/svg" viewBox="0 0 595.28 841.89"><defs><style>.cls-1{fill:#231f20;}</style></defs><polygon class="cls-1" points="420.72 88.16 368.21 31.98 312.76 88.16 368.21 143.61 420.72 88.16"/><path class="cls-1" d="M168.93,222q6-10.12,15-24.11,8.37,10.46,17.39,31.5Q235,195.71,268.91,162.2c-.76-2.19-1.53-4.39-2.34-6.58q-22-61.32-56.91-85.19l-65.73,69.4,14.68,19.83Q146.2,175,136.13,189.17Z"/><path class="cls-1" d="M444.3,114.49l-77.85,82.26q9.92,19.83,9.92,70.5H287.13a325.28,325.28,0,0,0-15.77-97.66q-33.6,33.32-67.13,66.72,7.82,19.44,9.47,30.94H180.28q-22.77,0-22.77-20.56,0-4.4,7.83-18.46Q148.7,211.61,132.08,195q-39.56,57.6-39.56,96.52V629.78h.89A70.68,70.68,0,0,0,116,673q20.56,18.74,46.27,18.73H467.8V267.25q0-28.63-7-78.21Q453.12,134.32,444.3,114.49Z"/><rect class="cls-1" x="35.47" y="680.38" width="59.66" height="11.13"/><rect class="cls-1" x="485.38" y="680.38" width="74.42" height="11.13"/><rect class="cls-1" x="37.59" y="798.94" width="206.31" height="11.13"/><path class="cls-1" d="M79.21,744.5c1.73-1.1,3.64-2.22,5.75-3.36a38.35,38.35,0,0,0,.62,5.15L94,737.9l-1.6-11.64q-.8-6-1.59-6t-3.88,4.29q-3.21,4.29-3.21,5.47a48.85,48.85,0,0,0,.49,5.52c-3.51,2.13-6.36,3.91-8.59,5.36Z"/><path class="cls-1" d="M82.49,763c.6,0,1.56-1,2.86-3.16l2.08-3.36q1.38,7.8,4.43,11.63c1.77,2.25,5,3.36,9.66,3.36h3V756.61h-1.87c-2.43,0-4.15-.88-5.13-2.65-1.12-2.1-2.14-6.35-3.06-12.72l-.13-.94L86,748.62c.24,1.35.52,2.86.85,4.54a67.59,67.59,0,0,1-8.31-1.91q-4.06,4.08-8.08,8.19c1.15.45,2.61.95,4.38,1.51C79.14,762.33,81.72,763,82.49,763Z"/><path class="cls-1" d="M70,745a19.95,19.95,0,0,0-3.65,10.2,5.37,5.37,0,0,0,.93,2.56,3.91,3.91,0,0,0,1.27.84q4-4.07,8-8.08a19.56,19.56,0,0,1-3.36-1.62,45.77,45.77,0,0,1,4.42-3.35L73.94,742A23.42,23.42,0,0,0,70,745Z"/><path class="cls-1" d="M137.12,756.61h-2.58c-6,0-9.62-3.8-10.94-11.43-.32-2-.78-3.06-1.38-3.06s-1,1-1.37,3.06c-1.52,7.63-5.35,11.43-11.53,11.43h-2V771.5c4.27,0,7.53-1,9.81-2.86s4-4.89,5.06-9A19.5,19.5,0,0,0,126,767.8q2.86,3.71,11.14,3.7Z"/><polygon class="cls-1" points="116.51 777.22 110.4 784.31 116.61 791.01 122.53 784.61 128.84 791.01 134.75 784.31 128.84 777.51 122.53 783.72 116.51 777.22"/><path class="cls-1" d="M149.94,745.44a10.51,10.51,0,0,1,1.37-.85,12.27,12.27,0,0,1,5.63-1.48,10.53,10.53,0,0,1,2.63.36v-10.8a13.06,13.06,0,0,0-6.23,2.26,25.46,25.46,0,0,0-6.4,7.4c-.71,1.14-1.29,2.17-1.76,3.11Z"/><path class="cls-1" d="M161.5,732.58V744.1c.47.2,1,.43,1.44.69,2.39,1.28,3.59,2.79,3.65,4.51h4.09a16.41,16.41,0,0,0,.54-4.12,15.42,15.42,0,0,0-2.65-8.72A8.2,8.2,0,0,0,161.5,732.58Z"/><path class="cls-1" d="M140,771.5h3.24q7.4,0,14.3-5.72a21.67,21.67,0,0,0,14.89,5.72H175V756.61H166.9a21.33,21.33,0,0,0,3.14-5.38h-4.23q-1.86,2.13-8.18,4a22.15,22.15,0,0,1-6.4-3.89c-1.86-1.61-2.77-2.81-2.77-3.6a1.55,1.55,0,0,1,0-.37h-4.16a7,7,0,0,0-.51,2.54q0,2.18,3.94,6.7H140Z"/><polygon class="cls-1" points="164.34 708.81 158.02 715.11 151.62 708.71 145.21 715.81 151.81 722.51 158.13 716.1 164.43 722.61 171.22 715.81 164.34 708.81"/><polygon class="cls-1" points="202.56 709.5 195.96 702.6 189.06 709.4 195.96 716.3 202.56 709.5"/><path class="cls-1" d="M178.81,771.5h4.54q12.71,0,19.81-6.22a20.08,20.08,0,0,0,3.21-3.63q-3.36-3.3-6.71-6.62-5.34,1.58-15.93,1.58h-4.92Z"/><path class="cls-1" d="M182.75,743c0,3.09,1,5.17,2.91,6.22S191,750.8,196,750.8a59.4,59.4,0,0,0,9.16-.59c0,1.7-1.19,3.06-3.46,4.08,1.91,1.9,3.82,3.78,5.74,5.67a27.51,27.51,0,0,0,3-13.7,40.9,40.9,0,0,0-3-15.86,25.06,25.06,0,0,0-1.82-3.63L198.41,734h0a11.81,11.81,0,0,1,3.84,4.93c-1.9.14-4,.2-6.21.2a39.61,39.61,0,0,1-5.8-.29,2.19,2.19,0,0,1-2.07-2.27c0-.06,0-.13,0-.19h-4.76A33.32,33.32,0,0,0,182.75,743Z"/><path class="cls-1" d="M186.2,727.93a43,43,0,0,0-2.31,6.57h4.89a9,9,0,0,1,.58-1,6.45,6.45,0,0,1,3.83-1.19,8.77,8.77,0,0,1,3.45.72l7.91-7.92a10.53,10.53,0,0,0-8.59-4.43Q189.35,720.73,186.2,727.93Z"/><path class="cls-1" d="M232.51,746.16c0-1.43-.36-2.16-1.08-2.16-1,.06-1.94,1.78-2.86,5.12A36.87,36.87,0,0,0,227,759a24.84,24.84,0,0,0,1.49,8.66q3.79-3.85,7.62-7.69a11.38,11.38,0,0,1-3.88-9c.14-1.45.23-2.63.3-3.55Z"/><polygon class="cls-1" points="264.84 720.44 271.35 726.75 278.34 719.75 271.35 712.95 264.94 719.26 258.54 712.95 251.72 719.75 258.43 726.75 264.84 720.44"/><path class="cls-1" d="M237.64,761.12q-4.17,4.2-8.32,8.41a14.93,14.93,0,0,0,4.86,5.51q7.31,5.15,22.77,5a73.71,73.71,0,0,0,26.54-5V761.69a80.08,80.08,0,0,1-25.17,3.8Q244.1,765.43,237.64,761.12Z"/><path class="cls-1" d="M310.86,755.43c-1.91-.92-2.84-1.93-2.84-3q.28-1,.69-2.07a9.45,9.45,0,0,0,1-2.86,1.3,1.3,0,0,0-1.38-1.29c-.53,0-1.94,1.19-4.23,3.55-4.53,4.72-10.76,8.47-18.66,11.31V774.3q12.51-5.34,18.36-14.72,2.67,11.92,13.51,11.92h2V756.61H316A11.38,11.38,0,0,1,310.86,755.43Z"/><path class="cls-1" d="M346,754.45h-6.28q-2.48,2.16-13.16,2.16H324V771.5h2.47Q344,771.5,346,754.45Z"/><path class="cls-1" d="M346.13,752.52q.09-1.31.09-2.7,0-3.26-2.07-10.65-2.37-8.58-4.64-8.58a1.48,1.48,0,0,0-1.07.49c-.8,1.13-1.52,2.11-2.17,3l-3.75,6a7,7,0,0,0-.68,1.47c0,.34.28.8.88,1.39q7,7.1,7.63,9.6Z"/><polygon class="cls-1" points="338.93 783.82 332.91 777.51 326.81 784.31 333.21 791.01 338.93 784.8 344.65 791.01 351.14 784.31 344.65 777.51 338.93 783.82"/><path class="cls-1" d="M371.26,761.54q4.71-1.89,8.33-3.66c-1-1-1.94-2-2.93-3-2.19,1-4.67,2-7.41,3l-.43.44a.87.87,0,0,1-1.13.13l-.28.11c-.12.39-1,2.65-2.56,6.8a36.83,36.83,0,0,0-2.06,5.91A2,2,0,0,0,364,773a12.82,12.82,0,0,0,4.33.45,52.69,52.69,0,0,0,11.42-1.35v-10a27.69,27.69,0,0,1-3,.09C374,762.23,372.18,762,371.26,761.54Z"/><path class="cls-1" d="M388,758.46a5.86,5.86,0,0,1,.1,1c0,.59-1.21,1.22-3.65,1.88a27.94,27.94,0,0,1-2.81.57v9.7l.45-.12a17.16,17.16,0,0,0,8.18-4.64,10.58,10.58,0,0,0,2.26-7.39,22.73,22.73,0,0,0-.74-4.87Z"/><path class="cls-1" d="M379.92,744.4q2.73-2.74,5.51-5.44a100.78,100.78,0,0,0-13-20.1c-6.53-7.75-10.31-11.63-11.28-11.63-.53,0-1.16.86-1.89,2.56q-3.93,9.76-3.93,10.35c.53.93.95,1.64,1.29,2.17l.28.79,3.26,5.13c1,1.57,1.72,2.36,2.18,2.36.65,0,1.27-1.28,1.87-3.84A78.8,78.8,0,0,1,379.92,744.4Z"/><path class="cls-1" d="M388.91,746.56c-.83-2-1.7-3.89-2.6-5.76q-2.67,2.6-5.29,5.23,1.53,2.34,3.05,4.87a47.86,47.86,0,0,1-5.55,3.12c1,1,1.93,2,2.87,3q2.6-1.35,4.55-2.63a13.87,13.87,0,0,1,1.36,2.08l3.92-4c-.14-.48-.28-.94-.44-1.44a47.22,47.22,0,0,0,4.44-4.91l-3.76-3.69A29.79,29.79,0,0,1,388.91,746.56Z"/><path class="cls-1" d="M408.71,720.73a6.89,6.89,0,0,0-1.47-2.36l-4.83-6.9c-.53-.86-.92-1.51-1.18-2q-1.49-2.07-2.07-2.07c-.67,0-1.13.46-1.39,1.38a2.34,2.34,0,0,1-.59.79l-2.47,3.55c-1.44,2.1-2.17,3.61-2.17,4.53a13.43,13.43,0,0,0,.41,2.07,44.57,44.57,0,0,1,1.38,10.84,25.54,25.54,0,0,1-2,10l4.06,4a40.89,40.89,0,0,0,7.51-23.5,24.29,24.29,0,0,0,3.44.39Q408.71,721.42,408.71,720.73Z"/><path class="cls-1" d="M423.39,749.71a5.68,5.68,0,0,1,4.45-1.87,8.2,8.2,0,0,1,3.06.58V734.84q-5,0-8.09,5a41.07,41.07,0,0,0-5.3,12H422A7.21,7.21,0,0,1,423.39,749.71Z"/><path class="cls-1" d="M432.83,735v14.48q3.18,2.25,5.65,7.63-15.32,0-16.63-3.31H417a38.71,38.71,0,0,0-1.5,8.33q0,6.21,7.8,8.18c2.61.67,6.83,1,12.62,1h4.82a12.87,12.87,0,0,1-1,4.4h4.6c.13-.61.25-1.22.36-1.84a62.69,62.69,0,0,0,1-11.13,48.32,48.32,0,0,0-3-17.16Q439.17,736.17,432.83,735Z"/><path class="cls-1" d="M431.28,785.89a71,71,0,0,1-15.67,9.26c-5.72,2.44-8.58,4-8.58,4.84s2.51,1.41,7.48,2.06a95.48,95.48,0,0,0,12.92,1.09,10.37,10.37,0,0,0,3.25-.4,28,28,0,0,0,4.15-4.14q6-7.12,9.09-21h-5.13A30.67,30.67,0,0,1,431.28,785.89Z"/><path class="cls-1" d="M481.6,748.93a56.29,56.29,0,0,1,7.88-5.54v-5.93q-9.75,6-11,7.57a16.76,16.76,0,0,0-2.56,4.93,16.31,16.31,0,0,0-1.08,5.27,5.08,5.08,0,0,0,.94,2.56,4.39,4.39,0,0,0,1.48,1q4-4.05,8.15-8A19.76,19.76,0,0,1,481.6,748.93Z"/><path class="cls-1" d="M491.41,742.26l2-1.12a47.67,47.67,0,0,0,.86,6.55H504c-.39-1.83-.76-4-1.11-6.45l-2.09-15c-.51-4-1-6-1.57-6s-1.76,1.43-3.9,4.29-3.19,4.68-3.19,5.47a46.56,46.56,0,0,0,.49,5.52l-1.24.76Z"/><path class="cls-1" d="M506,754a19.88,19.88,0,0,1-1.5-4.34h-9.82c.2,1.09.43,2.26.68,3.54a67.33,67.33,0,0,1-7.88-1.78c-2.78,2.69-5.54,5.42-8.28,8.16,1.11.42,2.48.89,4.12,1.41,4.34,1.38,6.9,2.08,7.7,2.08q.87,0,2.85-3.16l2.07-3.36q1.38,7.8,4.43,11.63c1.78,2.25,5,3.36,9.67,3.36h3V756.61h-1.87C508.64,756.61,507,755.73,506,754Z"/><path class="cls-1" d="M521.17,756.61H518.7V771.5h2.47q18,0,19.54-18H535C534.36,755.57,529.76,756.61,521.17,756.61Z"/><path class="cls-1" d="M534.18,730.59a1.52,1.52,0,0,0-1.08.49c-.79,1.13-1.51,2.11-2.17,3l-3.74,6a6.77,6.77,0,0,0-.69,1.47c0,.34.29.8.89,1.39q5.82,5.91,7.24,8.64h6.21c0-.58,0-1.14,0-1.74q0-3.26-2.07-10.65C537.23,733.45,535.7,730.59,534.18,730.59Z"/><polygon class="cls-1" points="524.63 786.97 531.23 793.97 538.13 786.97 531.23 780.07 524.63 786.97"/></svg>