<svg id="Layer_1" data-name="Layer 1" xmlns="http://www.w3.org/2000/svg" viewBox="0 0 595.28 841.89"><defs><style>.cls-1{fill:#231f20;}</style></defs><rect class="cls-1" x="274.86" y="769.38" width="77.23" height="11.55"/><path class="cls-1" d="M485.39,363.62a368.36,368.36,0,0,0-46.64-82.12c-8.47,1.68-16.94,3.39-25.36,5.34A240.36,240.36,0,0,1,429,319.54c5.6,14.61,9.18,29.68,9.56,45.4.45,18.22-3.67,35.35-14.41,50.2-16.82,23.23-39.15,37-68.57,37-40.3,0-70.27-29.89-69.69-71.39.24-17.1,5.05-33.11,11.83-48.65,9.08-20.85,20.77-40.24,33.18-59.2,12.61-19.28,25.56-38.34,38.05-57.69s23.42-39.67,29.21-62.27c2.93-11.42,4.28-23,3-34.77C399.39,102,392.07,88.83,379.32,79a85.41,85.41,0,0,0-38.13-17.12c-16.76-2.85-31.91.93-45.88,10.29a82.54,82.54,0,0,0-18.24,17.25c-23.86,23.87-37.73,212.7-83.79,148.39-5.25-6-9.38-13.09-13.85-19.8-20-29.92-47.78-42.27-79-33.64-24.86,6.85-42.45,22.76-52,47C40,252.76,42,274.14,50,295,62.51,328,94.9,358.8,138.75,355.73c133.79,5,133.22-193.52,189.11-181.18,7.05.15,12.89,5,14.94,12.41,2.17,7.85.37,15.25-2.75,22.4a63,63,0,0,1-5.29,9.58c-9.6,14.48-19.4,28.83-29,43.31-15.14,22.85-30.53,45.53-45.14,68.71-17.87,28.32-33.8,57.7-44.88,89.47-9.63,27.59-16.43,55.73-16.82,85.13-.39,29.15,5.57,56.68,21.78,81.39,10.49,16,24.26,28.61,40.39,38.79,29.49,18.59,61.2,28.41,96.35,24.24,23.9-2.84,45.52-11.94,65.33-25.33,25.22-17,45.28-39.07,61.35-64.8,19.72-31.53,26.57-66,23.89-102.83C505.66,424.58,497.58,393.58,485.39,363.62Z"/><circle class="cls-1" cx="370.14" cy="355.94" r="26.52"/><path class="cls-1" d="M524.92,708.92q-1.39-2.62-2.54-10.57l-1.72-12.46q-.64-5-1.31-5t-3.24,3.57c-1.77,2.37-2.66,3.89-2.66,4.54a40,40,0,0,0,.41,4.6c-2.49,1.5-4.58,2.8-6.3,3.9,1,1,2,2,3,3q1.81-1.12,3.94-2.27a74.68,74.68,0,0,0,1.57,10c-1.6-.28-3-.58-4.37-.9q-3.51,3.45-7,6.94l1.35.44a38.23,38.23,0,0,0,6.39,1.72c.49,0,1.28-.87,2.37-2.63l1.73-2.78q1.14,6.48,3.68,9.66c1.47,1.87,4.15,2.79,8,2.79h2.46V711.13h-1.56A4.47,4.47,0,0,1,524.92,708.92Z"/><path class="cls-1" d="M82.75,708.18a61.2,61.2,0,0,0-9.83-1.48c-4.48-.49-7.51-1.11-9.1-1.88q-1.66-.44-1.86-1.2H58.28a25.93,25.93,0,0,0-.93,6.77q0,4.75,6.31,6.47c1.25.39,4.61.79,10.08,1.23a59.69,59.69,0,0,1,9.67,1.48c1.09.49,1.63,1.12,1.63,1.88a3.85,3.85,0,0,1-.05.5h3a32.47,32.47,0,0,0,.42-5.33A9.75,9.75,0,0,0,87.05,711,7.92,7.92,0,0,0,82.75,708.18Z"/><path class="cls-1" d="M59.15,728.83q-11.88,0-17.94-2.21c-6.56-2.36-9.84-6.72-9.84-13.12a32,32,0,0,1,1.31-8,11.45,11.45,0,0,0,.58-3c0-.81-.36-1.22-1.07-1.22q-1.71.08-3.93,7.08a44,44,0,0,0-2.21,13.15q0,9.51,6.31,14.1t20.07,4.59q12.87,0,20.74-3,8.17-3,11.71-7.54A16,16,0,0,0,87.57,724H84.14Q80.2,728.83,59.15,728.83Z"/><path class="cls-1" d="M90.21,695.31a10.72,10.72,0,0,0-3.69-8.1,11.83,11.83,0,0,0-8.28-3.45q-8.43,0-15,9.43a35.7,35.7,0,0,0-4.36,8.43h3.47a18.63,18.63,0,0,1,3-4.58q3.6-3.69,10.49-3.61,8.26.09,13.19,2.13a7.53,7.53,0,0,0,1,.41A1.47,1.47,0,0,0,90.21,695.31Z"/><path class="cls-1" d="M115.78,707.52c-1.76-2.94-3-4.42-3.77-4.42q-.58,0-3.28,4.59c-1.86,3.22-2.79,5-2.79,5.32a2.79,2.79,0,0,0,.82.66q8.65,7,9.62,11.12h3.82c0-.83.08-1.67.08-2.51a25.91,25.91,0,0,0-1.64-9.27A37.64,37.64,0,0,0,115.78,707.52Z"/><path class="cls-1" d="M111.84,733q-4.66,4.8-17,10.62-5.32,2.53-5.33,3.19,0,1.32,6.48,1.89,6.8.65,10.73.65a5.15,5.15,0,0,0,3.52-1.22,26.21,26.21,0,0,0,4.34-5.66A37.79,37.79,0,0,0,120,726.79h-3.68C115.85,728.32,114.37,730.37,111.84,733Z"/><path class="cls-1" d="M137.9,701q0-3.36.16-7l.66-12.95.24-7.87a27.19,27.19,0,0,0-.08-3.93c-.16-.66-.49-1-1-1q-1.4,0-7.7,6.64.41,6.72.41,13.76c0,.6,0,1.89-.08,3.85-.06,2.25-.09,4.19-.09,5.83q-.06,5.81-.08,6.19a40.11,40.11,0,0,0,.82,8.28l7.14-7.14A22.37,22.37,0,0,1,137.9,701Z"/><path class="cls-1" d="M139,707.76,131.8,715q2.82,8.53,11.18,8.55h2.78V711.29l-2.29-.16A5.09,5.09,0,0,1,139,707.76Z"/><path class="cls-1" d="M161.54,701.63c-.27-1.7-.66-2.55-1.15-2.55s-.87.85-1.14,2.55q-1.89,9.5-9.59,9.5H148V723.5q5.32,0,8.15-2.38c1.89-1.58,3.29-4.06,4.22-7.45a16.12,16.12,0,0,0,3.12,6.76q2.37,3.08,9.26,3.07V711.13h-2.14Q163.19,711.13,161.54,701.63Z"/><polygon class="cls-1" points="154.82 741.77 160.47 747.43 166.05 741.61 160.55 735.96 154.82 741.77"/><path class="cls-1" d="M179.21,702.12c0,.65.27,1,.82,1,.38,0,1-.49,1.79-1.47,1.7-2.25,3.47-3.36,5.34-3.36a6.34,6.34,0,0,1,.89.08v-8.84a11.83,11.83,0,0,0-5.36,5.07C180.36,698.35,179.21,700.86,179.21,702.12Z"/><path class="cls-1" d="M198.3,708.28c-1.83.55-3.64,1-5.45,1.37A91.52,91.52,0,0,1,175,711.13V723.5h3.12a46.55,46.55,0,0,0,15.32-2.38,63.59,63.59,0,0,0,11.84-5.83Z"/><path class="cls-1" d="M207.05,714.21l.34-.22c4.43-2.72,7.49-4.34,9.18-4.83a20.68,20.68,0,0,1,5.49-1,5.7,5.7,0,0,0,1.23.08,6.43,6.43,0,0,0,1.14.09q.82-.17,1.65-1.65l3.11-5.89a3.15,3.15,0,0,0,.57-1c0-.49-1-.87-3.11-1.15a104.28,104.28,0,0,1-27.21-7.29q-6.3-2.46-8.52-2.46a8.28,8.28,0,0,0-.87.07v9.82q1.77.51,4.32,1.5,5.9,2.38,13.1,4.51a71.66,71.66,0,0,1-7,2.78Z"/><polygon class="cls-1" points="198.46 741.86 204.12 747.51 209.77 741.86 204.03 736.12 198.46 741.86"/><path class="cls-1" d="M236.43,676l3.28,29.58q1.72,15.16,2.29,16.22c.22.66.6,1,1.15,1a.89.89,0,0,0,.82-.41,58.7,58.7,0,0,0,1.31-8.2l2.46-33.35,1-12.45c.05-.55-.11-.82-.49-.82Q247,667.54,236.43,676Z"/><path class="cls-1" d="M339.13,703.51q0-6.88-3.23-11.15c-2.17-2.84-3.46-4.26-3.9-4.26s-.87.82-1.63,2.47c-.33.81-.55,1.33-.66,1.55l-2.29,4.67-.25.5-.57,1.63a7.35,7.35,0,0,0,1.88,1.89c2.64,2.48,4.3,4.47,5,6h5.41A25.2,25.2,0,0,0,339.13,703.51Z"/><polygon class="cls-1" points="308.16 747.43 313.89 741.61 308.16 736.04 302.59 741.61 308.16 747.43"/><path class="cls-1" d="M338.55,708.79h-4.76c-.51,1.37-3,2.58-7.56,3.65q-7.67,1.8-21.67,1.8a82.53,82.53,0,0,1-15-1.1v12.64a78.87,78.87,0,0,0,13.12.92q23.43,0,29.95-6.93A23,23,0,0,0,338.55,708.79Z"/><path class="cls-1" d="M278.33,699.74a12.88,12.88,0,0,0,.17-2c0-.93-.3-1.4-.9-1.4q-1.23,0-2.42,3.93a30.67,30.67,0,0,0-1.19,8.85q0,11.07,9.51,15a24.11,24.11,0,0,0,4.05,1.23v-12.7a17.17,17.17,0,0,1-3.81-1.4,9.66,9.66,0,0,1-5.57-9.09c0-.17,0-.54.08-1.11S278.33,700.07,278.33,699.74Z"/><path class="cls-1" d="M347.81,698.27q-.06,5.81-.08,6.19a35.22,35.22,0,0,0,1.39,10.34l7.18-7.18a17.73,17.73,0,0,1-1-6.65q0-3.36.16-7l.66-12.95.24-7.87a27.19,27.19,0,0,0-.08-3.93c-.16-.66-.49-1-1-1q-1.39,0-7.7,6.64.4,6.72.41,13.76c0,.6,0,1.89-.08,3.85C347.84,694.69,347.81,696.63,347.81,698.27Z"/><path class="cls-1" d="M360.35,723.5h2.78V711.29l-2.29-.16a4.83,4.83,0,0,1-3.48-1.74l-7.44,7.44A10.65,10.65,0,0,0,360.35,723.5Z"/><path class="cls-1" d="M365.4,711.13V723.5a69.77,69.77,0,0,0,10.82-.81q8.26-1.32,16.79-7.87l2.75-2.11q-3-3.13-6.18-6.2a54.25,54.25,0,0,1-7.88,3.14,50,50,0,0,1-12.86,1.48Z"/><path class="cls-1" d="M405.8,706.38c0-1.53.84-2.3,2.54-2.3l.73.09a11,11,0,0,0,1.23.08,26.92,26.92,0,0,0,3.6.33,7.63,7.63,0,0,0,1.57-.29c.16-.08.32-.34.49-.78l.32-.41,3-6.06a3.08,3.08,0,0,0,.4-1.48c0-.33-.08-.49-.24-.49-.65-.05-1.23-.11-1.73-.16a110.82,110.82,0,0,1-27.93-5.5,34.65,34.65,0,0,0-7.69-1.77v10.21l1,.25,15.07,4.1c-2.41,1.3-4.59,2.42-6.59,3.39q3,2.91,5.86,5.89l5.48-4.2a24,24,0,0,0-.24,3.11c0,.62,0,1.21.08,1.79a33.19,33.19,0,0,1,3.58-4.27A2.67,2.67,0,0,1,405.8,706.38Z"/><path class="cls-1" d="M371.87,700.31q2.63-3.27,5.66-3.27a13.8,13.8,0,0,1,2.52.35v-9.68q-5.88.79-9.49,8.75a14.55,14.55,0,0,0-1.55,4.43c0,.71.32,1.06,1,1.06C370.42,702,371.05,701.41,371.87,700.31Z"/><polygon class="cls-1" points="389.24 741.86 394.73 747.51 400.39 741.77 394.73 736.12 389.24 741.86"/><path class="cls-1" d="M407.79,709.22a34.35,34.35,0,0,0-4.64,5.83,13.78,13.78,0,0,0,.84,2.47q1.89,4.1,8.44,5.33a65.57,65.57,0,0,0,10.49.65V711.13a97.1,97.1,0,0,1-9.75-.41A15.61,15.61,0,0,1,407.79,709.22Z"/><path class="cls-1" d="M443,709.65a91.34,91.34,0,0,1-17.82,1.48V723.5h3.11a46.65,46.65,0,0,0,15.33-2.38,67.61,67.61,0,0,0,13.31-6.75l-6.69-6.65A63.62,63.62,0,0,1,443,709.65Z"/><path class="cls-1" d="M432.84,694.58q-3.48,5.65-3.48,7.54c0,.65.27,1,.82,1q.57,0,1.8-1.47c1.69-2.25,3.47-3.36,5.33-3.36,1.25,0,3.52.63,6.79,1.88l7.86-7.86c-.79-.3-1.57-.59-2.37-.91q-6.3-2.46-8.52-2.46Q436.31,688.92,432.84,694.58Z"/><path class="cls-1" d="M476.8,698.67A98.59,98.59,0,0,1,454,693.06l-7.88,7.88c3.51,1.36,7.32,2.65,11.49,3.88Q455,706,452.34,707l6.35,6.31a42.31,42.31,0,0,1,8-4.14,20.68,20.68,0,0,1,5.49-1,5.7,5.7,0,0,0,1.23.08,6.47,6.47,0,0,0,1.15.09c.55-.11,1.09-.66,1.64-1.65l3.11-5.89a3.15,3.15,0,0,0,.57-1C479.91,699.33,478.88,699,476.8,698.67Z"/><path class="cls-1" d="M504.69,704.74a40.71,40.71,0,0,1,4.15-3.11c-1-1-2-2-3-3a21.81,21.81,0,0,0-3.79,2.88,14,14,0,0,0-2.13,4.1A13.74,13.74,0,0,0,499,710a4.36,4.36,0,0,0,.78,2.13,8.08,8.08,0,0,0,2.83,1.45q3.41-3.42,6.84-6.8A19.7,19.7,0,0,1,504.69,704.74Z"/><path class="cls-1" d="M535.05,711.13h-2V723.5h2q14.55,0,16.17-14.21H546C544.7,710.51,541.05,711.13,535.05,711.13Z"/><path class="cls-1" d="M545.86,689.5a1.22,1.22,0,0,0-.9.41c-.65.93-1.25,1.75-1.8,2.45l-3.11,5a5.46,5.46,0,0,0-.58,1.22c0,.28.25.66.74,1.15,3.52,3.57,5.56,6.07,6.18,7.55h5c0-.59.06-1.19.06-1.81a37.28,37.28,0,0,0-1.73-8.85C548.4,691.87,547.12,689.5,545.86,689.5Z"/><polygon class="cls-1" points="537.92 736.37 543.4 742.18 549.14 736.37 543.4 730.63 537.92 736.37"/></svg>