<svg id="Layer_1" data-name="Layer 1" xmlns="http://www.w3.org/2000/svg" viewBox="0 0 595.28 841.89"><defs><style>.cls-1{fill:#231f20;}</style></defs><path class="cls-1" d="M32.38,740.7a17.44,17.44,0,0,1,.81-4.65,9.66,9.66,0,0,0,.52-2.36c0-.75-.4-1.12-1.18-1.12-.94,0-1.92,2-3,6.06A43.29,43.29,0,0,0,27.94,749q0,7.25,5.7,10.82,4.88,3.07,14.74,3.51v-9.44a30.06,30.06,0,0,1-9.57-2.67A11.1,11.1,0,0,1,32.38,740.7Z"/><path class="cls-1" d="M81.12,745.06a15.47,15.47,0,0,0-6.72-1.12l-9.31-.07c-2.63,0-4.3-.35-5.05-.94H55.67a8.12,8.12,0,0,0-.18,1.83,4.09,4.09,0,0,0,2,3.84,16.59,16.59,0,0,0,6.94,1.11H75.65a8.33,8.33,0,0,1,2.84.34H83c0-.37.05-.76.05-1.15C83,747,82.4,745.7,81.12,745.06Z"/><path class="cls-1" d="M66.13,731.83A25.33,25.33,0,0,0,59,737a15.52,15.52,0,0,0-2.63,3.78h3.67q1.5-1.57,7.24-1.41L85.4,740V728.81H81.48Q72.18,728.81,66.13,731.83Z"/><path class="cls-1" d="M70.11,754a97,97,0,0,1-10.63.59c-2.86,0-5.49-.1-7.87-.3v9.16h.12q15,0,23.15-3.14c4.27-1.65,6.85-4.35,7.77-8.11H77.8Q75.7,753.34,70.11,754Z"/><path class="cls-1" d="M116.93,723.46a21.5,21.5,0,0,0-2.91,1.77,17.15,17.15,0,0,1,.8,5.06q0,3.76-2.8,3.77-3.1,0-5.58-5.1c-1.65-3.4-2.47-6-2.47-7.91q0-4,3.25-3.91c2.11.05,3.91,1.57,5.39,4.54l.21.46a28.4,28.4,0,0,1,3-1.68,17,17,0,0,0-2.18-3.68c-1.87-2.52-4-3.77-6.42-3.77a8.16,8.16,0,0,0-6.32,2.62,9.42,9.42,0,0,0-2.4,6.61c0,1.13,0,2.06.08,2.81a3,3,0,0,1,.07.44q0,3.32-7.53,3.32V740h.51A6.9,6.9,0,0,0,97,737.63a14.63,14.63,0,0,0,3.18-6.53q4.65,10.49,10.26,10.48a6.88,6.88,0,0,0,6.06-3.17,11.19,11.19,0,0,0,2-6.79,30.14,30.14,0,0,0-1.4-7.83C117,723.68,117,723.57,116.93,723.46Z"/><path class="cls-1" d="M127.38,703.7q13.65,9.46,16.28,19.21l2.66-2.67a38.67,38.67,0,0,0-9.49-19.57c2.66-.49,4-1.08,4-1.77-.09-.49-.93-1-2.51-1.47a12.49,12.49,0,0,0-2-.82l-2.95-1.47a22.71,22.71,0,0,1-4.36-3,4.77,4.77,0,0,0-1.41-1c-.39,0-.73.71-1,2.14l-1.18,6.06a14.38,14.38,0,0,0-.29,2.29C125.09,702,125.85,702.62,127.38,703.7Z"/><path class="cls-1" d="M147,724.89c-.07-.69-.18-1.35-.28-2l-2.58,2.6a13.83,13.83,0,0,1,.12,1.58,106.77,106.77,0,0,1-17.13,9.23c-2.41,1.08-3.62,1.8-3.62,2.14,0,1,3.25,1.53,9.75,1.48,4.38,0,7.39-.52,9-1.41q2.88-1.62,8.79-12.55,1.08-2,2.08-4l-2.34-2.34A55.23,55.23,0,0,1,147,724.89Z"/><path class="cls-1" d="M163.38,726.78q-1.15-2-1.15-7.72l.59-19.12c.05-1.58.07-3.2.07-4.88,0-2.51-.39-3.76-1.18-3.76-.44,0-.8.32-1.07,1a17.81,17.81,0,0,0-.77,4,51.71,51.71,0,0,1-4.66,15.14c-1,2.24-2.11,4.33-3.25,6.29l2.21,2.21c1.41-2.86,2.73-5.65,3.92-8.35q-.66,7.68-.66,15.29,0,13.14,10.34,13.14h.66V728.81a.7.7,0,0,1-.59.15C165.62,728.81,164.14,728.09,163.38,726.78Z"/><path class="cls-1" d="M209.57,724.64h3.66c-.07-1.41-.23-3-.5-4.92-.64-4.17-1.58-6.27-2.81-6.27-.1,0-.27.2-.52.59l-2.51,3.69c-.34.84-.52,1.21-.52,1.11A11.66,11.66,0,0,0,207,720,17.43,17.43,0,0,1,209.57,724.64Z"/><path class="cls-1" d="M184.88,723.19c-.19-1.17-.54-1.77-1-1.77s-1,.84-1.1,2.22a7.39,7.39,0,0,1-1.85,4c-.84.77-2.39,1.15-4.66,1.15h-3.1V740h2.07q5.25,0,8.42-4.87,2.4,4.21,6.05,4.72V728.6C187,728.33,185.38,726.54,184.88,723.19Z"/><path class="cls-1" d="M204.75,728.66q-6.19-.07-6.86-5.61c-.2-1.13-.57-1.7-1.11-1.7s-.84.79-1.19,2.37a8.23,8.23,0,0,1-1.77,3.84,3.88,3.88,0,0,1-2,1v11.24c2-.42,3.87-2,5.61-4.67q2.88,4.73,6.79,4.72a7.19,7.19,0,0,0,6.21-3.54,17.73,17.73,0,0,0,2.73-8.71c0-.24,0-.5.06-.77h-3.84C208.78,728.07,207.24,728.7,204.75,728.66Z"/><path class="cls-1" d="M233.91,689.53q-1.11,0-10.63,7.6l2.95,26.66q1.56,13.66,2.07,14.62c.2.59.54.89,1,.89a.79.79,0,0,0,.73-.37,53.89,53.89,0,0,0,1.19-7.39l2.21-30,.89-11.23C234.4,689.77,234.26,689.53,233.91,689.53Z"/><path class="cls-1" d="M259.84,731a28.61,28.61,0,0,1,1.19-7.23,10.73,10.73,0,0,0,.51-2.67c0-.73-.31-1.1-1-1.1Q259,720,257,726.33a39.56,39.56,0,0,0-2,11.86q0,8.56,5.7,12.7c3.57,2.6,9.17,4,16.73,4.1V744.47a35.34,35.34,0,0,1-8.76-1.7Q259.85,739.59,259.84,731Z"/><path class="cls-1" d="M306.15,726.15a55.42,55.42,0,0,0-8.86-1.33c-4-.44-6.77-1-8.2-1.7-1.13-.29-1.7-.71-1.7-1.25a5.6,5.6,0,0,1,.83-2.57L286,717.07a25,25,0,0,0-2.73,11.08q0,4.27,5.68,5.83a61.6,61.6,0,0,0,9.09,1.11,52.53,52.53,0,0,1,8.71,1.33,2.47,2.47,0,0,1,1.34,1.13H311a32.11,32.11,0,0,0,.22-3.79,8.7,8.7,0,0,0-1.22-5.1A7.12,7.12,0,0,0,306.15,726.15Z"/><path class="cls-1" d="M312.87,714.55a9.65,9.65,0,0,0-3.33-7.3,10.65,10.65,0,0,0-7.46-3.11q-7.6,0-13.51,8.5c-.56.81-1.05,1.63-1.52,2.44l2.38,2.38c.32-.43.66-.88,1.06-1.35q3.25-3.33,9.45-3.25,7.46.07,11.9,1.92a7.46,7.46,0,0,0,.88.37A1.33,1.33,0,0,0,312.87,714.55Z"/><path class="cls-1" d="M284.88,744.76c-1.48,0-2.86,0-4.18-.09V755c6.86-.14,12.48-1,16.81-2.63q7.38-2.67,10.56-6.8a14.83,14.83,0,0,0,2.57-5.87h-2.81Q305.24,744.76,284.88,744.76Z"/><path class="cls-1" d="M335.91,725.56q-2.37-4-3.4-4c-.34,0-1.33,1.38-2.95,4.14a29.17,29.17,0,0,0-2.51,4.8,2.54,2.54,0,0,0,.74.59q8.08,6.54,8.72,10.3h3.37q.09-1.26.09-2.55a23.53,23.53,0,0,0-1.47-8.34A33.85,33.85,0,0,0,335.91,725.56Z"/><path class="cls-1" d="M332.37,748.49q-4.22,4.32-15.29,9.56-4.8,2.3-4.8,2.88c0,.79,1.94,1.36,5.84,1.7,4.08.39,7.31.59,9.67.59a4.63,4.63,0,0,0,3.17-1.1,23.88,23.88,0,0,0,3.91-5.1,34,34,0,0,0,4.79-13.46h-3.5A20,20,0,0,1,332.37,748.49Z"/><path class="cls-1" d="M356.22,722.24a6.3,6.3,0,0,1,2.77.66q3.28-3.23,6.55-6.47a8.26,8.26,0,0,0-7-4q-4.74,0-8,7.71c-.38.91-.72,1.78-1,2.63,1.26.35,2.53.63,3.82.87A3.45,3.45,0,0,1,356.22,722.24Z"/><path class="cls-1" d="M358.73,750.74a52.33,52.33,0,0,1-12,7q-6,2.52-6,3.4.15,1.11,7.31,1.77a87.16,87.16,0,0,0,8.72.53q2.43,0,5.76-4.88a37,37,0,0,0,4.06-8.12,42.77,42.77,0,0,0,2-7H365A21.63,21.63,0,0,1,358.73,750.74Z"/><path class="cls-1" d="M367.13,719.4q-2.75,2.73-5.52,5.45a17.89,17.89,0,0,1,2.73,4h-3.91c-5.2,0-8-.73-8.55-2.17-1.17-.22-2.32-.49-3.47-.82a25.41,25.41,0,0,0-1.2,7,5.44,5.44,0,0,0,3.61,5.43q3.63,1.51,15.14,1.51a8.6,8.6,0,0,1-.21,1.5H369c.06-.45.14-.9.18-1.35h9V728.81h-8.57A37.89,37.89,0,0,0,367.13,719.4Z"/><path class="cls-1" d="M407.36,717.22a6.18,6.18,0,0,0-1.54-4.21,4.43,4.43,0,0,0-3.55-1.56q-4.27,0-9.45,4.58c-.42.38-.84.78-1.23,1.19q1.67,1.68,3.35,3.33a4.69,4.69,0,0,1,1.94-.38c2,0,3,.91,3,2.73s-1.31,3.65-3.92,5.91h-7.31a14.37,14.37,0,0,1,3.54-6.28l.11-.1-2.74-2.71a30.53,30.53,0,0,0-4.31,9.09h-4.65V740H385q1.47,8.2,6.06,12.18a16.45,16.45,0,0,0,5.45,3.28v-7a13.66,13.66,0,0,1-3.72-1.75A11.32,11.32,0,0,1,388.1,740h6.64a56.55,56.55,0,0,1,4.8,3.1q3.76,2.73,3.77,4c0,.35-.28.75-.82,1.22a3.76,3.76,0,0,1-2.51.7h-.25v7.13c.28,0,.56,0,.85,0a7.78,7.78,0,0,0,3.76-.81,6.6,6.6,0,0,0,3.55-6.28q0-4.57-7-9.08h10V728.81H400.42Q407.37,723.28,407.36,717.22Z"/><path class="cls-1" d="M432.27,711.45a10.43,10.43,0,0,0-5.24,1.7,8.8,8.8,0,0,0-3,4.07,15.56,15.56,0,0,0-1.11,5.46,14.34,14.34,0,0,1-.7,3.69,3.32,3.32,0,0,1-2.29,1.85,19.16,19.16,0,0,1-5.5.59V740a11.78,11.78,0,0,0,5.61-1.4c1.38-.89,3-3,4.95-6.36q4,7.57,9.19,8.39v-10l0,0a15.67,15.67,0,0,1-5-10.19,7.12,7.12,0,0,1,1-2.81,3.91,3.91,0,0,1,2.65-.88,4.59,4.59,0,0,1,3.18,1.66,9,9,0,0,1,.66.78l2.89-2.9C437,713,434.59,711.38,432.27,711.45Z"/><path class="cls-1" d="M445.49,726c-1.33-2-2.29-3.59-2.88-4.72-.44-.83-.89-1.6-1.33-2.32l-3,3c.26.54.52,1.11.78,1.74a16.12,16.12,0,0,1,1.55,5.83c0,1.77-.84,2.65-2.51,2.65a3.79,3.79,0,0,1-.73-.08v8.32a4.22,4.22,0,0,0,2.13-1.22,17.13,17.13,0,0,0,3.84-5.39Q446.09,740,451,740h2.36V728.81a12.47,12.47,0,0,1-4.72-.74A10.26,10.26,0,0,1,445.49,726Z"/><polygon class="cls-1" points="478.07 756.5 483.17 761.6 488.27 756.5 483.1 751.34 478.07 756.5"/><path class="cls-1" d="M461.46,721.57q.53,0,1.62-1.32c1.53-2,3.13-3,4.81-3q1.75,0,6.5,1.84l.56.22q3.53-3.56,7.06-7.09c-1-.38-2-.77-3.05-1.18q-5.68-2.21-7.68-2.21-4.29,0-7.42,5.09c-2.09,3.4-3.14,5.66-3.14,6.8C460.72,721.28,461,721.57,461.46,721.57Z"/><path class="cls-1" d="M503.48,717.58a87,87,0,0,1-18.11-4.19l-7.11,7.14c2.49.89,5.12,1.76,7.94,2.59A61.48,61.48,0,0,1,473,727.48,82.72,82.72,0,0,1,457,728.81V740h2.81a42.3,42.3,0,0,0,13.81-2.14,62.93,62.93,0,0,0,12.56-6.43q6-3.69,8.27-4.35a18.48,18.48,0,0,1,4.94-.89,5.5,5.5,0,0,0,1.11.07,6.25,6.25,0,0,0,1,.08c.5-.1,1-.59,1.48-1.48l2.81-5.31a2.87,2.87,0,0,0,.51-.89C506.28,718.18,505.35,717.83,503.48,717.58Z"/><path class="cls-1" d="M520.8,723.05a34.23,34.23,0,0,1,3-2.28c-.9-.9-1.82-1.79-2.72-2.7a15.24,15.24,0,0,0-2.62,2.06,14.8,14.8,0,0,0-2.73,7.65,4,4,0,0,0,.7,1.91,3.41,3.41,0,0,0,1.19.74l6-6A14.73,14.73,0,0,1,520.8,723.05Z"/><path class="cls-1" d="M539,726.82q-1.26-2.37-2.28-9.53l-1.56-11.22c-.39-3-.78-4.51-1.18-4.51s-1.32,1.07-2.92,3.21-2.4,3.51-2.4,4.1a35,35,0,0,0,.38,4.14c-2.05,1.24-3.8,2.32-5.27,3.25.91.92,1.84,1.82,2.76,2.72,1-.58,2-1.17,3.09-1.76a66.2,66.2,0,0,0,1.41,9c-1.43-.24-2.72-.51-3.9-.8l-6.26,6.26,1.15.38a34.19,34.19,0,0,0,5.76,1.55c.44,0,1.16-.78,2.14-2.36l1.55-2.52q1,5.85,3.32,8.72c1.33,1.68,3.74,2.51,7.24,2.51h2.22V728.81h-1.41A4,4,0,0,1,539,726.82Z"/><path class="cls-1" d="M564.46,723.72a33.88,33.88,0,0,0-1.56-8q-1.77-6.43-3.47-6.43a1.15,1.15,0,0,0-.81.37c-.59.84-1.13,1.58-1.63,2.22l-2.8,4.51a5.48,5.48,0,0,0-.52,1.1c0,.25.22.59.67,1,3.84,3.88,5.76,6.4,5.76,7.53q0,2.73-10.41,2.73h-1.85V740h1.85Q564.45,740,564.46,723.72Z"/><polygon class="cls-1" points="552.27 751.55 557.22 756.8 562.39 751.55 557.22 746.38 552.27 751.55"/><polygon class="cls-1" points="400.03 65.56 359.29 25.4 320.22 64.93 360.44 106.24 400.03 65.56"/><path class="cls-1" d="M190.12,177.78q15.75-10.09,35.06-20.53,0,9.39,4.66,36.3h57.34q-3.14-15.42-6.06-35.73L268.83,69.37c-3-23.65-6.15-35.47-9.27-35.47-2.71,0-10.42,8.44-23,25.31s-18.86,27.61-18.86,32.3c0,7,.94,17.82,2.92,32.56q-31.93,19.29-51.85,32.33Z"/><path class="cls-1" d="M120.78,579.08q4.38,5.85,44.49,18.59,38.44,12.27,45.42,12.24,5.16,0,16.88-18.59l12.19-19.8q8.13,45.94,26.15,68.66C276.43,653.36,295.39,660,323,660h26.15q116.43,0,116.37-128c0-2.45-.15-5.21-.44-8.26l.56-1.2s-.12-299.88-.12-314q0-19.23-12.19-62.83C444,111.88,434.89,95,425.94,95a8.62,8.62,0,0,0-6.36,2.92c-4.69,6.56-9,12.4-12.81,17.45l-22.09,35.47q-4.06,7.59-4.06,8.75c0,1.93,1.66,4.64,5.2,8.13,30.22,30.68,45.43,50.43,45.43,59.38q0,21.5-82.1,21.52H329.36c-14.38,0-24.38-5.26-30.22-15.73q-5.55-10.33-10.46-32.32h-57.6q2.22,12.28,5.24,27.68-57-9.92-80.95-25a289.66,289.66,0,0,1,28.75-21.54l-21.36-21.36q-21.58,14.42-26,19.87c-5.73,7.19-10.83,16.88-15.1,29.12s-6.36,22.61-6.36,31.15V572.18l1.83-.14A26,26,0,0,0,120.78,579.08Z"/><rect class="cls-1" x="107.64" y="804.94" width="90" height="11.55"/><rect class="cls-1" x="199.64" y="804.94" width="203.5" height="11.55"/><rect class="cls-1" x="405.14" y="804.94" width="82.5" height="11.55"/></svg>